G04 Layer_Color=8421504*
%FSLAX25Y25*%
%MOIN*%
G70*
G01*
G75*
%ADD10R,0.03543X0.03150*%
%ADD11R,0.05709X0.04528*%
G04:AMPARAMS|DCode=12|XSize=62.99mil|YSize=39.37mil|CornerRadius=1.97mil|HoleSize=0mil|Usage=FLASHONLY|Rotation=90.000|XOffset=0mil|YOffset=0mil|HoleType=Round|Shape=RoundedRectangle|*
%AMROUNDEDRECTD12*
21,1,0.06299,0.03543,0,0,90.0*
21,1,0.05905,0.03937,0,0,90.0*
1,1,0.00394,0.01772,0.02953*
1,1,0.00394,0.01772,-0.02953*
1,1,0.00394,-0.01772,-0.02953*
1,1,0.00394,-0.01772,0.02953*
%
%ADD12ROUNDEDRECTD12*%
%ADD13R,0.01378X0.01181*%
%ADD14R,0.02756X0.04921*%
%ADD15R,0.03937X0.04134*%
%ADD16R,0.04134X0.08661*%
%ADD17R,0.02520X0.02480*%
%ADD18R,0.02480X0.02520*%
%ADD19R,0.05799X0.02362*%
%ADD20R,0.04528X0.05709*%
%ADD21O,0.04508X0.02165*%
%ADD22O,0.02165X0.04508*%
%ADD23R,0.03150X0.03543*%
%ADD24R,0.05512X0.04724*%
%ADD25R,0.15748X0.04724*%
%ADD26R,0.03386X0.01181*%
%ADD27R,0.01181X0.03386*%
%ADD28R,0.12402X0.12402*%
%ADD29R,0.01575X0.05315*%
%ADD30R,0.06299X0.05512*%
%ADD31R,0.05709X0.05118*%
%ADD32R,0.07480X0.07480*%
%ADD33C,0.01968*%
%ADD34R,0.06900X0.09800*%
%ADD35R,0.03100X0.01200*%
%ADD36R,0.05200X0.02200*%
%ADD37R,0.01024X0.03386*%
%ADD38R,0.03386X0.01024*%
%ADD39R,0.18504X0.18504*%
G36*
X79757Y91091D02*
X76686D01*
Y94162D01*
X79757D01*
Y91091D01*
D02*
G37*
G36*
X75584D02*
X72510D01*
Y94162D01*
X75584D01*
Y91091D01*
D02*
G37*
G36*
Y95265D02*
X72510D01*
Y98338D01*
X75584D01*
Y95265D01*
D02*
G37*
G36*
X113807Y263700D02*
X106907D01*
Y273500D01*
X113807D01*
Y263700D01*
D02*
G37*
G36*
X79757Y95265D02*
X76687D01*
Y98343D01*
X79757D01*
Y95265D01*
D02*
G37*
D10*
X313500Y135657D02*
D03*
Y130145D02*
D03*
X205500Y12888D02*
D03*
Y18400D02*
D03*
X198300Y18400D02*
D03*
Y12888D02*
D03*
X69056Y51144D02*
D03*
Y56656D02*
D03*
X63100Y117900D02*
D03*
Y112388D02*
D03*
X91900Y131144D02*
D03*
Y136656D02*
D03*
X106300Y136656D02*
D03*
Y131144D02*
D03*
X75500Y137244D02*
D03*
Y142756D02*
D03*
X64000Y137488D02*
D03*
Y143000D02*
D03*
X85856Y116388D02*
D03*
Y121900D02*
D03*
X45856Y99500D02*
D03*
Y93988D02*
D03*
X29856Y93900D02*
D03*
Y99412D02*
D03*
Y82788D02*
D03*
Y88300D02*
D03*
X56256Y115188D02*
D03*
Y120700D02*
D03*
X52256Y51988D02*
D03*
Y57500D02*
D03*
X58656Y51588D02*
D03*
Y57100D02*
D03*
X52256Y68700D02*
D03*
Y63188D02*
D03*
X58656Y68700D02*
D03*
Y63188D02*
D03*
X81056Y61544D02*
D03*
Y67056D02*
D03*
X229856Y86635D02*
D03*
X224344D02*
D03*
X229856Y90965D02*
D03*
X224344D02*
D03*
X36256Y93812D02*
D03*
Y99324D02*
D03*
X86300Y61900D02*
D03*
Y56388D02*
D03*
X41056Y71100D02*
D03*
Y76612D02*
D03*
D11*
X322300Y129257D02*
D03*
Y136343D02*
D03*
X296409Y311261D02*
D03*
Y304174D02*
D03*
X256109Y282731D02*
D03*
Y289818D02*
D03*
X305000Y107500D02*
D03*
Y100413D02*
D03*
X317200Y81443D02*
D03*
Y74357D02*
D03*
X316800Y53143D02*
D03*
Y46057D02*
D03*
X317500Y25243D02*
D03*
Y18157D02*
D03*
X259900Y99657D02*
D03*
Y106743D02*
D03*
X328500Y174043D02*
D03*
Y166957D02*
D03*
X266950Y254400D02*
D03*
Y247313D02*
D03*
X88757Y262657D02*
D03*
Y269743D02*
D03*
X68757Y266313D02*
D03*
Y273400D02*
D03*
X334000Y136300D02*
D03*
Y129213D02*
D03*
X128309Y258474D02*
D03*
Y265561D02*
D03*
X297184Y291421D02*
D03*
Y284335D02*
D03*
X286084Y284478D02*
D03*
Y291565D02*
D03*
D12*
X268409Y288974D02*
D03*
D13*
X271657Y286415D02*
D03*
Y288974D02*
D03*
Y291533D02*
D03*
X265161D02*
D03*
Y288974D02*
D03*
Y286415D02*
D03*
D14*
X328000Y81391D02*
D03*
Y67809D02*
D03*
X328057Y52791D02*
D03*
Y39209D02*
D03*
X328200Y25391D02*
D03*
Y11809D02*
D03*
D15*
X259900Y91505D02*
D03*
D16*
X265707Y85600D02*
D03*
X254093D02*
D03*
D17*
X253300Y114031D02*
D03*
Y110369D02*
D03*
X240700Y106739D02*
D03*
Y110400D02*
D03*
D18*
X232469Y110400D02*
D03*
X236131D02*
D03*
X245269Y110400D02*
D03*
X248931D02*
D03*
X241731Y118400D02*
D03*
X238069D02*
D03*
D19*
X319399Y178240D02*
D03*
Y174500D02*
D03*
Y170760D02*
D03*
X310100D02*
D03*
Y174500D02*
D03*
Y178240D02*
D03*
D20*
X288690Y234516D02*
D03*
X295777D02*
D03*
X277490Y224116D02*
D03*
X284577D02*
D03*
X174757Y117600D02*
D03*
X181843D02*
D03*
X163557Y106400D02*
D03*
X170643D02*
D03*
X163557Y98400D02*
D03*
X170643D02*
D03*
X174413Y125943D02*
D03*
X181500D02*
D03*
X202643Y143543D02*
D03*
X195557D02*
D03*
X202300Y135543D02*
D03*
X195213D02*
D03*
X203557Y77600D02*
D03*
X210643D02*
D03*
X203557Y69600D02*
D03*
X210643D02*
D03*
X258149Y256113D02*
D03*
X251063D02*
D03*
X251063Y247313D02*
D03*
X258150D02*
D03*
X274309Y301974D02*
D03*
X267223D02*
D03*
X174413Y142400D02*
D03*
X181500D02*
D03*
X174413Y134400D02*
D03*
X181500D02*
D03*
X249387Y132800D02*
D03*
X242300D02*
D03*
X249043Y125600D02*
D03*
X241957D02*
D03*
X153213Y287800D02*
D03*
X160300D02*
D03*
D21*
X250434Y234513D02*
D03*
X266950D02*
D03*
D22*
X250818Y230193D02*
D03*
X253967D02*
D03*
X257117D02*
D03*
X260266D02*
D03*
X263416D02*
D03*
X266566D02*
D03*
Y238834D02*
D03*
X263416D02*
D03*
X260266D02*
D03*
X257117D02*
D03*
X253967D02*
D03*
X250818D02*
D03*
D23*
X56256Y127412D02*
D03*
X50744D02*
D03*
X36344Y88300D02*
D03*
X41856D02*
D03*
X103825Y95500D02*
D03*
X98313D02*
D03*
X109144Y111500D02*
D03*
X114656D02*
D03*
X109056Y117900D02*
D03*
X114568D02*
D03*
X86212Y38700D02*
D03*
X80700D02*
D03*
X124344Y127500D02*
D03*
X129856D02*
D03*
X124344Y133900D02*
D03*
X129856D02*
D03*
X96344Y131500D02*
D03*
X101856D02*
D03*
X45856Y105900D02*
D03*
X40344D02*
D03*
X68344Y61900D02*
D03*
X73856D02*
D03*
X88856Y79400D02*
D03*
X83344D02*
D03*
D24*
X73576Y292629D02*
D03*
Y285542D02*
D03*
D25*
X25856Y51880D02*
D03*
Y63100D02*
D03*
Y74320D02*
D03*
D26*
X66548Y101603D02*
D03*
Y99635D02*
D03*
Y97666D02*
D03*
Y95698D02*
D03*
Y93729D02*
D03*
Y91761D02*
D03*
Y89792D02*
D03*
Y87824D02*
D03*
X85721D02*
D03*
Y89792D02*
D03*
Y91761D02*
D03*
Y93729D02*
D03*
Y95698D02*
D03*
Y97666D02*
D03*
Y99635D02*
D03*
Y101603D02*
D03*
D27*
X83025Y104300D02*
D03*
X81056D02*
D03*
X79088D02*
D03*
X77119D02*
D03*
X75151D02*
D03*
X73182D02*
D03*
X71214D02*
D03*
X69245D02*
D03*
Y85127D02*
D03*
X71214D02*
D03*
X73182D02*
D03*
X75151D02*
D03*
X77119D02*
D03*
X79088D02*
D03*
X81056D02*
D03*
X83025D02*
D03*
D28*
X76135Y94713D02*
D03*
D29*
X31154Y300601D02*
D03*
X28595D02*
D03*
X26036D02*
D03*
X23477D02*
D03*
X20918D02*
D03*
D30*
X38635Y301487D02*
D03*
X13438D02*
D03*
D31*
X39521Y311132D02*
D03*
X12552D02*
D03*
D32*
X30761D02*
D03*
X21312D02*
D03*
D33*
X102508Y295000D02*
D03*
X121405Y295394D02*
D03*
D34*
X110357Y268600D02*
D03*
D35*
X116107Y271553D02*
D03*
Y269584D02*
D03*
Y267616D02*
D03*
Y265647D02*
D03*
X104607D02*
D03*
Y267616D02*
D03*
Y269584D02*
D03*
Y271553D02*
D03*
D36*
X232200Y48300D02*
D03*
Y55700D02*
D03*
X223600Y52000D02*
D03*
D37*
X200273Y100076D02*
D03*
X202242D02*
D03*
X204210D02*
D03*
X206179D02*
D03*
X208147D02*
D03*
X210116D02*
D03*
X212084D02*
D03*
X214053D02*
D03*
X216021D02*
D03*
X217990D02*
D03*
X219958D02*
D03*
X221927D02*
D03*
Y127124D02*
D03*
X219958D02*
D03*
X217990D02*
D03*
X216021D02*
D03*
X214053D02*
D03*
X212084D02*
D03*
X210116D02*
D03*
X208147D02*
D03*
X206179D02*
D03*
X204210D02*
D03*
X202242D02*
D03*
X200273D02*
D03*
D38*
X224624Y102773D02*
D03*
Y104742D02*
D03*
Y106710D02*
D03*
Y108679D02*
D03*
Y110647D02*
D03*
Y112616D02*
D03*
Y114584D02*
D03*
Y116553D02*
D03*
Y118521D02*
D03*
Y120490D02*
D03*
Y122458D02*
D03*
Y124427D02*
D03*
X197576D02*
D03*
Y122458D02*
D03*
Y120490D02*
D03*
Y118521D02*
D03*
Y116553D02*
D03*
Y114584D02*
D03*
Y112616D02*
D03*
Y110647D02*
D03*
Y108679D02*
D03*
Y106710D02*
D03*
Y104742D02*
D03*
Y102773D02*
D03*
D39*
X211100Y113600D02*
D03*
M02*
