G04 Layer_Physical_Order=2*
G04 Layer_Color=16711680*
%FSLAX25Y25*%
%MOIN*%
G70*
G01*
G75*
%ADD40C,0.01200*%
%ADD41C,0.02000*%
%ADD42C,0.01000*%
%ADD43C,0.00800*%
%ADD45C,0.04055*%
%ADD46C,0.05905*%
%ADD47C,0.06496*%
%ADD48C,0.06299*%
%ADD49R,0.06299X0.06299*%
%ADD50C,0.09331*%
%ADD51C,0.10039*%
%ADD52C,0.02400*%
G36*
X343300Y304400D02*
Y7200D01*
X337900Y1800D01*
X17200D01*
X2700Y16300D01*
X2700Y308500D01*
X10000Y318600D01*
X331500D01*
X343300Y304400D01*
D02*
G37*
%LPC*%
G36*
X172400Y54500D02*
X170976Y54312D01*
X169650Y53763D01*
X168511Y52889D01*
X167637Y51750D01*
X167088Y50424D01*
X166900Y49000D01*
X167088Y47576D01*
X167637Y46250D01*
X168511Y45111D01*
X169650Y44237D01*
X170976Y43688D01*
X172400Y43500D01*
X173823Y43688D01*
X175150Y44237D01*
X176289Y45111D01*
X177163Y46250D01*
X177712Y47576D01*
X177900Y49000D01*
X177712Y50424D01*
X177163Y51750D01*
X176289Y52889D01*
X175150Y53763D01*
X173823Y54312D01*
X172400Y54500D01*
D02*
G37*
G36*
X305500Y89956D02*
X304077Y89769D01*
X302750Y89220D01*
X301611Y88346D01*
X300737Y87207D01*
X300188Y85880D01*
X300000Y84457D01*
X300188Y83033D01*
X300737Y81707D01*
X301611Y80568D01*
X302693Y79737D01*
X302724Y79457D01*
X302693Y79176D01*
X301611Y78346D01*
X300737Y77206D01*
X300188Y75880D01*
X300000Y74457D01*
X300188Y73033D01*
X300737Y71707D01*
X301611Y70568D01*
X302750Y69694D01*
X304077Y69144D01*
X305500Y68957D01*
X306924Y69144D01*
X308250Y69694D01*
X309389Y70568D01*
X310263Y71707D01*
X310812Y73033D01*
X311000Y74457D01*
X310812Y75880D01*
X310263Y77206D01*
X309389Y78346D01*
X308307Y79176D01*
X308276Y79457D01*
X308307Y79737D01*
X309389Y80568D01*
X310263Y81707D01*
X310812Y83033D01*
X311000Y84457D01*
X310812Y85880D01*
X310263Y87207D01*
X309389Y88346D01*
X308250Y89220D01*
X306924Y89769D01*
X305500Y89956D01*
D02*
G37*
G36*
X71856Y44200D02*
X70433Y44012D01*
X69106Y43463D01*
X67967Y42589D01*
X67137Y41507D01*
X66856Y41476D01*
X66575Y41507D01*
X65745Y42589D01*
X64606Y43463D01*
X63279Y44012D01*
X61856Y44200D01*
X60433Y44012D01*
X59106Y43463D01*
X57967Y42589D01*
X57137Y41507D01*
X56856Y41476D01*
X56575Y41507D01*
X55745Y42589D01*
X54606Y43463D01*
X53279Y44012D01*
X51856Y44200D01*
X50432Y44012D01*
X49106Y43463D01*
X47967Y42589D01*
X47093Y41450D01*
X46544Y40124D01*
X46356Y38700D01*
X46544Y37277D01*
X47093Y35950D01*
X47967Y34811D01*
X49106Y33937D01*
X50432Y33388D01*
X51856Y33200D01*
X53279Y33388D01*
X54606Y33937D01*
X55745Y34811D01*
X56575Y35893D01*
X56856Y35924D01*
X57137Y35893D01*
X57967Y34811D01*
X59106Y33937D01*
X60433Y33388D01*
X61856Y33200D01*
X63279Y33388D01*
X64606Y33937D01*
X65745Y34811D01*
X66575Y35893D01*
X66856Y35924D01*
X67137Y35893D01*
X67967Y34811D01*
X69106Y33937D01*
X70433Y33388D01*
X71856Y33200D01*
X73279Y33388D01*
X74606Y33937D01*
X75745Y34811D01*
X76619Y35950D01*
X77168Y37277D01*
X77356Y38700D01*
X77168Y40124D01*
X76619Y41450D01*
X75745Y42589D01*
X74606Y43463D01*
X73279Y44012D01*
X71856Y44200D01*
D02*
G37*
G36*
X186500Y54300D02*
X185077Y54112D01*
X183750Y53563D01*
X182611Y52689D01*
X181737Y51550D01*
X181188Y50223D01*
X181000Y48800D01*
X181188Y47376D01*
X181737Y46050D01*
X182611Y44911D01*
X183750Y44037D01*
X185077Y43488D01*
X186500Y43300D01*
X187924Y43488D01*
X189250Y44037D01*
X190389Y44911D01*
X191263Y46050D01*
X191813Y47376D01*
X192000Y48800D01*
X191813Y50223D01*
X191263Y51550D01*
X190389Y52689D01*
X189250Y53563D01*
X187924Y54112D01*
X186500Y54300D01*
D02*
G37*
G36*
X316183Y100000D02*
X314760Y99812D01*
X313434Y99263D01*
X312295Y98389D01*
X311420Y97250D01*
X310871Y95924D01*
X310684Y94500D01*
X310871Y93076D01*
X311420Y91750D01*
X312295Y90611D01*
X313434Y89737D01*
X314760Y89188D01*
X316183Y89000D01*
X317607Y89188D01*
X318933Y89737D01*
X320072Y90611D01*
X320946Y91750D01*
X321496Y93076D01*
X321683Y94500D01*
X321496Y95924D01*
X320946Y97250D01*
X320072Y98389D01*
X318933Y99263D01*
X317607Y99812D01*
X316183Y100000D01*
D02*
G37*
G36*
X111100Y108832D02*
X110134Y108705D01*
X109234Y108332D01*
X108461Y107739D01*
X107917Y107030D01*
X107100D01*
X106186Y106910D01*
X105335Y106557D01*
X104604Y105996D01*
X102438Y103830D01*
X101500D01*
X100586Y103710D01*
X99735Y103357D01*
X99021Y102809D01*
X98834Y102732D01*
X98061Y102139D01*
X97468Y101366D01*
X97095Y100466D01*
X96968Y99500D01*
X97095Y98534D01*
X97468Y97634D01*
X98061Y96861D01*
X98834Y96268D01*
X99734Y95895D01*
X100700Y95768D01*
X101666Y95895D01*
X102566Y96268D01*
X103220Y96770D01*
X103900D01*
X104814Y96890D01*
X105665Y97243D01*
X106396Y97804D01*
X108562Y99970D01*
X109500D01*
X110414Y100090D01*
X111265Y100443D01*
X111996Y101004D01*
X112786Y101794D01*
X112966Y101868D01*
X113739Y102461D01*
X114332Y103234D01*
X114705Y104134D01*
X114832Y105100D01*
X114705Y106066D01*
X114332Y106966D01*
X113739Y107739D01*
X112966Y108332D01*
X112066Y108705D01*
X111100Y108832D01*
D02*
G37*
G36*
X316183Y125590D02*
X314760Y125403D01*
X313434Y124853D01*
X312295Y123979D01*
X311420Y122840D01*
X310871Y121514D01*
X310684Y120090D01*
X310871Y118667D01*
X311420Y117341D01*
X312295Y116201D01*
X313434Y115327D01*
X314760Y114778D01*
X316183Y114591D01*
X317607Y114778D01*
X318933Y115327D01*
X320072Y116201D01*
X320946Y117341D01*
X321496Y118667D01*
X321683Y120090D01*
X321496Y121514D01*
X320946Y122840D01*
X320072Y123979D01*
X318933Y124853D01*
X317607Y125403D01*
X316183Y125590D01*
D02*
G37*
G36*
X333900Y100000D02*
X332476Y99812D01*
X331150Y99263D01*
X330011Y98389D01*
X329137Y97250D01*
X328588Y95924D01*
X328400Y94500D01*
X328588Y93076D01*
X329137Y91750D01*
X330011Y90611D01*
X331150Y89737D01*
X332476Y89188D01*
X333900Y89000D01*
X335324Y89188D01*
X336650Y89737D01*
X337789Y90611D01*
X338663Y91750D01*
X339212Y93076D01*
X339400Y94500D01*
X339212Y95924D01*
X338663Y97250D01*
X337789Y98389D01*
X336650Y99263D01*
X335324Y99812D01*
X333900Y100000D01*
D02*
G37*
G36*
X132656Y96898D02*
X131156Y96700D01*
X129757Y96121D01*
X128557Y95200D01*
X127906Y94352D01*
X127406D01*
X126755Y95200D01*
X125555Y96121D01*
X124156Y96700D01*
X122656Y96898D01*
X121156Y96700D01*
X119757Y96121D01*
X118556Y95200D01*
X117635Y93999D01*
X117056Y92601D01*
X116858Y91100D01*
X117056Y89600D01*
X117635Y88201D01*
X118556Y87001D01*
X119404Y86350D01*
Y85850D01*
X118556Y85199D01*
X117635Y83999D01*
X117056Y82600D01*
X116858Y81100D01*
X117056Y79599D01*
X117635Y78201D01*
X118556Y77000D01*
X119404Y76350D01*
Y75850D01*
X118556Y75200D01*
X117635Y73999D01*
X117056Y72601D01*
X116858Y71100D01*
X117056Y69599D01*
X117635Y68201D01*
X118556Y67001D01*
X119404Y66350D01*
Y65850D01*
X118556Y65200D01*
X117635Y63999D01*
X117056Y62600D01*
X116858Y61100D01*
X117056Y59600D01*
X117635Y58201D01*
X118556Y57000D01*
X119404Y56350D01*
Y55850D01*
X118556Y55199D01*
X117635Y53999D01*
X117056Y52601D01*
X116858Y51100D01*
X117056Y49599D01*
X117635Y48201D01*
X118556Y47001D01*
X119404Y46350D01*
Y45850D01*
X118556Y45199D01*
X117635Y43999D01*
X117056Y42601D01*
X116858Y41100D01*
X117056Y39599D01*
X117635Y38201D01*
X118556Y37001D01*
X119757Y36079D01*
X121156Y35500D01*
X122656Y35302D01*
X124156Y35500D01*
X125555Y36079D01*
X126755Y37001D01*
X127406Y37848D01*
X127906D01*
X128557Y37001D01*
X129757Y36079D01*
X131156Y35500D01*
X132656Y35302D01*
X134157Y35500D01*
X135555Y36079D01*
X136756Y37001D01*
X137677Y38201D01*
X138256Y39599D01*
X138454Y41100D01*
X138256Y42601D01*
X137677Y43999D01*
X136756Y45199D01*
X135908Y45850D01*
Y46350D01*
X136756Y47001D01*
X137677Y48201D01*
X138256Y49599D01*
X138454Y51100D01*
X138256Y52601D01*
X137677Y53999D01*
X136756Y55199D01*
X135908Y55850D01*
Y56350D01*
X136756Y57000D01*
X137677Y58201D01*
X138256Y59600D01*
X138454Y61100D01*
X138256Y62600D01*
X137677Y63999D01*
X136756Y65200D01*
X135908Y65850D01*
Y66350D01*
X136756Y67001D01*
X137677Y68201D01*
X138256Y69599D01*
X138454Y71100D01*
X138256Y72601D01*
X137677Y73999D01*
X136756Y75200D01*
X135908Y75850D01*
Y76350D01*
X136756Y77000D01*
X137677Y78201D01*
X138256Y79599D01*
X138454Y81100D01*
X138256Y82600D01*
X137677Y83999D01*
X136756Y85199D01*
X135908Y85850D01*
Y86350D01*
X136756Y87001D01*
X137677Y88201D01*
X138256Y89600D01*
X138454Y91100D01*
X138256Y92601D01*
X137677Y93999D01*
X136756Y95200D01*
X135555Y96121D01*
X134157Y96700D01*
X132656Y96898D01*
D02*
G37*
G36*
X305500Y61556D02*
X304077Y61369D01*
X302750Y60820D01*
X301611Y59946D01*
X300737Y58807D01*
X300188Y57480D01*
X300000Y56057D01*
X300188Y54633D01*
X300737Y53307D01*
X301611Y52168D01*
X302693Y51337D01*
X302724Y51057D01*
X302693Y50776D01*
X301611Y49946D01*
X300737Y48807D01*
X300188Y47480D01*
X300000Y46057D01*
X300188Y44633D01*
X300737Y43307D01*
X301611Y42168D01*
X302750Y41294D01*
X304077Y40744D01*
X305500Y40557D01*
X306924Y40744D01*
X308250Y41294D01*
X309389Y42168D01*
X310263Y43307D01*
X310812Y44633D01*
X311000Y46057D01*
X310812Y47480D01*
X310263Y48807D01*
X309389Y49946D01*
X308307Y50776D01*
X308276Y51057D01*
X308307Y51337D01*
X309389Y52168D01*
X310263Y53307D01*
X310812Y54633D01*
X311000Y56057D01*
X310812Y57480D01*
X310263Y58807D01*
X309389Y59946D01*
X308250Y60820D01*
X306924Y61369D01*
X305500Y61556D01*
D02*
G37*
G36*
X306300Y33956D02*
X304876Y33769D01*
X303550Y33220D01*
X302411Y32346D01*
X301537Y31207D01*
X300988Y29880D01*
X300800Y28457D01*
X300988Y27033D01*
X301537Y25707D01*
X302411Y24568D01*
X303493Y23737D01*
X303524Y23457D01*
X303493Y23176D01*
X302411Y22346D01*
X301537Y21206D01*
X300988Y19880D01*
X300800Y18457D01*
X300988Y17033D01*
X301537Y15707D01*
X302411Y14568D01*
X303550Y13694D01*
X304876Y13144D01*
X306300Y12957D01*
X307723Y13144D01*
X309050Y13694D01*
X310189Y14568D01*
X311063Y15707D01*
X311612Y17033D01*
X311800Y18457D01*
X311612Y19880D01*
X311063Y21206D01*
X310189Y22346D01*
X309107Y23176D01*
X309076Y23457D01*
X309107Y23737D01*
X310189Y24568D01*
X311063Y25707D01*
X311612Y27033D01*
X311800Y28457D01*
X311612Y29880D01*
X311063Y31207D01*
X310189Y32346D01*
X309050Y33220D01*
X307723Y33769D01*
X306300Y33956D01*
D02*
G37*
G36*
X179300Y22670D02*
X177799Y22472D01*
X176401Y21893D01*
X175200Y20972D01*
X174550Y20124D01*
X174050D01*
X173399Y20972D01*
X172199Y21893D01*
X170800Y22472D01*
X169300Y22670D01*
X167799Y22472D01*
X166401Y21893D01*
X165200Y20972D01*
X164550Y20124D01*
X164050D01*
X163400Y20972D01*
X162199Y21893D01*
X160801Y22472D01*
X159300Y22670D01*
X157799Y22472D01*
X156401Y21893D01*
X155201Y20972D01*
X154550Y20124D01*
X154050D01*
X153400Y20972D01*
X152199Y21893D01*
X150801Y22472D01*
X149300Y22670D01*
X147800Y22472D01*
X146401Y21893D01*
X145201Y20972D01*
X144550Y20124D01*
X144050D01*
X143400Y20972D01*
X142199Y21893D01*
X140800Y22472D01*
X139300Y22670D01*
X137800Y22472D01*
X136401Y21893D01*
X135201Y20972D01*
X134279Y19771D01*
X133700Y18373D01*
X133502Y16872D01*
X133700Y15372D01*
X134279Y13974D01*
X135201Y12773D01*
X136401Y11851D01*
X137800Y11272D01*
X139300Y11075D01*
X140800Y11272D01*
X142199Y11851D01*
X143400Y12773D01*
X144050Y13621D01*
X144550D01*
X145201Y12773D01*
X146401Y11851D01*
X147800Y11272D01*
X149300Y11075D01*
X150801Y11272D01*
X152199Y11851D01*
X153400Y12773D01*
X154050Y13621D01*
X154550D01*
X155201Y12773D01*
X156401Y11851D01*
X157799Y11272D01*
X159300Y11075D01*
X160801Y11272D01*
X162199Y11851D01*
X163400Y12773D01*
X164050Y13621D01*
X164550D01*
X165200Y12773D01*
X166401Y11851D01*
X167799Y11272D01*
X169300Y11075D01*
X170800Y11272D01*
X172199Y11851D01*
X173399Y12773D01*
X174050Y13621D01*
X174550D01*
X175200Y12773D01*
X176401Y11851D01*
X177799Y11272D01*
X179300Y11075D01*
X180800Y11272D01*
X182199Y11851D01*
X183399Y12773D01*
X184321Y13974D01*
X184900Y15372D01*
X185098Y16872D01*
X184900Y18373D01*
X184321Y19771D01*
X183399Y20972D01*
X182199Y21893D01*
X180800Y22472D01*
X179300Y22670D01*
D02*
G37*
G36*
X213500Y20700D02*
X212076Y20512D01*
X210750Y19963D01*
X209611Y19089D01*
X208737Y17950D01*
X208188Y16623D01*
X208000Y15200D01*
X208188Y13777D01*
X208737Y12450D01*
X209611Y11311D01*
X210750Y10437D01*
X212076Y9888D01*
X213500Y9700D01*
X214924Y9888D01*
X216250Y10437D01*
X217389Y11311D01*
X218263Y12450D01*
X218812Y13777D01*
X219000Y15200D01*
X218812Y16623D01*
X218263Y17950D01*
X217389Y19089D01*
X216250Y19963D01*
X214924Y20512D01*
X213500Y20700D01*
D02*
G37*
G36*
X239091D02*
X237667Y20512D01*
X236341Y19963D01*
X235202Y19089D01*
X234328Y17950D01*
X233778Y16623D01*
X233591Y15200D01*
X233778Y13777D01*
X234328Y12450D01*
X235202Y11311D01*
X236341Y10437D01*
X237667Y9888D01*
X239091Y9700D01*
X240514Y9888D01*
X241841Y10437D01*
X242980Y11311D01*
X243854Y12450D01*
X244403Y13777D01*
X244590Y15200D01*
X244403Y16623D01*
X243854Y17950D01*
X242980Y19089D01*
X241841Y19963D01*
X240514Y20512D01*
X239091Y20700D01*
D02*
G37*
G36*
X213500Y38416D02*
X212076Y38229D01*
X210750Y37679D01*
X209611Y36805D01*
X208737Y35666D01*
X208188Y34340D01*
X208000Y32916D01*
X208188Y31493D01*
X208737Y30167D01*
X209611Y29027D01*
X210750Y28153D01*
X212076Y27604D01*
X213500Y27417D01*
X214924Y27604D01*
X216250Y28153D01*
X217389Y29027D01*
X218263Y30167D01*
X218812Y31493D01*
X219000Y32916D01*
X218812Y34340D01*
X218263Y35666D01*
X217389Y36805D01*
X216250Y37679D01*
X214924Y38229D01*
X213500Y38416D01*
D02*
G37*
G36*
X99456Y56600D02*
X98033Y56412D01*
X96706Y55863D01*
X95567Y54989D01*
X94693Y53850D01*
X94144Y52523D01*
X93956Y51100D01*
X94144Y49676D01*
X94693Y48350D01*
X95567Y47211D01*
X96649Y46381D01*
X96680Y46100D01*
X96649Y45819D01*
X95567Y44989D01*
X94693Y43850D01*
X94144Y42524D01*
X93956Y41100D01*
X94144Y39676D01*
X94693Y38350D01*
X95567Y37211D01*
X96706Y36337D01*
X98033Y35788D01*
X99456Y35600D01*
X100879Y35788D01*
X102206Y36337D01*
X103345Y37211D01*
X104219Y38350D01*
X104768Y39676D01*
X104956Y41100D01*
X104768Y42524D01*
X104219Y43850D01*
X103345Y44989D01*
X102263Y45819D01*
X102232Y46100D01*
X102263Y46381D01*
X103345Y47211D01*
X104219Y48350D01*
X104768Y49676D01*
X104956Y51100D01*
X104768Y52523D01*
X104219Y53850D01*
X103345Y54989D01*
X102206Y55863D01*
X100879Y56412D01*
X99456Y56600D01*
D02*
G37*
G36*
X145900Y97200D02*
X144476Y97012D01*
X143150Y96463D01*
X142011Y95589D01*
X141137Y94450D01*
X140588Y93124D01*
X140400Y91700D01*
X140588Y90276D01*
X141137Y88950D01*
X142011Y87811D01*
X143093Y86981D01*
X143124Y86700D01*
X143093Y86419D01*
X142011Y85589D01*
X141137Y84450D01*
X140588Y83123D01*
X140400Y81700D01*
X140588Y80277D01*
X141137Y78950D01*
X142011Y77811D01*
X143093Y76981D01*
X143124Y76700D01*
X143093Y76419D01*
X142011Y75589D01*
X141137Y74450D01*
X140588Y73124D01*
X140400Y71700D01*
X140588Y70276D01*
X141137Y68950D01*
X142011Y67811D01*
X143093Y66981D01*
X143124Y66700D01*
X143093Y66419D01*
X142011Y65589D01*
X141137Y64450D01*
X140588Y63124D01*
X140400Y61700D01*
X140588Y60277D01*
X141137Y58950D01*
X142011Y57811D01*
X143093Y56981D01*
X143124Y56700D01*
X143093Y56419D01*
X142011Y55589D01*
X141137Y54450D01*
X140588Y53123D01*
X140400Y51700D01*
X140588Y50276D01*
X141137Y48950D01*
X142011Y47811D01*
X143093Y46981D01*
X143124Y46700D01*
X143093Y46419D01*
X142011Y45589D01*
X141137Y44450D01*
X140588Y43123D01*
X140400Y41700D01*
X140588Y40277D01*
X141137Y38950D01*
X142011Y37811D01*
X143150Y36937D01*
X144476Y36388D01*
X145900Y36200D01*
X147324Y36388D01*
X148650Y36937D01*
X149789Y37811D01*
X150663Y38950D01*
X151212Y40277D01*
X151400Y41700D01*
X151212Y43123D01*
X150663Y44450D01*
X149789Y45589D01*
X148707Y46419D01*
X148676Y46700D01*
X148707Y46981D01*
X149789Y47811D01*
X150663Y48950D01*
X151212Y50276D01*
X151400Y51700D01*
X151212Y53123D01*
X150663Y54450D01*
X149789Y55589D01*
X148707Y56419D01*
X148676Y56700D01*
X148707Y56981D01*
X149789Y57811D01*
X150663Y58950D01*
X151212Y60277D01*
X151400Y61700D01*
X151212Y63124D01*
X150663Y64450D01*
X149789Y65589D01*
X148707Y66419D01*
X148676Y66700D01*
X148707Y66981D01*
X149789Y67811D01*
X150663Y68950D01*
X151212Y70276D01*
X151400Y71700D01*
X151212Y73124D01*
X150663Y74450D01*
X149789Y75589D01*
X148707Y76419D01*
X148676Y76700D01*
X148707Y76981D01*
X149789Y77811D01*
X150663Y78950D01*
X151212Y80277D01*
X151400Y81700D01*
X151212Y83123D01*
X150663Y84450D01*
X149789Y85589D01*
X148707Y86419D01*
X148676Y86700D01*
X148707Y86981D01*
X149789Y87811D01*
X150663Y88950D01*
X151212Y90276D01*
X151400Y91700D01*
X151212Y93124D01*
X150663Y94450D01*
X149789Y95589D01*
X148650Y96463D01*
X147324Y97012D01*
X145900Y97200D01*
D02*
G37*
G36*
X239091Y38416D02*
X237667Y38229D01*
X236341Y37679D01*
X235202Y36805D01*
X234328Y35666D01*
X233778Y34340D01*
X233591Y32916D01*
X233778Y31493D01*
X234328Y30167D01*
X235202Y29027D01*
X236341Y28153D01*
X237667Y27604D01*
X239091Y27417D01*
X240514Y27604D01*
X241841Y28153D01*
X242980Y29027D01*
X243854Y30167D01*
X244403Y31493D01*
X244590Y32916D01*
X244403Y34340D01*
X243854Y35666D01*
X242980Y36805D01*
X241841Y37679D01*
X240514Y38229D01*
X239091Y38416D01*
D02*
G37*
G36*
X197500Y39100D02*
X196077Y38912D01*
X194750Y38363D01*
X193611Y37489D01*
X192737Y36350D01*
X192188Y35023D01*
X192000Y33600D01*
X192188Y32177D01*
X192737Y30850D01*
X193611Y29711D01*
X194750Y28837D01*
X196077Y28288D01*
X197500Y28100D01*
X198923Y28288D01*
X200250Y28837D01*
X201389Y29711D01*
X202263Y30850D01*
X202812Y32177D01*
X203000Y33600D01*
X202812Y35023D01*
X202263Y36350D01*
X201389Y37489D01*
X200250Y38363D01*
X198923Y38912D01*
X197500Y39100D01*
D02*
G37*
G36*
X327564Y293931D02*
X326140Y293743D01*
X324814Y293194D01*
X323675Y292320D01*
X322801Y291181D01*
X322251Y289854D01*
X322064Y288431D01*
X322251Y287007D01*
X322801Y285681D01*
X323675Y284542D01*
X324814Y283668D01*
X326140Y283118D01*
X327564Y282931D01*
X328987Y283118D01*
X330314Y283668D01*
X331453Y284542D01*
X332327Y285681D01*
X332876Y287007D01*
X333064Y288431D01*
X332876Y289854D01*
X332327Y291181D01*
X331453Y292320D01*
X330314Y293194D01*
X328987Y293743D01*
X327564Y293931D01*
D02*
G37*
G36*
X52079Y287105D02*
X50656Y286917D01*
X49330Y286368D01*
X48190Y285494D01*
X47360Y284412D01*
X47079Y284381D01*
X46799Y284412D01*
X45968Y285494D01*
X44829Y286368D01*
X43503Y286917D01*
X42079Y287105D01*
X40656Y286917D01*
X39329Y286368D01*
X38190Y285494D01*
X37316Y284355D01*
X36767Y283029D01*
X36580Y281605D01*
X36767Y280182D01*
X37316Y278855D01*
X38190Y277716D01*
X39329Y276842D01*
X40656Y276293D01*
X42079Y276105D01*
X43503Y276293D01*
X44829Y276842D01*
X45968Y277716D01*
X46799Y278798D01*
X47079Y278829D01*
X47360Y278798D01*
X48190Y277716D01*
X49330Y276842D01*
X50656Y276293D01*
X52079Y276105D01*
X53503Y276293D01*
X54829Y276842D01*
X55968Y277716D01*
X56842Y278855D01*
X57392Y280182D01*
X57579Y281605D01*
X57392Y283029D01*
X56842Y284355D01*
X55968Y285494D01*
X54829Y286368D01*
X53503Y286917D01*
X52079Y287105D01*
D02*
G37*
G36*
X31157Y270100D02*
X29733Y269912D01*
X28407Y269363D01*
X27268Y268489D01*
X26394Y267350D01*
X25844Y266023D01*
X25657Y264600D01*
X25844Y263176D01*
X26394Y261850D01*
X27268Y260711D01*
X28407Y259837D01*
X29733Y259288D01*
X31157Y259100D01*
X32580Y259288D01*
X33906Y259837D01*
X35045Y260711D01*
X35920Y261850D01*
X36469Y263176D01*
X36656Y264600D01*
X36469Y266023D01*
X35920Y267350D01*
X35045Y268489D01*
X33906Y269363D01*
X32580Y269912D01*
X31157Y270100D01*
D02*
G37*
G36*
X281000Y212000D02*
X279576Y211812D01*
X278250Y211263D01*
X277111Y210389D01*
X276281Y209307D01*
X276000Y209276D01*
X275719Y209307D01*
X274889Y210389D01*
X273750Y211263D01*
X272424Y211812D01*
X271000Y212000D01*
X269577Y211812D01*
X268250Y211263D01*
X267111Y210389D01*
X266281Y209307D01*
X266000Y209276D01*
X265719Y209307D01*
X264889Y210389D01*
X263750Y211263D01*
X262423Y211812D01*
X261000Y212000D01*
X259577Y211812D01*
X258250Y211263D01*
X257111Y210389D01*
X256281Y209307D01*
X256000Y209276D01*
X255719Y209307D01*
X254889Y210389D01*
X253750Y211263D01*
X252424Y211812D01*
X251000Y212000D01*
X249576Y211812D01*
X248250Y211263D01*
X247111Y210389D01*
X246281Y209307D01*
X246000Y209276D01*
X245719Y209307D01*
X244889Y210389D01*
X243750Y211263D01*
X242424Y211812D01*
X241000Y212000D01*
X239577Y211812D01*
X238250Y211263D01*
X237111Y210389D01*
X236237Y209250D01*
X235688Y207924D01*
X235500Y206500D01*
X235688Y205077D01*
X236237Y203750D01*
X237111Y202611D01*
X238250Y201737D01*
X239577Y201188D01*
X241000Y201000D01*
X242424Y201188D01*
X243750Y201737D01*
X244889Y202611D01*
X245719Y203693D01*
X246000Y203724D01*
X246281Y203693D01*
X247111Y202611D01*
X248250Y201737D01*
X249576Y201188D01*
X251000Y201000D01*
X252424Y201188D01*
X253750Y201737D01*
X254889Y202611D01*
X255719Y203693D01*
X256000Y203724D01*
X256281Y203693D01*
X257111Y202611D01*
X258250Y201737D01*
X259577Y201188D01*
X261000Y201000D01*
X262423Y201188D01*
X263750Y201737D01*
X264889Y202611D01*
X265719Y203693D01*
X266000Y203724D01*
X266281Y203693D01*
X267111Y202611D01*
X268250Y201737D01*
X269577Y201188D01*
X271000Y201000D01*
X272424Y201188D01*
X273750Y201737D01*
X274889Y202611D01*
X275719Y203693D01*
X276000Y203724D01*
X276281Y203693D01*
X277111Y202611D01*
X278250Y201737D01*
X279576Y201188D01*
X281000Y201000D01*
X282423Y201188D01*
X283750Y201737D01*
X284889Y202611D01*
X285763Y203750D01*
X286312Y205077D01*
X286500Y206500D01*
X286312Y207924D01*
X285763Y209250D01*
X284889Y210389D01*
X283750Y211263D01*
X282423Y211812D01*
X281000Y212000D01*
D02*
G37*
G36*
X308400Y245600D02*
X306977Y245412D01*
X305650Y244863D01*
X304511Y243989D01*
X303637Y242850D01*
X303088Y241524D01*
X302900Y240100D01*
X303088Y238677D01*
X303637Y237350D01*
X304511Y236211D01*
X305593Y235381D01*
X305624Y235100D01*
X305593Y234819D01*
X304511Y233989D01*
X303637Y232850D01*
X303088Y231523D01*
X302900Y230100D01*
X303088Y228677D01*
X303637Y227350D01*
X304511Y226211D01*
X305650Y225337D01*
X306977Y224788D01*
X308400Y224600D01*
X309823Y224788D01*
X311150Y225337D01*
X312289Y226211D01*
X313163Y227350D01*
X313712Y228677D01*
X313900Y230100D01*
X313712Y231523D01*
X313163Y232850D01*
X312289Y233989D01*
X311207Y234819D01*
X311176Y235100D01*
X311207Y235381D01*
X312289Y236211D01*
X313163Y237350D01*
X313712Y238677D01*
X313900Y240100D01*
X313712Y241524D01*
X313163Y242850D01*
X312289Y243989D01*
X311150Y244863D01*
X309823Y245412D01*
X308400Y245600D01*
D02*
G37*
G36*
X255957Y305300D02*
X254533Y305112D01*
X253207Y304563D01*
X252068Y303689D01*
X251237Y302607D01*
X250957Y302576D01*
X250676Y302607D01*
X249846Y303689D01*
X248707Y304563D01*
X247380Y305112D01*
X245957Y305300D01*
X244533Y305112D01*
X243207Y304563D01*
X242068Y303689D01*
X241194Y302550D01*
X240644Y301223D01*
X240457Y299800D01*
X240644Y298376D01*
X241194Y297050D01*
X242068Y295911D01*
X243207Y295037D01*
X244533Y294488D01*
X245957Y294300D01*
X247380Y294488D01*
X248707Y295037D01*
X249846Y295911D01*
X250676Y296993D01*
X250957Y297024D01*
X251237Y296993D01*
X252068Y295911D01*
X253207Y295037D01*
X254533Y294488D01*
X255957Y294300D01*
X257380Y294488D01*
X258706Y295037D01*
X259846Y295911D01*
X260720Y297050D01*
X261269Y298376D01*
X261456Y299800D01*
X261269Y301223D01*
X260720Y302550D01*
X259846Y303689D01*
X258706Y304563D01*
X257380Y305112D01*
X255957Y305300D01*
D02*
G37*
G36*
X327209Y307274D02*
X325786Y307086D01*
X324460Y306537D01*
X323320Y305663D01*
X322490Y304581D01*
X322209Y304550D01*
X321929Y304581D01*
X321098Y305663D01*
X319959Y306537D01*
X318633Y307086D01*
X317209Y307274D01*
X315786Y307086D01*
X314459Y306537D01*
X313320Y305663D01*
X312446Y304524D01*
X311897Y303197D01*
X311710Y301774D01*
X311897Y300351D01*
X312446Y299024D01*
X313320Y297885D01*
X314459Y297011D01*
X315786Y296462D01*
X317209Y296274D01*
X318633Y296462D01*
X319959Y297011D01*
X321098Y297885D01*
X321929Y298967D01*
X322209Y298998D01*
X322490Y298967D01*
X323320Y297885D01*
X324460Y297011D01*
X325786Y296462D01*
X327209Y296274D01*
X328633Y296462D01*
X329959Y297011D01*
X331098Y297885D01*
X331972Y299024D01*
X332522Y300351D01*
X332709Y301774D01*
X332522Y303197D01*
X331972Y304524D01*
X331098Y305663D01*
X329959Y306537D01*
X328633Y307086D01*
X327209Y307274D01*
D02*
G37*
G36*
X141957Y305300D02*
X140533Y305112D01*
X139207Y304563D01*
X138068Y303689D01*
X137237Y302607D01*
X136957Y302576D01*
X136676Y302607D01*
X135846Y303689D01*
X134706Y304563D01*
X133380Y305112D01*
X131957Y305300D01*
X130533Y305112D01*
X129207Y304563D01*
X128068Y303689D01*
X127194Y302550D01*
X126644Y301223D01*
X126457Y299800D01*
X126644Y298376D01*
X127194Y297050D01*
X128068Y295911D01*
X129207Y295037D01*
X130533Y294488D01*
X131957Y294300D01*
X133380Y294488D01*
X134706Y295037D01*
X135846Y295911D01*
X136676Y296993D01*
X136957Y297024D01*
X137237Y296993D01*
X138068Y295911D01*
X139207Y295037D01*
X140533Y294488D01*
X141957Y294300D01*
X143380Y294488D01*
X144706Y295037D01*
X145846Y295911D01*
X146720Y297050D01*
X147269Y298376D01*
X147456Y299800D01*
X147269Y301223D01*
X146720Y302550D01*
X145846Y303689D01*
X144706Y304563D01*
X143380Y305112D01*
X141957Y305300D01*
D02*
G37*
G36*
X274309Y300006D02*
X273343Y299879D01*
X272443Y299506D01*
X271671Y298913D01*
X271077Y298140D01*
X270705Y297240D01*
X270578Y296274D01*
X270705Y295308D01*
X271077Y294408D01*
X271384Y294008D01*
Y289733D01*
X271305Y289540D01*
X271178Y288574D01*
X271305Y287608D01*
X271677Y286708D01*
X272270Y285935D01*
X273043Y285342D01*
X273943Y284969D01*
X274909Y284842D01*
X275875Y284969D01*
X276775Y285342D01*
X277548Y285935D01*
X278141Y286708D01*
X278514Y287608D01*
X278641Y288574D01*
X278514Y289540D01*
X278141Y290440D01*
X277548Y291213D01*
X277234Y291454D01*
Y294008D01*
X277541Y294408D01*
X277914Y295308D01*
X278041Y296274D01*
X277914Y297240D01*
X277541Y298140D01*
X276948Y298913D01*
X276175Y299506D01*
X275275Y299879D01*
X274309Y300006D01*
D02*
G37*
G36*
X192539Y299200D02*
X181240D01*
Y287901D01*
X192539D01*
Y299200D01*
D02*
G37*
G36*
X130256Y152600D02*
X128832Y152412D01*
X127506Y151863D01*
X126367Y150989D01*
X125537Y149907D01*
X125256Y149876D01*
X124975Y149907D01*
X124145Y150989D01*
X123006Y151863D01*
X121679Y152412D01*
X120256Y152600D01*
X118833Y152412D01*
X117506Y151863D01*
X116367Y150989D01*
X115537Y149907D01*
X115256Y149876D01*
X114975Y149907D01*
X114145Y150989D01*
X113006Y151863D01*
X111679Y152412D01*
X110256Y152600D01*
X108833Y152412D01*
X107506Y151863D01*
X106367Y150989D01*
X105493Y149850D01*
X104944Y148523D01*
X104756Y147100D01*
X104944Y145677D01*
X105493Y144350D01*
X106367Y143211D01*
X107506Y142337D01*
X108833Y141788D01*
X110256Y141600D01*
X111679Y141788D01*
X113006Y142337D01*
X114145Y143211D01*
X114975Y144293D01*
X115256Y144324D01*
X115537Y144293D01*
X116367Y143211D01*
X117506Y142337D01*
X118833Y141788D01*
X120256Y141600D01*
X121679Y141788D01*
X123006Y142337D01*
X124145Y143211D01*
X124975Y144293D01*
X125256Y144324D01*
X125537Y144293D01*
X126367Y143211D01*
X127506Y142337D01*
X128832Y141788D01*
X130256Y141600D01*
X131679Y141788D01*
X133006Y142337D01*
X134145Y143211D01*
X135019Y144350D01*
X135568Y145677D01*
X135756Y147100D01*
X135568Y148523D01*
X135019Y149850D01*
X134145Y150989D01*
X133006Y151863D01*
X131679Y152412D01*
X130256Y152600D01*
D02*
G37*
G36*
X60694Y160266D02*
X59512Y160111D01*
X58410Y159655D01*
X57464Y158929D01*
X56739Y157983D01*
X56283Y156882D01*
X56127Y155700D01*
X56283Y154518D01*
X56739Y153417D01*
X57464Y152471D01*
X58410Y151745D01*
X59512Y151289D01*
X60694Y151133D01*
X61876Y151289D01*
X62977Y151745D01*
X63923Y152471D01*
X64648Y153417D01*
X65105Y154518D01*
X65260Y155700D01*
X65105Y156882D01*
X64648Y157983D01*
X63923Y158929D01*
X62977Y159655D01*
X61876Y160111D01*
X60694Y160266D01*
D02*
G37*
G36*
X303500Y144900D02*
X302077Y144712D01*
X300750Y144163D01*
X299611Y143289D01*
X298737Y142150D01*
X298188Y140823D01*
X298000Y139400D01*
X298188Y137977D01*
X298737Y136650D01*
X299611Y135511D01*
X300750Y134637D01*
X302077Y134088D01*
X303500Y133900D01*
X304924Y134088D01*
X306250Y134637D01*
X307389Y135511D01*
X308263Y136650D01*
X308812Y137977D01*
X309000Y139400D01*
X308812Y140823D01*
X308263Y142150D01*
X307389Y143289D01*
X306250Y144163D01*
X304924Y144712D01*
X303500Y144900D01*
D02*
G37*
G36*
X333900Y125590D02*
X332476Y125403D01*
X331150Y124853D01*
X330011Y123979D01*
X329137Y122840D01*
X328588Y121514D01*
X328400Y120090D01*
X328588Y118667D01*
X329137Y117341D01*
X330011Y116201D01*
X331150Y115327D01*
X332476Y114778D01*
X333900Y114591D01*
X335324Y114778D01*
X336650Y115327D01*
X337789Y116201D01*
X338663Y117341D01*
X339212Y118667D01*
X339400Y120090D01*
X339212Y121514D01*
X338663Y122840D01*
X337789Y123979D01*
X336650Y124853D01*
X335324Y125403D01*
X333900Y125590D01*
D02*
G37*
G36*
X29456Y137900D02*
X28051Y137762D01*
X26701Y137352D01*
X25456Y136687D01*
X24365Y135791D01*
X23469Y134700D01*
X22804Y133455D01*
X22394Y132105D01*
X22256Y130700D01*
X22394Y129295D01*
X22804Y127945D01*
X23469Y126700D01*
X24365Y125609D01*
X25456Y124713D01*
X26701Y124048D01*
X28051Y123638D01*
X29456Y123500D01*
X30861Y123638D01*
X32211Y124048D01*
X33456Y124713D01*
X34547Y125609D01*
X35443Y126700D01*
X36108Y127945D01*
X36518Y129295D01*
X36656Y130700D01*
X36518Y132105D01*
X36108Y133455D01*
X35443Y134700D01*
X34547Y135791D01*
X33456Y136687D01*
X32211Y137352D01*
X30861Y137762D01*
X29456Y137900D01*
D02*
G37*
G36*
X327700Y195600D02*
X326276Y195412D01*
X324950Y194863D01*
X323811Y193989D01*
X322937Y192850D01*
X322388Y191524D01*
X322200Y190100D01*
X322388Y188677D01*
X322937Y187350D01*
X323811Y186211D01*
X324950Y185337D01*
X326276Y184788D01*
X327700Y184600D01*
X329123Y184788D01*
X330450Y185337D01*
X331589Y186211D01*
X332463Y187350D01*
X333012Y188677D01*
X333200Y190100D01*
X333012Y191524D01*
X332463Y192850D01*
X331589Y193989D01*
X330450Y194863D01*
X329123Y195412D01*
X327700Y195600D01*
D02*
G37*
G36*
Y265600D02*
X326276Y265412D01*
X324950Y264863D01*
X323811Y263989D01*
X322937Y262850D01*
X322388Y261524D01*
X322200Y260100D01*
X322388Y258677D01*
X322937Y257350D01*
X323811Y256211D01*
X324893Y255381D01*
X324924Y255100D01*
X324893Y254819D01*
X323811Y253989D01*
X322937Y252850D01*
X322388Y251523D01*
X322200Y250100D01*
X322388Y248676D01*
X322937Y247350D01*
X323811Y246211D01*
X324893Y245381D01*
X324924Y245100D01*
X324893Y244819D01*
X323811Y243989D01*
X322937Y242850D01*
X322388Y241524D01*
X322200Y240100D01*
X322388Y238677D01*
X322937Y237350D01*
X323811Y236211D01*
X324893Y235381D01*
X324924Y235100D01*
X324893Y234819D01*
X323811Y233989D01*
X322937Y232850D01*
X322388Y231523D01*
X322200Y230100D01*
X322388Y228677D01*
X322937Y227350D01*
X323811Y226211D01*
X324893Y225381D01*
X324924Y225100D01*
X324893Y224819D01*
X323811Y223989D01*
X322937Y222850D01*
X322388Y221523D01*
X322200Y220100D01*
X322388Y218676D01*
X322937Y217350D01*
X323811Y216211D01*
X324893Y215381D01*
X324924Y215100D01*
X324893Y214819D01*
X323811Y213989D01*
X322937Y212850D01*
X322388Y211524D01*
X322200Y210100D01*
X322388Y208677D01*
X322937Y207350D01*
X323811Y206211D01*
X324950Y205337D01*
X326276Y204788D01*
X327700Y204600D01*
X329123Y204788D01*
X330450Y205337D01*
X331589Y206211D01*
X332463Y207350D01*
X333012Y208677D01*
X333200Y210100D01*
X333012Y211524D01*
X332463Y212850D01*
X331589Y213989D01*
X330507Y214819D01*
X330476Y215100D01*
X330507Y215381D01*
X331589Y216211D01*
X332463Y217350D01*
X333012Y218676D01*
X333200Y220100D01*
X333012Y221523D01*
X332463Y222850D01*
X331589Y223989D01*
X330507Y224819D01*
X330476Y225100D01*
X330507Y225381D01*
X331589Y226211D01*
X332463Y227350D01*
X333012Y228677D01*
X333200Y230100D01*
X333012Y231523D01*
X332463Y232850D01*
X331589Y233989D01*
X330507Y234819D01*
X330476Y235100D01*
X330507Y235381D01*
X331589Y236211D01*
X332463Y237350D01*
X333012Y238677D01*
X333200Y240100D01*
X333012Y241524D01*
X332463Y242850D01*
X331589Y243989D01*
X330507Y244819D01*
X330476Y245100D01*
X330507Y245381D01*
X331589Y246211D01*
X332463Y247350D01*
X333012Y248676D01*
X333200Y250100D01*
X333012Y251523D01*
X332463Y252850D01*
X331589Y253989D01*
X330507Y254819D01*
X330476Y255100D01*
X330507Y255381D01*
X331589Y256211D01*
X332463Y257350D01*
X333012Y258677D01*
X333200Y260100D01*
X333012Y261524D01*
X332463Y262850D01*
X331589Y263989D01*
X330450Y264863D01*
X329123Y265412D01*
X327700Y265600D01*
D02*
G37*
G36*
X255300Y171500D02*
X253877Y171312D01*
X252550Y170763D01*
X251411Y169889D01*
X250537Y168750D01*
X249988Y167423D01*
X249800Y166000D01*
X249988Y164576D01*
X250537Y163250D01*
X251411Y162111D01*
X252550Y161237D01*
X253877Y160688D01*
X255300Y160500D01*
X256723Y160688D01*
X258050Y161237D01*
X259189Y162111D01*
X260063Y163250D01*
X260612Y164576D01*
X260800Y166000D01*
X260612Y167423D01*
X260063Y168750D01*
X259189Y169889D01*
X258050Y170763D01*
X256723Y171312D01*
X255300Y171500D01*
D02*
G37*
G36*
X79906Y160266D02*
X78724Y160111D01*
X77623Y159655D01*
X76677Y158929D01*
X75951Y157983D01*
X75495Y156882D01*
X75340Y155700D01*
X75495Y154518D01*
X75951Y153417D01*
X76677Y152471D01*
X77623Y151745D01*
X78724Y151289D01*
X79906Y151133D01*
X81088Y151289D01*
X82190Y151745D01*
X83135Y152471D01*
X83861Y153417D01*
X84317Y154518D01*
X84473Y155700D01*
X84317Y156882D01*
X83861Y157983D01*
X83135Y158929D01*
X82190Y159655D01*
X81088Y160111D01*
X79906Y160266D01*
D02*
G37*
G36*
X306159Y166400D02*
X304736Y166212D01*
X303410Y165663D01*
X302270Y164789D01*
X301396Y163650D01*
X300847Y162323D01*
X300660Y160900D01*
X300847Y159476D01*
X301396Y158150D01*
X302270Y157011D01*
X303410Y156137D01*
X304736Y155588D01*
X306159Y155400D01*
X307583Y155588D01*
X308909Y156137D01*
X310048Y157011D01*
X310922Y158150D01*
X311472Y159476D01*
X311659Y160900D01*
X311472Y162323D01*
X310922Y163650D01*
X310048Y164789D01*
X308909Y165663D01*
X307583Y166212D01*
X306159Y166400D01*
D02*
G37*
%LPD*%
D40*
X253500Y116800D02*
X253500Y116800D01*
X265707Y78193D02*
X266300Y77600D01*
X253500D02*
X254093Y78193D01*
X217500Y52000D02*
X217500Y52000D01*
X253043Y128800D02*
X253500D01*
D41*
X91400Y79400D02*
X91500Y79500D01*
X72400Y90300D02*
Y90979D01*
X107100Y103500D02*
X109500D01*
X103900Y100300D02*
X107100Y103500D01*
X101500Y100300D02*
X103900D01*
X100700Y99500D02*
X101500Y100300D01*
X109500Y103500D02*
X111100Y105100D01*
D42*
X132300Y51100D02*
X132656D01*
X132300Y71100D02*
X132656D01*
X132300Y61100D02*
X132656D01*
D43*
X274309Y289174D02*
X274909Y288574D01*
X274309Y289174D02*
Y296274D01*
D45*
X79906Y155700D02*
D03*
X60694D02*
D03*
D46*
X333900Y94500D02*
D03*
Y120090D02*
D03*
X316183Y94500D02*
D03*
Y120090D02*
D03*
X327564Y288431D02*
D03*
X241000Y206500D02*
D03*
X172400Y49000D02*
D03*
X305500Y74457D02*
D03*
Y84457D02*
D03*
X306300Y18457D02*
D03*
Y28457D02*
D03*
X305500Y46057D02*
D03*
Y56057D02*
D03*
X186500Y48800D02*
D03*
X327700Y220100D02*
D03*
Y230100D02*
D03*
Y250100D02*
D03*
Y260100D02*
D03*
Y240100D02*
D03*
Y210100D02*
D03*
Y200100D02*
D03*
Y190100D02*
D03*
X22700Y22100D02*
D03*
X305300Y119500D02*
D03*
X308400Y230100D02*
D03*
X306159Y160900D02*
D03*
X308400Y240100D02*
D03*
X145900Y81700D02*
D03*
Y61700D02*
D03*
Y41700D02*
D03*
Y51700D02*
D03*
Y71700D02*
D03*
Y91700D02*
D03*
X120256Y147100D02*
D03*
X130256D02*
D03*
X110256D02*
D03*
X21157Y264600D02*
D03*
X31157D02*
D03*
X281000Y206500D02*
D03*
X271000D02*
D03*
X89324Y297353D02*
D03*
X206300Y183600D02*
D03*
X261000Y206500D02*
D03*
X251000D02*
D03*
X213500Y15200D02*
D03*
X239091D02*
D03*
X213500Y32916D02*
D03*
X239091D02*
D03*
X42079Y281605D02*
D03*
X52079D02*
D03*
X327209Y301774D02*
D03*
X317209D02*
D03*
X141957Y299800D02*
D03*
X131957D02*
D03*
X255957D02*
D03*
X245957D02*
D03*
X61856Y38700D02*
D03*
X71856D02*
D03*
X51856D02*
D03*
X255300Y166000D02*
D03*
X303500Y139400D02*
D03*
X99456Y41100D02*
D03*
Y51100D02*
D03*
X197500Y33600D02*
D03*
D47*
X122656Y41100D02*
D03*
Y51100D02*
D03*
Y61100D02*
D03*
Y91100D02*
D03*
Y81100D02*
D03*
Y71100D02*
D03*
X149300Y16872D02*
D03*
X139300D02*
D03*
X129300D02*
D03*
X159300D02*
D03*
X169300D02*
D03*
X179300D02*
D03*
X132656Y91100D02*
D03*
Y81100D02*
D03*
Y71100D02*
D03*
Y41100D02*
D03*
Y51100D02*
D03*
Y61100D02*
D03*
D48*
X216417Y293551D02*
D03*
D49*
X186889D02*
D03*
D50*
X29456Y130700D02*
D03*
D51*
X39456Y120700D02*
D03*
X19456D02*
D03*
X39456Y140700D02*
D03*
X19456D02*
D03*
D52*
X268409Y293974D02*
D03*
X274909Y288574D02*
D03*
X274309Y296274D02*
D03*
X328200Y9100D02*
D03*
X328057Y36343D02*
D03*
X328000Y64800D02*
D03*
X91400Y79400D02*
D03*
X72400Y90979D02*
D03*
X100700Y99500D02*
D03*
X328500Y160100D02*
D03*
X299700Y174500D02*
D03*
X46522Y301487D02*
D03*
X302957Y291421D02*
D03*
X304296Y311261D02*
D03*
X260664Y282731D02*
D03*
X118709Y274474D02*
D03*
X73311Y266313D02*
D03*
X24700Y82700D02*
D03*
X63100Y109100D02*
D03*
X90300Y36300D02*
D03*
X262483Y224117D02*
D03*
X217500Y52000D02*
D03*
X195100Y149600D02*
D03*
X167900Y142400D02*
D03*
X168700Y125600D02*
D03*
X159700Y99000D02*
D03*
X159200Y106400D02*
D03*
X270900Y254400D02*
D03*
X258000Y260900D02*
D03*
X37200Y105800D02*
D03*
X36656Y66700D02*
D03*
X58700Y72100D02*
D03*
X81056Y57544D02*
D03*
X85856Y124800D02*
D03*
X106400Y138900D02*
D03*
X105300Y117900D02*
D03*
X111100Y105100D02*
D03*
X107900Y108200D02*
D03*
X106800Y95700D02*
D03*
X195300Y18400D02*
D03*
X204604Y107104D02*
D03*
Y111435D02*
D03*
Y115765D02*
D03*
Y120096D02*
D03*
X208935Y107104D02*
D03*
Y111435D02*
D03*
Y115765D02*
D03*
Y120096D02*
D03*
X213265Y107104D02*
D03*
Y111435D02*
D03*
Y115765D02*
D03*
Y120096D02*
D03*
X217596Y107104D02*
D03*
Y111435D02*
D03*
Y115765D02*
D03*
Y120096D02*
D03*
X151900Y108000D02*
D03*
X149500Y112800D02*
D03*
Y122400D02*
D03*
Y132000D02*
D03*
X156700Y98400D02*
D03*
X154300Y103200D02*
D03*
X156700Y108000D02*
D03*
X159100Y103200D02*
D03*
Y122400D02*
D03*
X161500Y127200D02*
D03*
X159100Y132000D02*
D03*
X161500Y136800D02*
D03*
X159100Y141600D02*
D03*
X161500Y146400D02*
D03*
X163900Y93600D02*
D03*
Y122400D02*
D03*
Y132000D02*
D03*
X166300Y136800D02*
D03*
X163900Y141600D02*
D03*
X166300Y146400D02*
D03*
X168700Y122400D02*
D03*
Y132000D02*
D03*
Y151200D02*
D03*
X173500D02*
D03*
X190300Y136800D02*
D03*
X187900Y141600D02*
D03*
X190300Y146400D02*
D03*
X187900Y151200D02*
D03*
X195100Y127200D02*
D03*
X202300Y64800D02*
D03*
X214300Y88800D02*
D03*
X216700Y74400D02*
D03*
X219100Y79200D02*
D03*
X216700Y84000D02*
D03*
X221500Y74400D02*
D03*
X223900Y79200D02*
D03*
X228700Y69600D02*
D03*
X226300Y74400D02*
D03*
X228700Y79200D02*
D03*
X233500Y69600D02*
D03*
X231100Y74400D02*
D03*
X233500Y79200D02*
D03*
X231100Y103200D02*
D03*
X238300Y98400D02*
D03*
X235900Y103200D02*
D03*
X243100Y69600D02*
D03*
Y79200D02*
D03*
Y88800D02*
D03*
X240700Y93600D02*
D03*
X243100Y98400D02*
D03*
X240700Y103200D02*
D03*
X245500Y64800D02*
D03*
X247900Y69600D02*
D03*
X245500Y74400D02*
D03*
X247900Y79200D02*
D03*
X245500Y84000D02*
D03*
X247900Y88800D02*
D03*
X245500Y93600D02*
D03*
X247900Y98400D02*
D03*
X245500Y103200D02*
D03*
X247900Y117600D02*
D03*
X250300Y64800D02*
D03*
X252700Y69600D02*
D03*
X250300Y74400D02*
D03*
X252700Y79200D02*
D03*
X250300Y84000D02*
D03*
Y93600D02*
D03*
X252700Y98400D02*
D03*
X250300Y103200D02*
D03*
X252700Y117600D02*
D03*
X255100Y64800D02*
D03*
X257500Y69600D02*
D03*
X255100Y74400D02*
D03*
X257500Y79200D02*
D03*
Y117600D02*
D03*
X255100Y122400D02*
D03*
X257500Y127200D02*
D03*
X255100Y132000D02*
D03*
X257500Y136800D02*
D03*
X259900Y64800D02*
D03*
X262300Y69600D02*
D03*
X259900Y74400D02*
D03*
X262300Y79200D02*
D03*
X259900Y84000D02*
D03*
X262300Y117600D02*
D03*
X259900Y122400D02*
D03*
X262300Y127200D02*
D03*
X259900Y132000D02*
D03*
X262300Y136800D02*
D03*
X264700Y64800D02*
D03*
X267100Y69600D02*
D03*
X264700Y74400D02*
D03*
X267100Y79200D02*
D03*
Y98400D02*
D03*
Y108000D02*
D03*
X264700Y112800D02*
D03*
X267100Y117600D02*
D03*
X264700Y122400D02*
D03*
X267100Y127200D02*
D03*
X264700Y132000D02*
D03*
X269500Y64800D02*
D03*
X271900Y69600D02*
D03*
X269500Y74400D02*
D03*
X271900Y79200D02*
D03*
X269500Y84000D02*
D03*
X271900Y88800D02*
D03*
X269500Y93600D02*
D03*
X271900Y98400D02*
D03*
X269500Y103200D02*
D03*
X271900Y108000D02*
D03*
X269500Y112800D02*
D03*
X271900Y117600D02*
D03*
X269500Y122400D02*
D03*
X271900Y127200D02*
D03*
X269500Y132000D02*
D03*
X274300Y64800D02*
D03*
X276700Y69600D02*
D03*
X274300Y74400D02*
D03*
X276700Y79200D02*
D03*
X274300Y84000D02*
D03*
X276700Y88800D02*
D03*
X274300Y93600D02*
D03*
X276700Y98400D02*
D03*
X274300Y103200D02*
D03*
X276700Y108000D02*
D03*
X274300Y112800D02*
D03*
X276700Y117600D02*
D03*
X274300Y122400D02*
D03*
X279100Y74400D02*
D03*
X281500Y79200D02*
D03*
X279100Y84000D02*
D03*
X281500Y88800D02*
D03*
X279100Y93600D02*
D03*
X281500Y98400D02*
D03*
X279100Y103200D02*
D03*
X281500Y108000D02*
D03*
X279100Y112800D02*
D03*
X281500Y117600D02*
D03*
X279100Y122400D02*
D03*
X283900Y74400D02*
D03*
Y84000D02*
D03*
Y93600D02*
D03*
Y103200D02*
D03*
Y112800D02*
D03*
M02*
