G04 Layer_Color=8388736*
%FSLAX25Y25*%
%MOIN*%
G70*
G01*
G75*
%ADD59R,0.04343X0.03950*%
%ADD60R,0.06509X0.05328*%
G04:AMPARAMS|DCode=61|XSize=70.99mil|YSize=47.37mil|CornerRadius=5.97mil|HoleSize=0mil|Usage=FLASHONLY|Rotation=90.000|XOffset=0mil|YOffset=0mil|HoleType=Round|Shape=RoundedRectangle|*
%AMROUNDEDRECTD61*
21,1,0.07099,0.03543,0,0,90.0*
21,1,0.05905,0.04737,0,0,90.0*
1,1,0.01194,0.01772,0.02953*
1,1,0.01194,0.01772,-0.02953*
1,1,0.01194,-0.01772,-0.02953*
1,1,0.01194,-0.01772,0.02953*
%
%ADD61ROUNDEDRECTD61*%
%ADD62R,0.02178X0.01981*%
%ADD63R,0.03556X0.05721*%
%ADD64R,0.04737X0.04934*%
%ADD65R,0.04934X0.09461*%
%ADD66R,0.03320X0.03280*%
%ADD67R,0.03280X0.03320*%
%ADD68R,0.06599X0.03162*%
%ADD69R,0.05328X0.06509*%
%ADD70O,0.05308X0.02965*%
%ADD71O,0.02965X0.05308*%
%ADD72R,0.03950X0.04343*%
%ADD73R,0.06312X0.05524*%
%ADD74R,0.16548X0.05524*%
%ADD75R,0.04186X0.01981*%
%ADD76R,0.01981X0.04186*%
%ADD77R,0.13202X0.13202*%
%ADD78R,0.02375X0.06115*%
%ADD79R,0.07099X0.06312*%
%ADD80R,0.06509X0.05918*%
%ADD81R,0.08280X0.08280*%
%ADD82C,0.02768*%
%ADD83R,0.07700X0.10600*%
%ADD84R,0.03900X0.02000*%
%ADD85R,0.06000X0.03000*%
%ADD86R,0.01824X0.04186*%
%ADD87R,0.04186X0.01824*%
%ADD88R,0.19304X0.19304*%
%ADD89C,0.04855*%
%ADD90C,0.06706*%
%ADD91C,0.07296*%
%ADD92C,0.07099*%
%ADD93R,0.07099X0.07099*%
%ADD94C,0.10131*%
%ADD95C,0.10839*%
%ADD96C,0.03200*%
G36*
X123033Y306028D02*
X123084Y306017D01*
X123134Y306000D01*
X123181Y305977D01*
X123224Y305948D01*
X123264Y305913D01*
X123298Y305874D01*
X123328Y305831D01*
X123351Y305784D01*
X123368Y305734D01*
X123378Y305682D01*
X123381Y305630D01*
X123381Y284370D01*
D01*
D01*
Y284370D01*
X123378Y284318D01*
X123368Y284267D01*
X123351Y284217D01*
X123339Y284194D01*
X123328Y284170D01*
X123299Y284126D01*
X123264Y284087D01*
X123264D01*
Y284087D01*
X123224Y284052D01*
X123181Y284023D01*
X123157Y284012D01*
X123134Y284000D01*
X123084Y283983D01*
X123033Y283973D01*
X122980Y283969D01*
X114713Y283969D01*
D01*
X114713D01*
X114660Y283973D01*
X114609Y283983D01*
X114559Y284000D01*
X114536Y284011D01*
X114512Y284023D01*
X114469Y284052D01*
X114429Y284087D01*
Y284087D01*
X114429D01*
X114394Y284126D01*
X114365Y284170D01*
X114354Y284194D01*
X114342Y284217D01*
X114325Y284266D01*
X114315Y284318D01*
X114312Y284370D01*
Y284370D01*
D01*
Y287913D01*
X114313Y287927D01*
X114313Y287940D01*
X114314Y287953D01*
X114315Y287966D01*
X114318Y287979D01*
X114320Y287992D01*
X114323Y288004D01*
X114325Y288017D01*
X114330Y288030D01*
X114333Y288043D01*
X114338Y288055D01*
X114342Y288067D01*
X114348Y288079D01*
X114353Y288091D01*
X114360Y288102D01*
X114365Y288114D01*
X114373Y288125D01*
X114380Y288137D01*
X114387Y288147D01*
X114394Y288158D01*
X114403Y288168D01*
X114411Y288178D01*
X114421Y288187D01*
X114429Y288197D01*
X114439Y288206D01*
X114449Y288215D01*
X114459Y288223D01*
X114469Y288231D01*
X114479Y288239D01*
X114490Y288247D01*
X119036Y291278D01*
Y298723D01*
X114490Y301753D01*
X114479Y301761D01*
X114469Y301769D01*
X114459Y301777D01*
X114449Y301785D01*
X114439Y301795D01*
X114429Y301803D01*
X114421Y301813D01*
X114411Y301822D01*
X114403Y301833D01*
X114394Y301843D01*
X114387Y301853D01*
X114380Y301864D01*
X114373Y301875D01*
X114365Y301886D01*
X114360Y301898D01*
X114353Y301909D01*
X114348Y301921D01*
X114342Y301933D01*
X114338Y301946D01*
X114333Y301957D01*
X114330Y301970D01*
X114325Y301983D01*
X114323Y301996D01*
X114320Y302008D01*
X114318Y302021D01*
X114315Y302034D01*
X114314Y302047D01*
X114313Y302060D01*
X114313Y302073D01*
X114312Y302087D01*
Y305630D01*
X114315Y305682D01*
X114325Y305734D01*
X114342Y305783D01*
X114365Y305830D01*
X114394Y305874D01*
X114429Y305913D01*
X114469Y305948D01*
X114512Y305977D01*
X114559Y306000D01*
X114609Y306017D01*
X114660Y306027D01*
X114713Y306031D01*
X122980Y306031D01*
X123033Y306028D01*
D02*
G37*
G36*
X109253Y306027D02*
X109304Y306017D01*
X109354Y306000D01*
X109377Y305989D01*
X109401Y305977D01*
X109445Y305948D01*
X109484Y305913D01*
Y305913D01*
X109484D01*
X109519Y305874D01*
X109548Y305830D01*
X109560Y305807D01*
X109571Y305783D01*
X109588Y305734D01*
X109598Y305682D01*
X109602Y305630D01*
Y305630D01*
D01*
Y302087D01*
X109601Y302073D01*
X109601Y302060D01*
X109599Y302047D01*
X109598Y302034D01*
X109596Y302021D01*
X109594Y302008D01*
X109590Y301996D01*
X109588Y301983D01*
X109584Y301970D01*
X109580Y301957D01*
X109575Y301946D01*
X109571Y301933D01*
X109565Y301921D01*
X109560Y301909D01*
X109554Y301898D01*
X109548Y301886D01*
X109540Y301875D01*
X109534Y301864D01*
X109526Y301853D01*
X109519Y301843D01*
X109510Y301833D01*
X109502Y301822D01*
X109493Y301813D01*
X109484Y301803D01*
X109474Y301795D01*
X109465Y301785D01*
X109454Y301777D01*
X109445Y301769D01*
X109434Y301761D01*
X109423Y301753D01*
X104877Y298723D01*
Y291278D01*
X109423Y288247D01*
X109434Y288239D01*
X109445Y288231D01*
X109454Y288223D01*
X109465Y288215D01*
X109474Y288206D01*
X109484Y288197D01*
X109493Y288187D01*
X109502Y288178D01*
X109510Y288168D01*
X109519Y288158D01*
X109526Y288147D01*
X109534Y288137D01*
X109540Y288125D01*
X109548Y288114D01*
X109554Y288102D01*
X109560Y288091D01*
X109565Y288079D01*
X109571Y288067D01*
X109575Y288055D01*
X109580Y288043D01*
X109584Y288030D01*
X109588Y288017D01*
X109590Y288004D01*
X109594Y287992D01*
X109596Y287979D01*
X109598Y287966D01*
X109599Y287953D01*
X109601Y287940D01*
X109601Y287927D01*
X109602Y287913D01*
Y284370D01*
X109598Y284318D01*
X109588Y284266D01*
X109571Y284217D01*
X109548Y284170D01*
X109519Y284126D01*
X109484Y284087D01*
X109445Y284052D01*
X109401Y284023D01*
X109354Y284000D01*
X109304Y283983D01*
X109253Y283973D01*
X109201Y283969D01*
X100933Y283969D01*
X100881Y283973D01*
X100829Y283983D01*
X100779Y284000D01*
X100733Y284023D01*
X100689Y284052D01*
X100649Y284087D01*
X100615Y284126D01*
X100586Y284170D01*
X100563Y284217D01*
X100546Y284266D01*
X100536Y284318D01*
X100532Y284370D01*
X100532Y305630D01*
D01*
D01*
Y305630D01*
X100535Y305682D01*
X100546Y305733D01*
X100563Y305783D01*
X100574Y305806D01*
X100586Y305830D01*
X100615Y305874D01*
X100649Y305913D01*
X100649D01*
Y305913D01*
X100689Y305948D01*
X100732Y305977D01*
X100756Y305989D01*
X100779Y306000D01*
X100829Y306017D01*
X100881Y306027D01*
X100933Y306031D01*
X109201Y306031D01*
D01*
X109201D01*
X109253Y306027D01*
D02*
G37*
D59*
X313500Y135657D02*
D03*
Y130145D02*
D03*
X205500Y12888D02*
D03*
Y18400D02*
D03*
X198300Y18400D02*
D03*
Y12888D02*
D03*
X69056Y51144D02*
D03*
Y56656D02*
D03*
X63100Y117900D02*
D03*
Y112388D02*
D03*
X91900Y131144D02*
D03*
Y136656D02*
D03*
X106300Y136656D02*
D03*
Y131144D02*
D03*
X75500Y137244D02*
D03*
Y142756D02*
D03*
X64000Y137488D02*
D03*
Y143000D02*
D03*
X85856Y116388D02*
D03*
Y121900D02*
D03*
X45856Y99500D02*
D03*
Y93988D02*
D03*
X29856Y93900D02*
D03*
Y99412D02*
D03*
Y82788D02*
D03*
Y88300D02*
D03*
X56256Y115188D02*
D03*
Y120700D02*
D03*
X52256Y51988D02*
D03*
Y57500D02*
D03*
X58656Y51588D02*
D03*
Y57100D02*
D03*
X52256Y68700D02*
D03*
Y63188D02*
D03*
X58656Y68700D02*
D03*
Y63188D02*
D03*
X81056Y61544D02*
D03*
Y67056D02*
D03*
X229856Y86635D02*
D03*
X224344D02*
D03*
X229856Y90965D02*
D03*
X224344D02*
D03*
X36256Y93812D02*
D03*
Y99324D02*
D03*
X86300Y61900D02*
D03*
Y56388D02*
D03*
X41056Y71100D02*
D03*
Y76612D02*
D03*
D60*
X322300Y129257D02*
D03*
Y136343D02*
D03*
X296409Y311261D02*
D03*
Y304174D02*
D03*
X256109Y282731D02*
D03*
Y289818D02*
D03*
X305000Y107500D02*
D03*
Y100413D02*
D03*
X317200Y81443D02*
D03*
Y74357D02*
D03*
X316800Y53143D02*
D03*
Y46057D02*
D03*
X317500Y25243D02*
D03*
Y18157D02*
D03*
X259900Y99657D02*
D03*
Y106743D02*
D03*
X328500Y174043D02*
D03*
Y166957D02*
D03*
X266950Y254400D02*
D03*
Y247313D02*
D03*
X88757Y262657D02*
D03*
Y269743D02*
D03*
X68757Y266313D02*
D03*
Y273400D02*
D03*
X334000Y136300D02*
D03*
Y129213D02*
D03*
X128309Y258474D02*
D03*
Y265561D02*
D03*
X297184Y291421D02*
D03*
Y284335D02*
D03*
X286084Y284478D02*
D03*
Y291565D02*
D03*
D61*
X268409Y288974D02*
D03*
D62*
X271657Y286415D02*
D03*
Y288974D02*
D03*
Y291533D02*
D03*
X265161D02*
D03*
Y288974D02*
D03*
Y286415D02*
D03*
D63*
X328000Y81391D02*
D03*
Y67809D02*
D03*
X328057Y52791D02*
D03*
Y39209D02*
D03*
X328200Y25391D02*
D03*
Y11809D02*
D03*
D64*
X259900Y91505D02*
D03*
D65*
X265707Y85600D02*
D03*
X254093D02*
D03*
D66*
X253300Y114031D02*
D03*
Y110369D02*
D03*
X240700Y106739D02*
D03*
Y110400D02*
D03*
D67*
X232469Y110400D02*
D03*
X236131D02*
D03*
X245269Y110400D02*
D03*
X248931D02*
D03*
X241731Y118400D02*
D03*
X238069D02*
D03*
D68*
X319399Y178240D02*
D03*
Y174500D02*
D03*
Y170760D02*
D03*
X310100D02*
D03*
Y174500D02*
D03*
Y178240D02*
D03*
D69*
X288690Y234516D02*
D03*
X295777D02*
D03*
X277490Y224116D02*
D03*
X284577D02*
D03*
X174757Y117600D02*
D03*
X181843D02*
D03*
X163557Y106400D02*
D03*
X170643D02*
D03*
X163557Y98400D02*
D03*
X170643D02*
D03*
X174413Y125943D02*
D03*
X181500D02*
D03*
X202643Y143543D02*
D03*
X195557D02*
D03*
X202300Y135543D02*
D03*
X195213D02*
D03*
X203557Y77600D02*
D03*
X210643D02*
D03*
X203557Y69600D02*
D03*
X210643D02*
D03*
X258149Y256113D02*
D03*
X251063D02*
D03*
X251063Y247313D02*
D03*
X258150D02*
D03*
X274309Y301974D02*
D03*
X267223D02*
D03*
X174413Y142400D02*
D03*
X181500D02*
D03*
X174413Y134400D02*
D03*
X181500D02*
D03*
X249387Y132800D02*
D03*
X242300D02*
D03*
X249043Y125600D02*
D03*
X241957D02*
D03*
X153213Y287800D02*
D03*
X160300D02*
D03*
D70*
X250434Y234513D02*
D03*
X266950D02*
D03*
D71*
X250818Y230193D02*
D03*
X253967D02*
D03*
X257117D02*
D03*
X260266D02*
D03*
X263416D02*
D03*
X266566D02*
D03*
Y238834D02*
D03*
X263416D02*
D03*
X260266D02*
D03*
X257117D02*
D03*
X253967D02*
D03*
X250818D02*
D03*
D72*
X56256Y127412D02*
D03*
X50744D02*
D03*
X36344Y88300D02*
D03*
X41856D02*
D03*
X103825Y95500D02*
D03*
X98313D02*
D03*
X109144Y111500D02*
D03*
X114656D02*
D03*
X109056Y117900D02*
D03*
X114568D02*
D03*
X86212Y38700D02*
D03*
X80700D02*
D03*
X124344Y127500D02*
D03*
X129856D02*
D03*
X124344Y133900D02*
D03*
X129856D02*
D03*
X96344Y131500D02*
D03*
X101856D02*
D03*
X45856Y105900D02*
D03*
X40344D02*
D03*
X68344Y61900D02*
D03*
X73856D02*
D03*
X88856Y79400D02*
D03*
X83344D02*
D03*
D73*
X73576Y292629D02*
D03*
Y285542D02*
D03*
D74*
X25856Y51880D02*
D03*
Y63100D02*
D03*
Y74320D02*
D03*
D75*
X66548Y101603D02*
D03*
Y99635D02*
D03*
Y97666D02*
D03*
Y95698D02*
D03*
Y93729D02*
D03*
Y91761D02*
D03*
Y89792D02*
D03*
Y87824D02*
D03*
X85721D02*
D03*
Y89792D02*
D03*
Y91761D02*
D03*
Y93729D02*
D03*
Y95698D02*
D03*
Y97666D02*
D03*
Y99635D02*
D03*
Y101603D02*
D03*
D76*
X83025Y104300D02*
D03*
X81056D02*
D03*
X79088D02*
D03*
X77119D02*
D03*
X75151D02*
D03*
X73182D02*
D03*
X71214D02*
D03*
X69245D02*
D03*
Y85127D02*
D03*
X71214D02*
D03*
X73182D02*
D03*
X75151D02*
D03*
X77119D02*
D03*
X79088D02*
D03*
X81056D02*
D03*
X83025D02*
D03*
D77*
X76135Y94713D02*
D03*
D78*
X31154Y300601D02*
D03*
X28595D02*
D03*
X26036D02*
D03*
X23477D02*
D03*
X20918D02*
D03*
D79*
X38635Y301487D02*
D03*
X13438D02*
D03*
D80*
X39521Y311132D02*
D03*
X12552D02*
D03*
D81*
X30761D02*
D03*
X21312D02*
D03*
D82*
X102508Y295000D02*
D03*
X121405Y295394D02*
D03*
D83*
X110357Y268600D02*
D03*
D84*
X116107Y271553D02*
D03*
Y269584D02*
D03*
Y267616D02*
D03*
Y265647D02*
D03*
X104607D02*
D03*
Y267616D02*
D03*
Y269584D02*
D03*
Y271553D02*
D03*
D85*
X232200Y48300D02*
D03*
Y55700D02*
D03*
X223600Y52000D02*
D03*
D86*
X200273Y100076D02*
D03*
X202242D02*
D03*
X204210D02*
D03*
X206179D02*
D03*
X208147D02*
D03*
X210116D02*
D03*
X212084D02*
D03*
X214053D02*
D03*
X216021D02*
D03*
X217990D02*
D03*
X219958D02*
D03*
X221927D02*
D03*
Y127124D02*
D03*
X219958D02*
D03*
X217990D02*
D03*
X216021D02*
D03*
X214053D02*
D03*
X212084D02*
D03*
X210116D02*
D03*
X208147D02*
D03*
X206179D02*
D03*
X204210D02*
D03*
X202242D02*
D03*
X200273D02*
D03*
D87*
X224624Y102773D02*
D03*
Y104742D02*
D03*
Y106710D02*
D03*
Y108679D02*
D03*
Y110647D02*
D03*
Y112616D02*
D03*
Y114584D02*
D03*
Y116553D02*
D03*
Y118521D02*
D03*
Y120490D02*
D03*
Y122458D02*
D03*
Y124427D02*
D03*
X197576D02*
D03*
Y122458D02*
D03*
Y120490D02*
D03*
Y118521D02*
D03*
Y116553D02*
D03*
Y114584D02*
D03*
Y112616D02*
D03*
Y110647D02*
D03*
Y108679D02*
D03*
Y106710D02*
D03*
Y104742D02*
D03*
Y102773D02*
D03*
D88*
X211100Y113600D02*
D03*
D89*
X79906Y155700D02*
D03*
X60694D02*
D03*
D90*
X333900Y94500D02*
D03*
Y120090D02*
D03*
X316183Y94500D02*
D03*
Y120090D02*
D03*
X327564Y288431D02*
D03*
X241000Y206500D02*
D03*
X172400Y49000D02*
D03*
X305500Y74457D02*
D03*
Y84457D02*
D03*
X306300Y18457D02*
D03*
Y28457D02*
D03*
X305500Y46057D02*
D03*
Y56057D02*
D03*
X186500Y48800D02*
D03*
X327700Y220100D02*
D03*
Y230100D02*
D03*
Y250100D02*
D03*
Y260100D02*
D03*
Y240100D02*
D03*
Y210100D02*
D03*
Y200100D02*
D03*
Y190100D02*
D03*
X22700Y22100D02*
D03*
X305300Y119500D02*
D03*
X308400Y230100D02*
D03*
X306159Y160900D02*
D03*
X308400Y240100D02*
D03*
X145900Y81700D02*
D03*
Y61700D02*
D03*
Y41700D02*
D03*
Y51700D02*
D03*
Y71700D02*
D03*
Y91700D02*
D03*
X120256Y147100D02*
D03*
X130256D02*
D03*
X110256D02*
D03*
X21157Y264600D02*
D03*
X31157D02*
D03*
X281000Y206500D02*
D03*
X271000D02*
D03*
X89324Y297353D02*
D03*
X206300Y183600D02*
D03*
X261000Y206500D02*
D03*
X251000D02*
D03*
X213500Y15200D02*
D03*
X239091D02*
D03*
X213500Y32916D02*
D03*
X239091D02*
D03*
X42079Y281605D02*
D03*
X52079D02*
D03*
X327209Y301774D02*
D03*
X317209D02*
D03*
X141957Y299800D02*
D03*
X131957D02*
D03*
X255957D02*
D03*
X245957D02*
D03*
X61856Y38700D02*
D03*
X71856D02*
D03*
X51856D02*
D03*
X255300Y166000D02*
D03*
X303500Y139400D02*
D03*
X99456Y41100D02*
D03*
Y51100D02*
D03*
X197500Y33600D02*
D03*
D91*
X122656Y41100D02*
D03*
Y51100D02*
D03*
Y61100D02*
D03*
Y91100D02*
D03*
Y81100D02*
D03*
Y71100D02*
D03*
X149300Y16872D02*
D03*
X139300D02*
D03*
X129300D02*
D03*
X159300D02*
D03*
X169300D02*
D03*
X179300D02*
D03*
X132656Y91100D02*
D03*
Y81100D02*
D03*
Y71100D02*
D03*
Y41100D02*
D03*
Y51100D02*
D03*
Y61100D02*
D03*
D92*
X216417Y293551D02*
D03*
D93*
X186889D02*
D03*
D94*
X29456Y130700D02*
D03*
D95*
X39456Y120700D02*
D03*
X19456D02*
D03*
X39456Y140700D02*
D03*
X19456D02*
D03*
D96*
X268409Y293974D02*
D03*
X274909Y288574D02*
D03*
X274309Y296274D02*
D03*
X328200Y9100D02*
D03*
X328057Y36343D02*
D03*
X328000Y64800D02*
D03*
X91400Y79400D02*
D03*
X72400Y90979D02*
D03*
X100700Y99500D02*
D03*
X328500Y160100D02*
D03*
X299700Y174500D02*
D03*
X46522Y301487D02*
D03*
X302957Y291421D02*
D03*
X304296Y311261D02*
D03*
X260664Y282731D02*
D03*
X118709Y274474D02*
D03*
X73311Y266313D02*
D03*
X24700Y82700D02*
D03*
X63100Y109100D02*
D03*
X90300Y36300D02*
D03*
X262483Y224117D02*
D03*
X217500Y52000D02*
D03*
X195100Y149600D02*
D03*
X167900Y142400D02*
D03*
X168700Y125600D02*
D03*
X159700Y99000D02*
D03*
X159200Y106400D02*
D03*
X270900Y254400D02*
D03*
X258000Y260900D02*
D03*
X37200Y105800D02*
D03*
X36656Y66700D02*
D03*
X58700Y72100D02*
D03*
X81056Y57544D02*
D03*
X85856Y124800D02*
D03*
X106400Y138900D02*
D03*
X105300Y117900D02*
D03*
X111100Y105100D02*
D03*
X107900Y108200D02*
D03*
X106800Y95700D02*
D03*
X195300Y18400D02*
D03*
X204604Y107104D02*
D03*
Y111435D02*
D03*
Y115765D02*
D03*
Y120096D02*
D03*
X208935Y107104D02*
D03*
Y111435D02*
D03*
Y115765D02*
D03*
Y120096D02*
D03*
X213265Y107104D02*
D03*
Y111435D02*
D03*
Y115765D02*
D03*
Y120096D02*
D03*
X217596Y107104D02*
D03*
Y111435D02*
D03*
Y115765D02*
D03*
Y120096D02*
D03*
X151900Y108000D02*
D03*
X149500Y112800D02*
D03*
Y122400D02*
D03*
Y132000D02*
D03*
X156700Y98400D02*
D03*
X154300Y103200D02*
D03*
X156700Y108000D02*
D03*
X159100Y103200D02*
D03*
Y122400D02*
D03*
X161500Y127200D02*
D03*
X159100Y132000D02*
D03*
X161500Y136800D02*
D03*
X159100Y141600D02*
D03*
X161500Y146400D02*
D03*
X163900Y93600D02*
D03*
Y122400D02*
D03*
Y132000D02*
D03*
X166300Y136800D02*
D03*
X163900Y141600D02*
D03*
X166300Y146400D02*
D03*
X168700Y122400D02*
D03*
Y132000D02*
D03*
Y151200D02*
D03*
X173500D02*
D03*
X190300Y136800D02*
D03*
X187900Y141600D02*
D03*
X190300Y146400D02*
D03*
X187900Y151200D02*
D03*
X195100Y127200D02*
D03*
X202300Y64800D02*
D03*
X214300Y88800D02*
D03*
X216700Y74400D02*
D03*
X219100Y79200D02*
D03*
X216700Y84000D02*
D03*
X221500Y74400D02*
D03*
X223900Y79200D02*
D03*
X228700Y69600D02*
D03*
X226300Y74400D02*
D03*
X228700Y79200D02*
D03*
X233500Y69600D02*
D03*
X231100Y74400D02*
D03*
X233500Y79200D02*
D03*
X231100Y103200D02*
D03*
X238300Y98400D02*
D03*
X235900Y103200D02*
D03*
X243100Y69600D02*
D03*
Y79200D02*
D03*
Y88800D02*
D03*
X240700Y93600D02*
D03*
X243100Y98400D02*
D03*
X240700Y103200D02*
D03*
X245500Y64800D02*
D03*
X247900Y69600D02*
D03*
X245500Y74400D02*
D03*
X247900Y79200D02*
D03*
X245500Y84000D02*
D03*
X247900Y88800D02*
D03*
X245500Y93600D02*
D03*
X247900Y98400D02*
D03*
X245500Y103200D02*
D03*
X247900Y117600D02*
D03*
X250300Y64800D02*
D03*
X252700Y69600D02*
D03*
X250300Y74400D02*
D03*
X252700Y79200D02*
D03*
X250300Y84000D02*
D03*
Y93600D02*
D03*
X252700Y98400D02*
D03*
X250300Y103200D02*
D03*
X252700Y117600D02*
D03*
X255100Y64800D02*
D03*
X257500Y69600D02*
D03*
X255100Y74400D02*
D03*
X257500Y79200D02*
D03*
Y117600D02*
D03*
X255100Y122400D02*
D03*
X257500Y127200D02*
D03*
X255100Y132000D02*
D03*
X257500Y136800D02*
D03*
X259900Y64800D02*
D03*
X262300Y69600D02*
D03*
X259900Y74400D02*
D03*
X262300Y79200D02*
D03*
X259900Y84000D02*
D03*
X262300Y117600D02*
D03*
X259900Y122400D02*
D03*
X262300Y127200D02*
D03*
X259900Y132000D02*
D03*
X262300Y136800D02*
D03*
X264700Y64800D02*
D03*
X267100Y69600D02*
D03*
X264700Y74400D02*
D03*
X267100Y79200D02*
D03*
Y98400D02*
D03*
Y108000D02*
D03*
X264700Y112800D02*
D03*
X267100Y117600D02*
D03*
X264700Y122400D02*
D03*
X267100Y127200D02*
D03*
X264700Y132000D02*
D03*
X269500Y64800D02*
D03*
X271900Y69600D02*
D03*
X269500Y74400D02*
D03*
X271900Y79200D02*
D03*
X269500Y84000D02*
D03*
X271900Y88800D02*
D03*
X269500Y93600D02*
D03*
X271900Y98400D02*
D03*
X269500Y103200D02*
D03*
X271900Y108000D02*
D03*
X269500Y112800D02*
D03*
X271900Y117600D02*
D03*
X269500Y122400D02*
D03*
X271900Y127200D02*
D03*
X269500Y132000D02*
D03*
X274300Y64800D02*
D03*
X276700Y69600D02*
D03*
X274300Y74400D02*
D03*
X276700Y79200D02*
D03*
X274300Y84000D02*
D03*
X276700Y88800D02*
D03*
X274300Y93600D02*
D03*
X276700Y98400D02*
D03*
X274300Y103200D02*
D03*
X276700Y108000D02*
D03*
X274300Y112800D02*
D03*
X276700Y117600D02*
D03*
X274300Y122400D02*
D03*
X279100Y74400D02*
D03*
X281500Y79200D02*
D03*
X279100Y84000D02*
D03*
X281500Y88800D02*
D03*
X279100Y93600D02*
D03*
X281500Y98400D02*
D03*
X279100Y103200D02*
D03*
X281500Y108000D02*
D03*
X279100Y112800D02*
D03*
X281500Y117600D02*
D03*
X279100Y122400D02*
D03*
X283900Y74400D02*
D03*
Y84000D02*
D03*
Y93600D02*
D03*
Y103200D02*
D03*
Y112800D02*
D03*
M02*
