G04 Layer_Color=16711935*
%FSLAX25Y25*%
%MOIN*%
G70*
G01*
G75*
%ADD89C,0.04855*%
%ADD90C,0.06706*%
%ADD91C,0.07296*%
%ADD92C,0.07099*%
%ADD93R,0.07099X0.07099*%
%ADD94C,0.10131*%
%ADD95C,0.10839*%
%ADD96C,0.03200*%
D89*
X79906Y155700D02*
D03*
X60694D02*
D03*
D90*
X333900Y94500D02*
D03*
Y120090D02*
D03*
X316183Y94500D02*
D03*
Y120090D02*
D03*
X327564Y288431D02*
D03*
X241000Y206500D02*
D03*
X172400Y49000D02*
D03*
X305500Y74457D02*
D03*
Y84457D02*
D03*
X306300Y18457D02*
D03*
Y28457D02*
D03*
X305500Y46057D02*
D03*
Y56057D02*
D03*
X186500Y48800D02*
D03*
X327700Y220100D02*
D03*
Y230100D02*
D03*
Y250100D02*
D03*
Y260100D02*
D03*
Y240100D02*
D03*
Y210100D02*
D03*
Y200100D02*
D03*
Y190100D02*
D03*
X22700Y22100D02*
D03*
X305300Y119500D02*
D03*
X308400Y230100D02*
D03*
X306159Y160900D02*
D03*
X308400Y240100D02*
D03*
X145900Y81700D02*
D03*
Y61700D02*
D03*
Y41700D02*
D03*
Y51700D02*
D03*
Y71700D02*
D03*
Y91700D02*
D03*
X120256Y147100D02*
D03*
X130256D02*
D03*
X110256D02*
D03*
X21157Y264600D02*
D03*
X31157D02*
D03*
X281000Y206500D02*
D03*
X271000D02*
D03*
X89324Y297353D02*
D03*
X206300Y183600D02*
D03*
X261000Y206500D02*
D03*
X251000D02*
D03*
X213500Y15200D02*
D03*
X239091D02*
D03*
X213500Y32916D02*
D03*
X239091D02*
D03*
X42079Y281605D02*
D03*
X52079D02*
D03*
X327209Y301774D02*
D03*
X317209D02*
D03*
X141957Y299800D02*
D03*
X131957D02*
D03*
X255957D02*
D03*
X245957D02*
D03*
X61856Y38700D02*
D03*
X71856D02*
D03*
X51856D02*
D03*
X255300Y166000D02*
D03*
X303500Y139400D02*
D03*
X99456Y41100D02*
D03*
Y51100D02*
D03*
X197500Y33600D02*
D03*
D91*
X122656Y41100D02*
D03*
Y51100D02*
D03*
Y61100D02*
D03*
Y91100D02*
D03*
Y81100D02*
D03*
Y71100D02*
D03*
X149300Y16872D02*
D03*
X139300D02*
D03*
X129300D02*
D03*
X159300D02*
D03*
X169300D02*
D03*
X179300D02*
D03*
X132656Y91100D02*
D03*
Y81100D02*
D03*
Y71100D02*
D03*
Y41100D02*
D03*
Y51100D02*
D03*
Y61100D02*
D03*
D92*
X216417Y293551D02*
D03*
D93*
X186889D02*
D03*
D94*
X29456Y130700D02*
D03*
D95*
X39456Y120700D02*
D03*
X19456D02*
D03*
X39456Y140700D02*
D03*
X19456D02*
D03*
D96*
X268409Y293974D02*
D03*
X274909Y288574D02*
D03*
X274309Y296274D02*
D03*
X328200Y9100D02*
D03*
X328057Y36343D02*
D03*
X328000Y64800D02*
D03*
X91400Y79400D02*
D03*
X72400Y90979D02*
D03*
X100700Y99500D02*
D03*
X328500Y160100D02*
D03*
X299700Y174500D02*
D03*
X46522Y301487D02*
D03*
X302957Y291421D02*
D03*
X304296Y311261D02*
D03*
X260664Y282731D02*
D03*
X118709Y274474D02*
D03*
X73311Y266313D02*
D03*
X24700Y82700D02*
D03*
X63100Y109100D02*
D03*
X90300Y36300D02*
D03*
X262483Y224117D02*
D03*
X217500Y52000D02*
D03*
X195100Y149600D02*
D03*
X167900Y142400D02*
D03*
X168700Y125600D02*
D03*
X159700Y99000D02*
D03*
X159200Y106400D02*
D03*
X270900Y254400D02*
D03*
X258000Y260900D02*
D03*
X37200Y105800D02*
D03*
X36656Y66700D02*
D03*
X58700Y72100D02*
D03*
X81056Y57544D02*
D03*
X85856Y124800D02*
D03*
X106400Y138900D02*
D03*
X105300Y117900D02*
D03*
X111100Y105100D02*
D03*
X107900Y108200D02*
D03*
X106800Y95700D02*
D03*
X195300Y18400D02*
D03*
X204604Y107104D02*
D03*
Y111435D02*
D03*
Y115765D02*
D03*
Y120096D02*
D03*
X208935Y107104D02*
D03*
Y111435D02*
D03*
Y115765D02*
D03*
Y120096D02*
D03*
X213265Y107104D02*
D03*
Y111435D02*
D03*
Y115765D02*
D03*
Y120096D02*
D03*
X217596Y107104D02*
D03*
Y111435D02*
D03*
Y115765D02*
D03*
Y120096D02*
D03*
X151900Y108000D02*
D03*
X149500Y112800D02*
D03*
Y122400D02*
D03*
Y132000D02*
D03*
X156700Y98400D02*
D03*
X154300Y103200D02*
D03*
X156700Y108000D02*
D03*
X159100Y103200D02*
D03*
Y122400D02*
D03*
X161500Y127200D02*
D03*
X159100Y132000D02*
D03*
X161500Y136800D02*
D03*
X159100Y141600D02*
D03*
X161500Y146400D02*
D03*
X163900Y93600D02*
D03*
Y122400D02*
D03*
Y132000D02*
D03*
X166300Y136800D02*
D03*
X163900Y141600D02*
D03*
X166300Y146400D02*
D03*
X168700Y122400D02*
D03*
Y132000D02*
D03*
Y151200D02*
D03*
X173500D02*
D03*
X190300Y136800D02*
D03*
X187900Y141600D02*
D03*
X190300Y146400D02*
D03*
X187900Y151200D02*
D03*
X195100Y127200D02*
D03*
X202300Y64800D02*
D03*
X214300Y88800D02*
D03*
X216700Y74400D02*
D03*
X219100Y79200D02*
D03*
X216700Y84000D02*
D03*
X221500Y74400D02*
D03*
X223900Y79200D02*
D03*
X228700Y69600D02*
D03*
X226300Y74400D02*
D03*
X228700Y79200D02*
D03*
X233500Y69600D02*
D03*
X231100Y74400D02*
D03*
X233500Y79200D02*
D03*
X231100Y103200D02*
D03*
X238300Y98400D02*
D03*
X235900Y103200D02*
D03*
X243100Y69600D02*
D03*
Y79200D02*
D03*
Y88800D02*
D03*
X240700Y93600D02*
D03*
X243100Y98400D02*
D03*
X240700Y103200D02*
D03*
X245500Y64800D02*
D03*
X247900Y69600D02*
D03*
X245500Y74400D02*
D03*
X247900Y79200D02*
D03*
X245500Y84000D02*
D03*
X247900Y88800D02*
D03*
X245500Y93600D02*
D03*
X247900Y98400D02*
D03*
X245500Y103200D02*
D03*
X247900Y117600D02*
D03*
X250300Y64800D02*
D03*
X252700Y69600D02*
D03*
X250300Y74400D02*
D03*
X252700Y79200D02*
D03*
X250300Y84000D02*
D03*
Y93600D02*
D03*
X252700Y98400D02*
D03*
X250300Y103200D02*
D03*
X252700Y117600D02*
D03*
X255100Y64800D02*
D03*
X257500Y69600D02*
D03*
X255100Y74400D02*
D03*
X257500Y79200D02*
D03*
Y117600D02*
D03*
X255100Y122400D02*
D03*
X257500Y127200D02*
D03*
X255100Y132000D02*
D03*
X257500Y136800D02*
D03*
X259900Y64800D02*
D03*
X262300Y69600D02*
D03*
X259900Y74400D02*
D03*
X262300Y79200D02*
D03*
X259900Y84000D02*
D03*
X262300Y117600D02*
D03*
X259900Y122400D02*
D03*
X262300Y127200D02*
D03*
X259900Y132000D02*
D03*
X262300Y136800D02*
D03*
X264700Y64800D02*
D03*
X267100Y69600D02*
D03*
X264700Y74400D02*
D03*
X267100Y79200D02*
D03*
Y98400D02*
D03*
Y108000D02*
D03*
X264700Y112800D02*
D03*
X267100Y117600D02*
D03*
X264700Y122400D02*
D03*
X267100Y127200D02*
D03*
X264700Y132000D02*
D03*
X269500Y64800D02*
D03*
X271900Y69600D02*
D03*
X269500Y74400D02*
D03*
X271900Y79200D02*
D03*
X269500Y84000D02*
D03*
X271900Y88800D02*
D03*
X269500Y93600D02*
D03*
X271900Y98400D02*
D03*
X269500Y103200D02*
D03*
X271900Y108000D02*
D03*
X269500Y112800D02*
D03*
X271900Y117600D02*
D03*
X269500Y122400D02*
D03*
X271900Y127200D02*
D03*
X269500Y132000D02*
D03*
X274300Y64800D02*
D03*
X276700Y69600D02*
D03*
X274300Y74400D02*
D03*
X276700Y79200D02*
D03*
X274300Y84000D02*
D03*
X276700Y88800D02*
D03*
X274300Y93600D02*
D03*
X276700Y98400D02*
D03*
X274300Y103200D02*
D03*
X276700Y108000D02*
D03*
X274300Y112800D02*
D03*
X276700Y117600D02*
D03*
X274300Y122400D02*
D03*
X279100Y74400D02*
D03*
X281500Y79200D02*
D03*
X279100Y84000D02*
D03*
X281500Y88800D02*
D03*
X279100Y93600D02*
D03*
X281500Y98400D02*
D03*
X279100Y103200D02*
D03*
X281500Y108000D02*
D03*
X279100Y112800D02*
D03*
X281500Y117600D02*
D03*
X279100Y122400D02*
D03*
X283900Y74400D02*
D03*
Y84000D02*
D03*
Y93600D02*
D03*
Y103200D02*
D03*
Y112800D02*
D03*
M02*
