G04 Layer_Color=16711935*
%FSLAX25Y25*%
%MOIN*%
G70*
G01*
G75*
%ADD53C,0.00500*%
%ADD57C,0.00000*%
%ADD58C,0.00600*%
D53*
X66292Y84871D02*
Y104556D01*
X85977Y84871D02*
Y104556D01*
X66292Y84871D02*
X85977D01*
X66292Y104556D02*
X85977D01*
X11273Y299912D02*
X40800D01*
X11273Y319597D02*
X40800D01*
Y316841D02*
Y319597D01*
Y299912D02*
Y316841D01*
X11273D02*
Y319597D01*
Y299912D02*
Y316841D01*
X40800D01*
X60409Y318384D02*
X59338D01*
X58981Y318265D01*
X58862Y318146D01*
X58743Y317908D01*
Y317551D01*
X58862Y317313D01*
X58981Y317194D01*
X59338Y317074D01*
X60409D01*
Y319574D01*
X56398Y317670D02*
X56517Y317432D01*
X56755Y317194D01*
X56994Y317074D01*
X57470D01*
X57708Y317194D01*
X57946Y317432D01*
X58065Y317670D01*
X58184Y318027D01*
Y318622D01*
X58065Y318979D01*
X57946Y319217D01*
X57708Y319455D01*
X57470Y319574D01*
X56994D01*
X56755Y319455D01*
X56517Y319217D01*
X56398Y318979D01*
X55696Y317074D02*
Y319574D01*
Y317074D02*
X54625D01*
X54268Y317194D01*
X54149Y317313D01*
X54030Y317551D01*
Y317789D01*
X54149Y318027D01*
X54268Y318146D01*
X54625Y318265D01*
X55696D02*
X54625D01*
X54268Y318384D01*
X54149Y318503D01*
X54030Y318741D01*
Y319098D01*
X54149Y319336D01*
X54268Y319455D01*
X54625Y319574D01*
X55696D01*
X49959Y317074D02*
X51507D01*
Y319574D01*
X49959D01*
X51507Y318265D02*
X50554D01*
X49543Y317074D02*
Y319574D01*
Y317074D02*
X48710D01*
X48353Y317194D01*
X48114Y317432D01*
X47995Y317670D01*
X47876Y318027D01*
Y318622D01*
X47995Y318979D01*
X48114Y319217D01*
X48353Y319455D01*
X48710Y319574D01*
X49543D01*
X45532Y317670D02*
X45651Y317432D01*
X45889Y317194D01*
X46127Y317074D01*
X46603D01*
X46841Y317194D01*
X47079Y317432D01*
X47198Y317670D01*
X47317Y318027D01*
Y318622D01*
X47198Y318979D01*
X47079Y319217D01*
X46841Y319455D01*
X46603Y319574D01*
X46127D01*
X45889Y319455D01*
X45651Y319217D01*
X45532Y318979D01*
Y318622D01*
X46127D02*
X45532D01*
X43413Y317074D02*
X44960D01*
Y319574D01*
X43413D01*
X44960Y318265D02*
X44008D01*
D57*
X84875Y107686D02*
G03*
X84875Y107686I-787J0D01*
G01*
D58*
X109157Y274700D02*
G03*
X111557Y274700I1200J0D01*
G01*
X104257Y262500D02*
Y274700D01*
X109157D01*
X111557D01*
X116457D01*
Y262500D02*
Y274700D01*
X104257Y262500D02*
X116457D01*
M02*
