M48
;Layer_Color=9474304
;FILE_FORMAT=2:5
INCH,LZ
;TYPE=PLATED
T1F00S00C0.01200
T2F00S00C0.02480
T3F00S00C0.02835
T4F00S00C0.03937
T5F00S00C0.04331
T6F00S00C0.04528
T7F00S00C0.06181
T8F00S00C0.06693
%
T01
X01953Y00184
X02023Y00648
X02167Y00744
X02215
X02263
X02311
X02287Y00696
X02335
Y00792
X02287
X02239
X02191
X02167Y0084
X02143Y00888
X0213265Y0107104
X0208935
X0204604
Y0111435
Y0115765
Y0120096
X0208935
Y0115765
Y0111435
X0213265
Y0115765
Y0120096
X0217596
Y0115765
Y0111435
Y0107104
X02311Y01032
X02359
X02407
X02455
X02503
X02479Y00984
X02431
X02383
X02407Y00936
X02455
X02503
X02479Y00888
X02431
X02455Y0084
X02503
X02479Y00792
X02431
X02455Y00744
X02503
X02551
X02599
X02647
X02695
X02743
X02791
X02839
X02815Y00792
X02767
X02719
X02671
X02623
X02575
X02527
Y00696
X02479
X02431
X02455Y00648
X02503
X02551
X02599
X02647
X02695
X02743
X02719Y00696
X02671
X02623
X02575
X02599Y0084
X02695
X02743
X02791
X02839
X02815Y00888
X02767
X02719
X02695Y00936
X02743
X02791
X02839
X02815Y00984
X02767
X02719
X02671
X02695Y01032
X02743
X02791
X02839
X02815Y0108
X02767
X02719
X02671
X02647Y01128
X02695
X02743
X02791
X02839
X02815Y01176
X02767
X02719
X02671
X02623
X02575
X02527
X02479
X02551Y01224
X02599
X02647
X02695
X02743
X02791
X02719Y01272
X02671
X02623
X02575
X02551Y0132
X02599
X02647
X02695
X02623Y01368
X02575
X02527Y00984
X02767Y00696
X0328Y00648
X0328057Y0036343
X03282Y00091
X02175Y0052
X01951Y01272
X01903Y01368
X01879Y01416
X01903Y01464
X01663
X01615
X01591Y01416
X01639
X01679Y01424
X01663Y01368
X01615
X01591Y0132
X01639
X01687
Y01256
Y01224
X01639
X01591
X01615Y01272
X01495Y01224
Y01128
X01519Y0108
X01567
X01592Y01064
X01591Y01032
X01597Y0099
X01567Y00984
X01543Y01032
X01639Y00936
X01495Y0132
X01064Y01389
X01053Y01179
X01079Y01082
X01111Y01051
X01068Y00957
X01007Y00995
X00914Y00794
X00724Y0090979
X00631Y01091
X00372Y01058
X00247Y00827
X0036656Y00667
X00587Y00721
X0081056Y0057544
X00903Y00363
X0085856Y01248
X01687Y01512
X01735
X0118709Y0274474
X0073311Y0266313
X0046522Y0301487
X0268409Y0293974
X0274309Y0296274
X0274909Y0288574
X0260664Y0282731
X0258Y02609
X02709Y02544
X0262483Y0224117
X02997Y01745
X03285Y01601
X01951Y01496
X01879Y01512
X0302957Y0291421
X0304296Y0311261
T02
X0060694Y01557
X0079906
T03
X03339Y00945
Y012009
X0316183
Y00945
X0239091Y0032916
Y00152
X02135
Y0032916
T04
X01975Y00336
X01865Y00488
X03055Y0046057
Y0056057
Y0074457
Y0084457
X03053Y01195
X03035Y01394
X03063Y0028457
Y0018457
X01724Y0049
X01459Y00517
Y00617
Y00717
Y00817
Y00917
Y00417
X0099456Y00411
Y00511
X0071856Y00387
X0061856
X0051856
X00227Y00221
X0110256Y01471
X0120256
X0130256
X0131957Y02998
X0141957
X0089324Y0297353
X0052079Y0281605
X0042079
X0031157Y02646
X0021157
X0186889Y0293551
X0216417
X0245957Y02998
X0255957
X0317209Y0301774
X0327209
X0327564Y0288431
X03277Y02601
Y02501
Y02401
Y02301
Y02201
Y02101
Y02001
Y01901
X0306159Y01609
X02553Y0166
X0251Y02065
X0241
X0261
X0271
X0281
X03084Y02301
Y02401
X02063Y01836
T05
X01793Y0016872
X01693
X01593
X01493
X01393
X01293
T06
X0122656Y00411
Y00511
Y00611
Y00711
Y00811
Y00911
X0132656
Y00811
Y00711
Y00611
Y00511
Y00411
T07
X0029456Y01307
T08
X0019456Y01207
X0039456
Y01407
X0019456
M30
