G04 Layer_Physical_Order=1*
G04 Layer_Color=255*
%FSLAX25Y25*%
%MOIN*%
G70*
G01*
G75*
%ADD10R,0.03543X0.03150*%
%ADD11R,0.05709X0.04528*%
G04:AMPARAMS|DCode=12|XSize=62.99mil|YSize=39.37mil|CornerRadius=1.97mil|HoleSize=0mil|Usage=FLASHONLY|Rotation=90.000|XOffset=0mil|YOffset=0mil|HoleType=Round|Shape=RoundedRectangle|*
%AMROUNDEDRECTD12*
21,1,0.06299,0.03543,0,0,90.0*
21,1,0.05905,0.03937,0,0,90.0*
1,1,0.00394,0.01772,0.02953*
1,1,0.00394,0.01772,-0.02953*
1,1,0.00394,-0.01772,-0.02953*
1,1,0.00394,-0.01772,0.02953*
%
%ADD12ROUNDEDRECTD12*%
%ADD13R,0.01378X0.01181*%
%ADD14R,0.02756X0.04921*%
%ADD15R,0.03937X0.04134*%
%ADD16R,0.04134X0.08661*%
%ADD17R,0.02520X0.02480*%
%ADD18R,0.02480X0.02520*%
%ADD19R,0.05799X0.02362*%
%ADD20R,0.04528X0.05709*%
%ADD21O,0.04508X0.02165*%
%ADD22O,0.02165X0.04508*%
%ADD23R,0.03150X0.03543*%
%ADD24R,0.05512X0.04724*%
%ADD25R,0.15748X0.04724*%
%ADD26R,0.03386X0.01181*%
%ADD27R,0.01181X0.03386*%
%ADD28R,0.12402X0.12402*%
%ADD29R,0.01575X0.05315*%
%ADD30R,0.06299X0.05512*%
%ADD31R,0.05709X0.05118*%
%ADD32R,0.07480X0.07480*%
%ADD33C,0.01968*%
%ADD34R,0.06900X0.09800*%
%ADD35R,0.03100X0.01200*%
%ADD36R,0.05200X0.02200*%
%ADD37R,0.01024X0.03386*%
%ADD38R,0.03386X0.01024*%
%ADD39R,0.18504X0.18504*%
%ADD40C,0.01200*%
%ADD41C,0.02000*%
%ADD42C,0.01000*%
%ADD43C,0.00800*%
%ADD44C,0.02400*%
%ADD45C,0.04055*%
%ADD46C,0.05905*%
%ADD47C,0.06496*%
%ADD48C,0.06299*%
%ADD49R,0.06299X0.06299*%
%ADD50C,0.09331*%
%ADD51C,0.10039*%
%ADD52C,0.02400*%
G36*
X331700Y309600D02*
X343300Y298000D01*
X343300Y9500D01*
X335800Y2000D01*
X27000D01*
X2800Y26200D01*
X2800Y174300D01*
X19600Y191100D01*
X175900Y191100D01*
X256050Y271250D01*
X300850D01*
X319800Y290200D01*
X319800Y296945D01*
X319959Y297011D01*
X321098Y297885D01*
X321972Y299024D01*
X322522Y300351D01*
X322709Y301774D01*
X322522Y303197D01*
X321972Y304524D01*
X321131Y305620D01*
X324988Y309600D01*
X331700Y309600D01*
D02*
G37*
G36*
X109201Y302087D02*
X104476Y298937D01*
Y291063D01*
X109201Y287913D01*
Y284370D01*
X100933Y284370D01*
X100933Y305630D01*
X109201Y305630D01*
Y302087D01*
D02*
G37*
G36*
X122980Y284370D02*
X114713Y284370D01*
Y287913D01*
X119437Y291063D01*
Y298937D01*
X114713Y302087D01*
Y305630D01*
X122980Y305630D01*
X122980Y284370D01*
D02*
G37*
%LPC*%
G36*
X209772Y22475D02*
X201228D01*
Y22475D01*
X194028D01*
Y21878D01*
X193434Y21632D01*
X192661Y21039D01*
X192068Y20266D01*
X191695Y19366D01*
X191568Y18400D01*
X191695Y17434D01*
X192068Y16534D01*
X192661Y15761D01*
X193434Y15168D01*
X194028Y14922D01*
Y8813D01*
X201228D01*
Y8813D01*
X209772D01*
Y9862D01*
X211188D01*
X211909Y9957D01*
X212076Y9888D01*
X213500Y9700D01*
X214924Y9888D01*
X216250Y10437D01*
X217389Y11311D01*
X218051Y12174D01*
X234539D01*
X235202Y11311D01*
X236341Y10437D01*
X237667Y9888D01*
X239091Y9700D01*
X240514Y9888D01*
X241841Y10437D01*
X242980Y11311D01*
X243854Y12450D01*
X244403Y13777D01*
X244590Y15200D01*
X244403Y16623D01*
X243854Y17950D01*
X242980Y19089D01*
X241841Y19963D01*
X240514Y20512D01*
X239091Y20700D01*
X237667Y20512D01*
X236341Y19963D01*
X235202Y19089D01*
X234539Y18226D01*
X218051D01*
X217389Y19089D01*
X216250Y19963D01*
X214924Y20512D01*
X213500Y20700D01*
X212076Y20512D01*
X210750Y19963D01*
X210220Y19556D01*
X209772Y19778D01*
Y22475D01*
D02*
G37*
G36*
X331934Y44169D02*
X324179D01*
Y34248D01*
X325001D01*
X325418Y33705D01*
X326191Y33112D01*
X327091Y32739D01*
X328057Y32612D01*
X329023Y32739D01*
X329923Y33112D01*
X330696Y33705D01*
X331113Y34248D01*
X331934D01*
Y44169D01*
D02*
G37*
G36*
X331878Y72769D02*
X324122D01*
Y62848D01*
X324834D01*
X325361Y62161D01*
X326134Y61568D01*
X327034Y61195D01*
X328000Y61068D01*
X328966Y61195D01*
X329866Y61568D01*
X330639Y62161D01*
X331166Y62848D01*
X331878D01*
Y72769D01*
D02*
G37*
G36*
X332078Y16769D02*
X324322D01*
Y6848D01*
X325264D01*
X325561Y6461D01*
X326334Y5868D01*
X327234Y5495D01*
X328200Y5368D01*
X329166Y5495D01*
X330066Y5868D01*
X330839Y6461D01*
X331136Y6848D01*
X332078D01*
Y16769D01*
D02*
G37*
G36*
X327700Y265600D02*
X326276Y265412D01*
X324950Y264863D01*
X323811Y263989D01*
X322937Y262850D01*
X322388Y261524D01*
X322200Y260100D01*
X322388Y258677D01*
X322937Y257350D01*
X323811Y256211D01*
X324893Y255381D01*
X324924Y255100D01*
X324893Y254819D01*
X323811Y253989D01*
X322937Y252850D01*
X322388Y251523D01*
X322200Y250100D01*
X322388Y248676D01*
X322937Y247350D01*
X323811Y246211D01*
X324893Y245381D01*
X324924Y245100D01*
X324893Y244819D01*
X323811Y243989D01*
X323149Y243126D01*
X312951D01*
X312289Y243989D01*
X311150Y244863D01*
X309823Y245412D01*
X308400Y245600D01*
X306977Y245412D01*
X305650Y244863D01*
X304511Y243989D01*
X303637Y242850D01*
X303088Y241524D01*
X302900Y240100D01*
X303054Y238933D01*
X298760Y234640D01*
X298280Y234013D01*
X297977Y233283D01*
X297874Y232500D01*
Y204899D01*
X272001Y179026D01*
X258476D01*
X258284Y179488D01*
X279937Y201140D01*
X281000Y201000D01*
X282423Y201188D01*
X283750Y201737D01*
X284889Y202611D01*
X285763Y203750D01*
X286312Y205077D01*
X286500Y206500D01*
X286312Y207924D01*
X285763Y209250D01*
X284889Y210389D01*
X283932Y211124D01*
X283956Y228075D01*
X285174D01*
X285931Y228175D01*
X286637Y228467D01*
X287243Y228932D01*
X287473Y229162D01*
X293454D01*
Y239871D01*
X283927D01*
Y233925D01*
X283012D01*
X280355Y236582D01*
X279749Y237047D01*
X279044Y237339D01*
X278287Y237438D01*
X270194D01*
X269928Y237643D01*
X269056Y238004D01*
X268121Y238127D01*
X267030D01*
Y240005D01*
X266946Y240639D01*
Y242047D01*
X266826Y242961D01*
X266473Y243812D01*
X265912Y244543D01*
X262913Y247542D01*
Y249636D01*
X272304D01*
Y250977D01*
X272766Y251168D01*
X273539Y251761D01*
X274132Y252534D01*
X274505Y253434D01*
X274632Y254400D01*
X274505Y255366D01*
X274132Y256266D01*
X273539Y257039D01*
X272766Y257632D01*
X272304Y257823D01*
Y259164D01*
X262913D01*
Y261468D01*
X261657D01*
X261605Y261866D01*
X261232Y262766D01*
X260639Y263539D01*
X259866Y264132D01*
X258966Y264505D01*
X258000Y264632D01*
X257034Y264505D01*
X256134Y264132D01*
X255361Y263539D01*
X254768Y262766D01*
X254395Y261866D01*
X254343Y261468D01*
X253386D01*
Y250759D01*
X253386D01*
Y243543D01*
X253032Y243496D01*
X252160Y243135D01*
X251412Y242561D01*
X250838Y241812D01*
X250477Y240941D01*
X250354Y240005D01*
Y238127D01*
X249262D01*
X248327Y238004D01*
X247456Y237643D01*
X247321Y237539D01*
X243547D01*
X242764Y237436D01*
X242034Y237134D01*
X241407Y236653D01*
X238860Y234106D01*
X238380Y233479D01*
X238077Y232750D01*
X237974Y231966D01*
Y211051D01*
X237111Y210389D01*
X236237Y209250D01*
X235688Y207924D01*
X235500Y206500D01*
X235688Y205077D01*
X236237Y203750D01*
X237111Y202611D01*
X237974Y201949D01*
Y196746D01*
X203968Y162740D01*
X203487Y162113D01*
X203184Y161383D01*
X203081Y160600D01*
X203182Y159834D01*
Y131316D01*
X201637D01*
X201186Y131992D01*
X201186Y131992D01*
X200360Y132544D01*
X200085Y132599D01*
Y138189D01*
X200321D01*
Y140355D01*
X200429Y140898D01*
Y146770D01*
X200916Y147095D01*
X201468Y147922D01*
X201662Y148898D01*
Y154400D01*
X201468Y155376D01*
X200916Y156202D01*
X200089Y156755D01*
X199113Y156949D01*
X185030D01*
X184055Y156755D01*
X183228Y156202D01*
X182675Y155376D01*
X182481Y154400D01*
Y147754D01*
X182675Y146779D01*
X183228Y145952D01*
X183715Y145626D01*
Y137046D01*
Y134630D01*
X183780Y134302D01*
X183802Y133970D01*
X183876Y133819D01*
X183909Y133654D01*
X184094Y133377D01*
X184242Y133078D01*
X184368Y132967D01*
X184461Y132827D01*
X184739Y132642D01*
X184989Y132422D01*
X185149Y132368D01*
X185288Y132275D01*
X185485Y132236D01*
X185980Y132031D01*
X186178Y131878D01*
X186331Y131680D01*
X186485Y131306D01*
X187038Y130479D01*
X188333Y129184D01*
X189161Y128631D01*
X189534Y128476D01*
X189733Y128324D01*
X189885Y128125D01*
X189981Y127894D01*
X190014Y127646D01*
X189981Y127397D01*
X189970Y127372D01*
X189776Y126397D01*
X189970Y125421D01*
X190523Y124594D01*
X191195Y123922D01*
X191411Y123778D01*
X191595Y123596D01*
X191981Y123342D01*
X192206Y123250D01*
X192272Y123206D01*
X193262Y122216D01*
X193262Y122216D01*
X193384Y122123D01*
Y119478D01*
X190357D01*
X190166Y119668D01*
X189560Y120133D01*
X188855Y120425D01*
X188098Y120525D01*
X186607D01*
Y122954D01*
X179285D01*
Y129046D01*
Y137046D01*
Y145626D01*
X179772Y145952D01*
X180325Y146779D01*
X180519Y147754D01*
Y154400D01*
X180325Y155376D01*
X179772Y156202D01*
X178945Y156755D01*
X177970Y156949D01*
X157830D01*
X156855Y156755D01*
X156028Y156202D01*
X155475Y155376D01*
X155281Y154400D01*
Y117462D01*
X155475Y116487D01*
X156028Y115660D01*
X156360Y115328D01*
X157187Y114775D01*
X158162Y114581D01*
X167733D01*
X168148Y114526D01*
X168380Y114431D01*
X168712Y114176D01*
X169993Y112895D01*
Y112246D01*
X170642D01*
X171219Y111669D01*
X171474Y111336D01*
X171696Y110800D01*
X171701Y110779D01*
X171794Y110639D01*
X171848Y110480D01*
X172068Y110229D01*
X172253Y109952D01*
X172393Y109859D01*
X172504Y109732D01*
X172803Y109585D01*
X172946Y109489D01*
X173052Y108955D01*
X173605Y108128D01*
X174432Y107575D01*
X175407Y107381D01*
X180038D01*
X181013Y107575D01*
X181840Y108128D01*
X183694Y109981D01*
X184246Y110808D01*
X184440Y111784D01*
X184451Y111890D01*
X184742Y112246D01*
X186607D01*
Y114247D01*
X186990Y114441D01*
X187107Y114461D01*
X187682Y114020D01*
X188388Y113727D01*
X188938Y113655D01*
X189137Y113147D01*
X188960Y112970D01*
X188347Y112500D01*
X177915Y102067D01*
X177434Y101441D01*
X177131Y100711D01*
X177028Y99928D01*
Y95272D01*
X176571Y94834D01*
X176288Y94848D01*
X175461Y95401D01*
X174485Y95595D01*
X168429D01*
Y101046D01*
Y110070D01*
X168321Y110613D01*
Y111754D01*
X167761D01*
X167682Y111872D01*
X166855Y112425D01*
X165880Y112619D01*
X156867D01*
X156452Y112673D01*
X156220Y112769D01*
X155888Y113024D01*
X153724Y115188D01*
X153469Y115520D01*
X153374Y115752D01*
X153319Y116167D01*
Y140365D01*
X153256Y140681D01*
X153238Y141002D01*
X153160Y141164D01*
X153125Y141341D01*
X152946Y141608D01*
X152806Y141898D01*
X152672Y142018D01*
X152572Y142168D01*
X152305Y142347D01*
X152065Y142561D01*
X151895Y142620D01*
X151745Y142720D01*
X151430Y142783D01*
X151126Y142889D01*
X150631Y142959D01*
X150310Y142941D01*
X149990Y142968D01*
X149818Y142914D01*
X149638Y142903D01*
X149348Y142764D01*
X149042Y142666D01*
X148904Y142550D01*
X148742Y142472D01*
X148528Y142232D01*
X148282Y142025D01*
X148199Y141865D01*
X148079Y141730D01*
X147973Y141427D01*
X147826Y141141D01*
X144244Y128717D01*
X143749Y128786D01*
Y162813D01*
X143555Y163788D01*
X143002Y164615D01*
X125675Y181942D01*
X124848Y182495D01*
X123873Y182689D01*
X25448D01*
X24472Y182495D01*
X23645Y181942D01*
X5898Y164195D01*
X5345Y163368D01*
X5151Y162392D01*
Y40407D01*
X5345Y39432D01*
X5898Y38605D01*
X18682Y25820D01*
X17937Y24850D01*
X17388Y23523D01*
X17200Y22100D01*
X17388Y20677D01*
X17937Y19350D01*
X18811Y18211D01*
X19950Y17337D01*
X21277Y16788D01*
X22700Y16600D01*
X24123Y16788D01*
X25450Y17337D01*
X26589Y18211D01*
X27463Y19350D01*
X28012Y20677D01*
X28200Y22100D01*
X28022Y23451D01*
X28104Y23680D01*
X28285Y23951D01*
X127713D01*
X128689Y24145D01*
X129516Y24698D01*
X140628Y35810D01*
X141180Y36637D01*
X141374Y37612D01*
X141460Y37707D01*
X142011Y37811D01*
X143150Y36937D01*
X144476Y36388D01*
X145900Y36200D01*
X147324Y36388D01*
X148650Y36937D01*
X149789Y37811D01*
X150663Y38950D01*
X151212Y40277D01*
X151400Y41700D01*
X151258Y42779D01*
X152212Y43733D01*
X152674Y43542D01*
Y33553D01*
X141361Y22240D01*
X140800Y22472D01*
X139300Y22670D01*
X137800Y22472D01*
X136401Y21893D01*
X135201Y20972D01*
X134550Y20124D01*
X134050D01*
X133399Y20972D01*
X132199Y21893D01*
X130800Y22472D01*
X129300Y22670D01*
X127799Y22472D01*
X126401Y21893D01*
X125200Y20972D01*
X124279Y19771D01*
X123700Y18373D01*
X123502Y16872D01*
X123700Y15372D01*
X124279Y13974D01*
X125200Y12773D01*
X126401Y11851D01*
X127799Y11272D01*
X129300Y11075D01*
X130800Y11272D01*
X132199Y11851D01*
X133399Y12773D01*
X134050Y13621D01*
X134550D01*
X135201Y12773D01*
X136401Y11851D01*
X137800Y11272D01*
X139300Y11075D01*
X140800Y11272D01*
X142199Y11851D01*
X143400Y12773D01*
X144050Y13621D01*
X144550D01*
X145201Y12773D01*
X146401Y11851D01*
X147800Y11272D01*
X149300Y11075D01*
X150801Y11272D01*
X152199Y11851D01*
X153400Y12773D01*
X154050Y13621D01*
X154550D01*
X155201Y12773D01*
X156401Y11851D01*
X157799Y11272D01*
X159300Y11075D01*
X160801Y11272D01*
X162199Y11851D01*
X163400Y12773D01*
X164321Y13974D01*
X164900Y15372D01*
X165098Y16872D01*
X164900Y18373D01*
X164321Y19771D01*
X163400Y20972D01*
X162326Y21796D01*
Y48360D01*
X168912Y54946D01*
X169374Y54755D01*
Y53551D01*
X168511Y52889D01*
X167637Y51750D01*
X167088Y50424D01*
X166900Y49000D01*
X167088Y47576D01*
X167637Y46250D01*
X168511Y45111D01*
X169650Y44237D01*
X170976Y43688D01*
X172400Y43500D01*
X173823Y43688D01*
X175150Y44237D01*
X176289Y45111D01*
X177163Y46250D01*
X177712Y47576D01*
X177900Y49000D01*
X177712Y50424D01*
X177163Y51750D01*
X176289Y52889D01*
X175426Y53551D01*
Y58914D01*
X182036Y65524D01*
X182263Y65619D01*
X182911Y66115D01*
X189212Y72417D01*
X189674Y72225D01*
Y62153D01*
X184360Y56840D01*
X183880Y56213D01*
X183577Y55483D01*
X183474Y54700D01*
Y53351D01*
X182611Y52689D01*
X181737Y51550D01*
X181188Y50223D01*
X181000Y48800D01*
X181188Y47376D01*
X181737Y46050D01*
X182611Y44911D01*
X183750Y44037D01*
X185077Y43488D01*
X186500Y43300D01*
X187924Y43488D01*
X189250Y44037D01*
X190389Y44911D01*
X191263Y46050D01*
X191813Y47376D01*
X192000Y48800D01*
X191813Y50223D01*
X191263Y51550D01*
X190389Y52689D01*
X189868Y53088D01*
X189828Y53749D01*
X194840Y58760D01*
X195320Y59387D01*
X195623Y60117D01*
X195726Y60900D01*
Y76347D01*
X197578Y78198D01*
X198078Y77991D01*
Y62400D01*
X198272Y61424D01*
X198824Y60598D01*
X199651Y60045D01*
X200627Y59851D01*
X214431D01*
X214514Y59868D01*
X214597Y59856D01*
X214999Y59964D01*
X215406Y60045D01*
X215476Y60092D01*
X215558Y60114D01*
X215888Y60367D01*
X216233Y60598D01*
X216280Y60668D01*
X216347Y60719D01*
X216555Y61079D01*
X216786Y61424D01*
X216802Y61507D01*
X216844Y61581D01*
X217014Y62081D01*
X217025Y62164D01*
X217063Y62240D01*
X217090Y62655D01*
X217144Y63067D01*
X217122Y63148D01*
X217128Y63233D01*
X216994Y63626D01*
X216887Y64027D01*
X216835Y64095D01*
X216808Y64174D01*
X216534Y64487D01*
X216281Y64816D01*
X216208Y64859D01*
X216152Y64922D01*
X215945Y65081D01*
X214978Y66048D01*
X214151Y66601D01*
X213176Y66795D01*
X208429D01*
Y72246D01*
Y80405D01*
X212858D01*
Y72246D01*
Y70858D01*
X213052Y69883D01*
X213605Y69056D01*
X215964Y66696D01*
X216791Y66143D01*
X217767Y65949D01*
X225905D01*
X226144Y65918D01*
X226144D01*
X226216Y65908D01*
X226350Y65853D01*
X226598Y65662D01*
X231663Y60598D01*
X232490Y60045D01*
X233465Y59851D01*
X235274D01*
Y53253D01*
X233921Y51900D01*
X228700D01*
Y55600D01*
X218500D01*
X218500Y55600D01*
Y55600D01*
X218466Y55605D01*
X217500Y55732D01*
X216534Y55605D01*
X215634Y55232D01*
X214861Y54639D01*
X214268Y53866D01*
X213895Y52966D01*
X213768Y52000D01*
X213895Y51034D01*
X214268Y50134D01*
X214861Y49361D01*
X215634Y48768D01*
X216534Y48395D01*
X217500Y48268D01*
X218466Y48395D01*
X218467Y48396D01*
X218500Y48400D01*
X218500Y48400D01*
X227100D01*
Y44700D01*
X229174D01*
Y39807D01*
X229277Y39024D01*
X229579Y38294D01*
X230060Y37667D01*
X231324Y36404D01*
X231132Y35942D01*
X218051D01*
X217389Y36805D01*
X216250Y37679D01*
X214924Y38229D01*
X213500Y38416D01*
X212076Y38229D01*
X210750Y37679D01*
X209611Y36805D01*
X209473Y36626D01*
X202051D01*
X201389Y37489D01*
X200250Y38363D01*
X198923Y38912D01*
X197500Y39100D01*
X196077Y38912D01*
X194750Y38363D01*
X193611Y37489D01*
X192737Y36350D01*
X192188Y35023D01*
X192000Y33600D01*
X192142Y32521D01*
X181715Y22094D01*
X180800Y22472D01*
X179300Y22670D01*
X177799Y22472D01*
X176401Y21893D01*
X175200Y20972D01*
X174279Y19771D01*
X173700Y18373D01*
X173502Y16872D01*
X173700Y15372D01*
X174279Y13974D01*
X175200Y12773D01*
X176401Y11851D01*
X177799Y11272D01*
X179300Y11075D01*
X180800Y11272D01*
X182199Y11851D01*
X183399Y12773D01*
X184321Y13974D01*
X184900Y15372D01*
X185098Y16872D01*
X185092Y16913D01*
X196421Y28242D01*
X197500Y28100D01*
X198923Y28288D01*
X200250Y28837D01*
X201389Y29711D01*
X202051Y30574D01*
X208568D01*
X208737Y30167D01*
X209611Y29027D01*
X210750Y28153D01*
X212076Y27604D01*
X213500Y27417D01*
X214924Y27604D01*
X216250Y28153D01*
X217389Y29027D01*
X218051Y29890D01*
X234539D01*
X235202Y29027D01*
X236341Y28153D01*
X237667Y27604D01*
X239091Y27417D01*
X240514Y27604D01*
X241841Y28153D01*
X242980Y29027D01*
X243854Y30167D01*
X244403Y31493D01*
X244590Y32916D01*
X244403Y34340D01*
X243854Y35666D01*
X242980Y36805D01*
X241841Y37679D01*
X240514Y38229D01*
X239091Y38416D01*
X238012Y38274D01*
X235226Y41060D01*
Y44700D01*
X237300D01*
Y46721D01*
X240440Y49860D01*
X240920Y50487D01*
X241223Y51217D01*
X241326Y52000D01*
Y59851D01*
X275100D01*
X276076Y60045D01*
X276902Y60598D01*
X286972Y70667D01*
X287525Y71494D01*
X287719Y72470D01*
Y119338D01*
X287525Y120313D01*
X286972Y121140D01*
X267440Y140672D01*
X266613Y141225D01*
X265638Y141419D01*
X247762D01*
X246787Y141225D01*
X245960Y140672D01*
X245587Y140299D01*
X245568Y140272D01*
X245541Y140252D01*
X245216Y139910D01*
X244968Y139517D01*
X244709Y139130D01*
X244702Y139097D01*
X244685Y139069D01*
X244606Y138612D01*
X244515Y138154D01*
Y130954D01*
X244280D01*
Y127990D01*
X244171Y127446D01*
Y122384D01*
X243668Y122048D01*
X243116Y121221D01*
X242922Y120246D01*
Y114640D01*
X242629Y114160D01*
X242029D01*
X241857Y114160D01*
X241844Y114295D01*
X241844D01*
X241809Y114640D01*
X241809Y115005D01*
Y122160D01*
X241019D01*
X240689Y122536D01*
X240726Y122818D01*
Y149347D01*
X241953Y150574D01*
X259156D01*
X289674Y120055D01*
Y42057D01*
X289777Y41273D01*
X290079Y40544D01*
X290560Y39917D01*
X300942Y29535D01*
X300800Y28457D01*
X300988Y27033D01*
X301537Y25707D01*
X302411Y24568D01*
X303493Y23737D01*
X303524Y23457D01*
X303493Y23176D01*
X302411Y22346D01*
X301537Y21206D01*
X300988Y19880D01*
X300800Y18457D01*
X300988Y17033D01*
X301537Y15707D01*
X302411Y14568D01*
X303550Y13694D01*
X304876Y13144D01*
X306300Y12957D01*
X307723Y13144D01*
X309050Y13694D01*
X310189Y14568D01*
X310544Y15030D01*
X312146D01*
Y13393D01*
X322854D01*
Y20480D01*
Y22117D01*
X324322D01*
Y20431D01*
X332078D01*
Y30352D01*
X324322D01*
Y28370D01*
X322854D01*
Y30007D01*
X312146D01*
Y29660D01*
X311646Y29628D01*
X311612Y29880D01*
X311063Y31207D01*
X310189Y32346D01*
X309050Y33220D01*
X307723Y33769D01*
X306300Y33956D01*
X305222Y33814D01*
X295726Y43310D01*
Y60898D01*
X296188Y61089D01*
X300142Y57135D01*
X300000Y56057D01*
X300188Y54633D01*
X300737Y53307D01*
X301611Y52168D01*
X302693Y51337D01*
X302724Y51057D01*
X302693Y50776D01*
X301611Y49946D01*
X300737Y48807D01*
X300188Y47480D01*
X300000Y46057D01*
X300188Y44633D01*
X300737Y43307D01*
X301611Y42168D01*
X302750Y41294D01*
X304077Y40744D01*
X305500Y40557D01*
X306924Y40744D01*
X308250Y41294D01*
X309389Y42168D01*
X310051Y43031D01*
X311446D01*
Y41293D01*
X322154D01*
Y48380D01*
Y50117D01*
X324179D01*
Y47831D01*
X331934D01*
Y57752D01*
X324179D01*
Y56169D01*
X322154D01*
Y57907D01*
X311446D01*
Y56500D01*
X310946Y56468D01*
X310812Y57480D01*
X310263Y58807D01*
X309389Y59946D01*
X308250Y60820D01*
X306924Y61369D01*
X305500Y61556D01*
X304421Y61414D01*
X299726Y66110D01*
Y72841D01*
X300226Y72941D01*
X300737Y71707D01*
X301611Y70568D01*
X302750Y69694D01*
X304077Y69144D01*
X305500Y68957D01*
X306924Y69144D01*
X308250Y69694D01*
X309389Y70568D01*
X310051Y71431D01*
X311846D01*
Y69593D01*
X322554D01*
Y76680D01*
Y78417D01*
X324122D01*
Y76431D01*
X331878D01*
Y86352D01*
X324122D01*
Y84469D01*
X322554D01*
Y86207D01*
X311846D01*
Y79120D01*
Y77482D01*
X310051D01*
X309389Y78346D01*
X308307Y79176D01*
X308276Y79457D01*
X308307Y79737D01*
X309389Y80568D01*
X310263Y81707D01*
X310812Y83033D01*
X311000Y84457D01*
X310812Y85880D01*
X310263Y87207D01*
X309389Y88346D01*
X308250Y89220D01*
X306924Y89769D01*
X305500Y89956D01*
X304421Y89814D01*
X301526Y92710D01*
Y95650D01*
X310354Y95650D01*
X310787Y95288D01*
X310684Y94500D01*
X310871Y93076D01*
X311420Y91750D01*
X312295Y90611D01*
X313434Y89737D01*
X314760Y89188D01*
X316183Y89000D01*
X317607Y89188D01*
X318933Y89737D01*
X320072Y90611D01*
X320946Y91750D01*
X321496Y93076D01*
X321683Y94500D01*
X321496Y95924D01*
X320946Y97250D01*
X320072Y98389D01*
X319209Y99051D01*
Y115539D01*
X320072Y116201D01*
X320946Y117341D01*
X321496Y118667D01*
X321683Y120090D01*
X321496Y121514D01*
X320946Y122840D01*
X320072Y123979D01*
X320020Y124019D01*
X320181Y124493D01*
X325485D01*
X325570Y124287D01*
X326051Y123660D01*
X328542Y121169D01*
X328400Y120090D01*
X328588Y118667D01*
X329137Y117341D01*
X330011Y116201D01*
X330874Y115539D01*
Y99051D01*
X330011Y98389D01*
X329137Y97250D01*
X328588Y95924D01*
X328400Y94500D01*
X328588Y93076D01*
X329137Y91750D01*
X330011Y90611D01*
X331150Y89737D01*
X332476Y89188D01*
X333900Y89000D01*
X335324Y89188D01*
X336650Y89737D01*
X337789Y90611D01*
X338663Y91750D01*
X339212Y93076D01*
X339400Y94500D01*
X339212Y95924D01*
X338663Y97250D01*
X337789Y98389D01*
X336926Y99051D01*
Y115539D01*
X337789Y116201D01*
X338663Y117341D01*
X339212Y118667D01*
X339400Y120090D01*
X339212Y121514D01*
X338663Y122840D01*
X337789Y123979D01*
X336650Y124853D01*
X335324Y125403D01*
X333900Y125590D01*
X332821Y125448D01*
X331216Y127053D01*
Y131380D01*
X331372Y131536D01*
X339354D01*
Y141064D01*
X328646D01*
Y139369D01*
X327654D01*
Y141107D01*
X316946D01*
Y139732D01*
X313704D01*
X312096Y141340D01*
X311470Y141821D01*
X310740Y142123D01*
X309957Y142226D01*
X308205D01*
X307389Y143289D01*
X306250Y144163D01*
X304924Y144712D01*
X303500Y144900D01*
X302077Y144712D01*
X300750Y144163D01*
X299611Y143289D01*
X298795Y142226D01*
X289153D01*
X270240Y161140D01*
X269613Y161620D01*
X268883Y161923D01*
X268100Y162026D01*
X259754D01*
X259507Y162526D01*
X260063Y163250D01*
X260612Y164576D01*
X260800Y166000D01*
X260612Y167423D01*
X260063Y168750D01*
X259928Y168926D01*
X260149Y169374D01*
X286947D01*
X297560Y158760D01*
X297560Y158760D01*
X298187Y158280D01*
X298917Y157977D01*
X299700Y157874D01*
X299700Y157874D01*
X301608D01*
X302270Y157011D01*
X303410Y156137D01*
X304736Y155588D01*
X306159Y155400D01*
X307583Y155588D01*
X308909Y156137D01*
X310048Y157011D01*
X310922Y158150D01*
X311472Y159476D01*
X311659Y160900D01*
X311517Y161978D01*
X317040Y167501D01*
X317040Y167501D01*
X317520Y168128D01*
X317823Y168858D01*
X317926Y169641D01*
Y174559D01*
X324799D01*
Y181921D01*
X318714D01*
X318522Y182383D01*
X322909Y186770D01*
X323408Y186737D01*
X323811Y186211D01*
X324950Y185337D01*
X326276Y184788D01*
X327700Y184600D01*
X329123Y184788D01*
X330450Y185337D01*
X331589Y186211D01*
X332463Y187350D01*
X333012Y188677D01*
X333200Y190100D01*
X333012Y191524D01*
X332463Y192850D01*
X331589Y193989D01*
X330507Y194819D01*
X330476Y195100D01*
X330507Y195381D01*
X331589Y196211D01*
X332463Y197350D01*
X333012Y198677D01*
X333200Y200100D01*
X333012Y201523D01*
X332463Y202850D01*
X331589Y203989D01*
X330507Y204819D01*
X330476Y205100D01*
X330507Y205381D01*
X331589Y206211D01*
X332463Y207350D01*
X333012Y208677D01*
X333200Y210100D01*
X333012Y211524D01*
X332463Y212850D01*
X331589Y213989D01*
X330507Y214819D01*
X330476Y215100D01*
X330507Y215381D01*
X331589Y216211D01*
X332463Y217350D01*
X333012Y218676D01*
X333200Y220100D01*
X333012Y221523D01*
X332463Y222850D01*
X331589Y223989D01*
X330507Y224819D01*
X330476Y225100D01*
X330507Y225381D01*
X331589Y226211D01*
X332463Y227350D01*
X333012Y228677D01*
X333200Y230100D01*
X333012Y231523D01*
X332463Y232850D01*
X331589Y233989D01*
X330507Y234819D01*
X330476Y235100D01*
X330507Y235381D01*
X331589Y236211D01*
X332463Y237350D01*
X333012Y238677D01*
X333200Y240100D01*
X333012Y241524D01*
X332463Y242850D01*
X331589Y243989D01*
X330507Y244819D01*
X330476Y245100D01*
X330507Y245381D01*
X331589Y246211D01*
X332463Y247350D01*
X333012Y248676D01*
X333200Y250100D01*
X333012Y251523D01*
X332463Y252850D01*
X331589Y253989D01*
X330507Y254819D01*
X330476Y255100D01*
X330507Y255381D01*
X331589Y256211D01*
X332463Y257350D01*
X333012Y258677D01*
X333200Y260100D01*
X333012Y261524D01*
X332463Y262850D01*
X331589Y263989D01*
X330450Y264863D01*
X329123Y265412D01*
X327700Y265600D01*
D02*
G37*
G36*
X206300Y189100D02*
X204877Y188912D01*
X203550Y188363D01*
X202411Y187489D01*
X201537Y186350D01*
X200988Y185023D01*
X200800Y183600D01*
X200988Y182176D01*
X201537Y180850D01*
X202411Y179711D01*
X203550Y178837D01*
X204877Y178287D01*
X206300Y178100D01*
X207723Y178287D01*
X209050Y178837D01*
X210189Y179711D01*
X211063Y180850D01*
X211613Y182176D01*
X211800Y183600D01*
X211613Y185023D01*
X211063Y186350D01*
X210189Y187489D01*
X209050Y188363D01*
X207723Y188912D01*
X206300Y189100D01*
D02*
G37*
G36*
X333855Y171721D02*
X323146D01*
Y162193D01*
X324970D01*
Y161246D01*
X324895Y161066D01*
X324768Y160100D01*
X324895Y159134D01*
X325268Y158234D01*
X325861Y157461D01*
X326634Y156868D01*
X327534Y156495D01*
X328500Y156368D01*
X329466Y156495D01*
X330366Y156868D01*
X331139Y157461D01*
X331732Y158234D01*
X332105Y159134D01*
X332232Y160100D01*
X332105Y161066D01*
X332030Y161246D01*
Y162193D01*
X333855D01*
Y171721D01*
D02*
G37*
%LPD*%
G36*
X217674Y92201D02*
Y89425D01*
X217777Y88641D01*
X218079Y87912D01*
X218560Y87285D01*
X220072Y85773D01*
Y82560D01*
X234128D01*
Y88040D01*
X234590Y88231D01*
X235274Y87547D01*
Y62400D01*
X233465D01*
X228283Y67583D01*
X227635Y68080D01*
X226881Y68392D01*
X226476Y68445D01*
X226072Y68498D01*
X226072Y68498D01*
X217767D01*
X215407Y70858D01*
Y72246D01*
Y82954D01*
X205879D01*
Y72246D01*
Y64246D01*
X213176D01*
X214261Y63161D01*
X214600Y62900D01*
X214431Y62400D01*
X200627D01*
Y78418D01*
X216042Y93833D01*
X217674Y92201D01*
D02*
G37*
G36*
X96430Y61047D02*
Y55651D01*
X95567Y54989D01*
X94693Y53850D01*
X94144Y52523D01*
X93956Y51100D01*
X94144Y49676D01*
X94693Y48350D01*
X95567Y47211D01*
X96649Y46381D01*
X96680Y46100D01*
X96649Y45819D01*
X95567Y44989D01*
X94905Y44126D01*
X92721D01*
X82994Y53853D01*
X83103Y54451D01*
X83695Y54905D01*
X84288Y55678D01*
X84661Y56578D01*
X84778Y57469D01*
X85328D01*
Y57825D01*
X90572D01*
Y65975D01*
X85328D01*
Y70074D01*
X87403D01*
X96430Y61047D01*
D02*
G37*
G36*
X177970Y147754D02*
X176736D01*
Y137046D01*
Y129046D01*
Y120589D01*
X177079D01*
Y112246D01*
X181700D01*
X181891Y111784D01*
X180038Y109930D01*
X175407D01*
Y111754D01*
X174055D01*
X174053Y111770D01*
X173701Y112622D01*
X173140Y113353D01*
X170396Y116096D01*
X169665Y116657D01*
X168814Y117010D01*
X167900Y117130D01*
X158162D01*
X157830Y117462D01*
Y154400D01*
X177970D01*
Y147754D01*
D02*
G37*
G36*
X199113Y148898D02*
X197880D01*
Y140898D01*
X197536D01*
Y130189D01*
X199384D01*
X199592Y129687D01*
X200089Y129039D01*
X201058Y128070D01*
Y127149D01*
X201058Y127149D01*
X201112Y126744D01*
X201165Y126339D01*
X201198Y126258D01*
Y125470D01*
X193384D01*
X193384Y125470D01*
Y125470D01*
X192998Y125724D01*
X192325Y126397D01*
X192464Y126732D01*
X192585Y127646D01*
X192464Y128559D01*
X192112Y129411D01*
X191551Y130142D01*
X190820Y130703D01*
X190136Y130986D01*
X188840Y132281D01*
X188557Y132965D01*
X187996Y133696D01*
X187265Y134257D01*
X186414Y134610D01*
X186264Y134630D01*
Y137046D01*
Y147754D01*
X185030D01*
Y154400D01*
X199113D01*
Y148898D01*
D02*
G37*
G36*
X285170Y119338D02*
Y72470D01*
X275100Y62400D01*
X241326D01*
Y88800D01*
X241326Y88800D01*
X241223Y89583D01*
X240920Y90313D01*
X240440Y90940D01*
X233240Y98140D01*
X232613Y98620D01*
X231883Y98923D01*
X231100Y99026D01*
X225559D01*
X225415Y99261D01*
X225697Y99761D01*
X228817D01*
Y105785D01*
X220431D01*
Y104269D01*
X201769D01*
Y107754D01*
Y111572D01*
Y115509D01*
Y119447D01*
Y122931D01*
X220431D01*
Y119447D01*
Y115509D01*
Y111572D01*
Y107635D01*
X224517D01*
X224624Y107621D01*
X228729D01*
Y106640D01*
X239871D01*
Y106660D01*
X241529D01*
Y106640D01*
X249540D01*
Y106629D01*
X254546D01*
Y101980D01*
Y94893D01*
X255432D01*
Y86939D01*
X264369D01*
Y94893D01*
X265254D01*
Y101980D01*
Y111507D01*
X260414D01*
X258882Y113039D01*
X258109Y113632D01*
X257209Y114005D01*
X257060Y114024D01*
Y114110D01*
X256414D01*
X256243Y114132D01*
X252671D01*
Y114160D01*
X245518D01*
X245471Y114640D01*
X245471D01*
Y120246D01*
X246720D01*
Y127446D01*
X247064D01*
Y138154D01*
X247064Y138154D01*
X247064D01*
X247389Y138497D01*
X247762Y138870D01*
X265638D01*
X285170Y119338D01*
D02*
G37*
G36*
X150770Y140365D02*
Y116000D01*
X150890Y115086D01*
X151243Y114235D01*
X151804Y113504D01*
X154204Y111104D01*
X154935Y110543D01*
X155786Y110190D01*
X156700Y110070D01*
X165880D01*
Y101046D01*
Y93046D01*
X174485D01*
X174677Y92584D01*
X174119Y92026D01*
X159574D01*
X143749Y107851D01*
Y117796D01*
X150275Y140435D01*
X150770Y140365D01*
D02*
G37*
G36*
X141200Y162813D02*
Y94532D01*
X141137Y94450D01*
X141003Y94126D01*
X137579D01*
X136756Y95200D01*
X135555Y96121D01*
X134157Y96700D01*
X132656Y96898D01*
X131156Y96700D01*
X129757Y96121D01*
X128557Y95200D01*
X127906Y94352D01*
X127406D01*
X126755Y95200D01*
X125555Y96121D01*
X124156Y96700D01*
X122656Y96898D01*
X121938Y96803D01*
X116301Y102440D01*
X115674Y102920D01*
X114945Y103223D01*
X114161Y103326D01*
X111533D01*
X111533Y103326D01*
X110749Y103223D01*
X110020Y102920D01*
X109896Y102826D01*
X108853D01*
X107657Y104023D01*
X107804Y104322D01*
X107916Y104470D01*
X108866Y104595D01*
X109766Y104968D01*
X110539Y105561D01*
X110820Y105928D01*
X111896Y107004D01*
X112069Y107228D01*
X118731D01*
Y108499D01*
X119327Y108577D01*
X120057Y108879D01*
X120684Y109360D01*
X126484Y115160D01*
X126965Y115787D01*
X127267Y116517D01*
X127370Y117300D01*
Y123228D01*
X133931D01*
Y129628D01*
Y138172D01*
X132882D01*
Y139200D01*
X133179Y139917D01*
X133282Y140700D01*
X133282Y140700D01*
Y142549D01*
X134145Y143211D01*
X135019Y144350D01*
X135568Y145677D01*
X135756Y147100D01*
X135568Y148523D01*
X135019Y149850D01*
X134145Y150989D01*
X133006Y151863D01*
X131679Y152412D01*
X130256Y152600D01*
X128832Y152412D01*
X127506Y151863D01*
X126367Y150989D01*
X125537Y149907D01*
X125256Y149876D01*
X124975Y149907D01*
X124145Y150989D01*
X123006Y151863D01*
X121679Y152412D01*
X120256Y152600D01*
X118833Y152412D01*
X117506Y151863D01*
X116367Y150989D01*
X115537Y149907D01*
X115256Y149876D01*
X114975Y149907D01*
X114145Y150989D01*
X113006Y151863D01*
X111679Y152412D01*
X110256Y152600D01*
X108833Y152412D01*
X107506Y151863D01*
X106367Y150989D01*
X105493Y149850D01*
X104944Y148523D01*
X104756Y147100D01*
X104795Y146807D01*
X99716Y141728D01*
X99236Y141102D01*
X98933Y140372D01*
X98830Y139589D01*
Y135772D01*
X96172D01*
Y140731D01*
X91437D01*
X91196Y141169D01*
X98845Y153280D01*
X93733Y169200D01*
X47500Y169200D01*
X40600Y162300D01*
X19550Y150100D01*
X11400Y145900D01*
X9050Y119450D01*
X14069Y115411D01*
X14113Y115357D01*
X15258Y114417D01*
X15394Y114345D01*
X19550Y111000D01*
X26300Y108950D01*
X46687Y112687D01*
X49200Y118400D01*
X51522Y120722D01*
X51984Y120531D01*
Y116625D01*
Y111113D01*
X53230D01*
Y109628D01*
X53273Y109302D01*
X52943Y108926D01*
X49931D01*
Y110172D01*
X36269D01*
Y109409D01*
X36234Y109405D01*
X35334Y109032D01*
X34561Y108439D01*
X33968Y107666D01*
X33595Y106766D01*
X33468Y105800D01*
X33595Y104834D01*
X33946Y103987D01*
X33871Y103784D01*
X33681Y103487D01*
X25584D01*
Y95337D01*
X31984D01*
Y95249D01*
X40528D01*
Y96298D01*
X40956D01*
X41208Y96331D01*
X41584Y96001D01*
Y92572D01*
X37781D01*
Y84028D01*
X43943D01*
X44134Y83566D01*
X43294Y82726D01*
X34128D01*
Y86863D01*
X25584D01*
Y86820D01*
X25084Y86381D01*
X24700Y86432D01*
X23734Y86305D01*
X22834Y85932D01*
X22061Y85339D01*
X21468Y84566D01*
X21095Y83666D01*
X20968Y82700D01*
X21095Y81734D01*
X21468Y80834D01*
X22061Y80061D01*
X22554Y79683D01*
X22385Y79183D01*
X15482D01*
Y69458D01*
X33478D01*
X33725Y68958D01*
X33424Y68566D01*
X33349Y68386D01*
X32926Y67962D01*
X15482D01*
Y58238D01*
X36230D01*
Y61282D01*
X38342Y63393D01*
X38522Y63468D01*
X39295Y64061D01*
X39888Y64834D01*
X39963Y65014D01*
X41974Y67025D01*
X42730D01*
Y63553D01*
X35919Y56742D01*
X15482D01*
Y47017D01*
X36230D01*
Y49003D01*
X36849Y49259D01*
X37475Y49740D01*
X47484Y59749D01*
X47984Y59542D01*
Y53425D01*
Y47913D01*
X49230D01*
Y46600D01*
X48933Y45883D01*
X48830Y45100D01*
Y43251D01*
X47967Y42589D01*
X47093Y41450D01*
X46544Y40124D01*
X46356Y38700D01*
X46544Y37277D01*
X47093Y35950D01*
X47967Y34811D01*
X49106Y33937D01*
X50432Y33388D01*
X51856Y33200D01*
X53279Y33388D01*
X54606Y33937D01*
X55745Y34811D01*
X56575Y35893D01*
X56856Y35924D01*
X57137Y35893D01*
X57967Y34811D01*
X59106Y33937D01*
X60433Y33388D01*
X61856Y33200D01*
X63279Y33388D01*
X64606Y33937D01*
X65745Y34811D01*
X66575Y35893D01*
X66856Y35924D01*
X67137Y35893D01*
X67967Y34811D01*
X69106Y33937D01*
X70433Y33388D01*
X71856Y33200D01*
X73279Y33388D01*
X74606Y33937D01*
X75745Y34811D01*
X76125Y35307D01*
X76625Y35137D01*
Y34428D01*
X87072D01*
X87661Y33661D01*
X88434Y33068D01*
X89334Y32695D01*
X90300Y32568D01*
X91266Y32695D01*
X92166Y33068D01*
X92939Y33661D01*
X93532Y34434D01*
X93905Y35334D01*
X94032Y36300D01*
X93905Y37266D01*
X93742Y37658D01*
X94020Y38074D01*
X94905D01*
X95567Y37211D01*
X96706Y36337D01*
X98033Y35788D01*
X99456Y35600D01*
X100879Y35788D01*
X102206Y36337D01*
X103345Y37211D01*
X104219Y38350D01*
X104768Y39676D01*
X104956Y41100D01*
X104768Y42524D01*
X104219Y43850D01*
X103345Y44989D01*
X102263Y45819D01*
X102232Y46100D01*
X102263Y46381D01*
X103345Y47211D01*
X104219Y48350D01*
X104768Y49676D01*
X104956Y51100D01*
X104768Y52523D01*
X104219Y53850D01*
X103345Y54989D01*
X102482Y55651D01*
Y62300D01*
X102482Y62300D01*
X102379Y63083D01*
X102076Y63813D01*
X101596Y64440D01*
X101596Y64440D01*
X91369Y74667D01*
X91560Y75129D01*
X92931D01*
Y76029D01*
X93266Y76168D01*
X94039Y76761D01*
X94632Y77534D01*
X95005Y78434D01*
X95132Y79400D01*
X95005Y80366D01*
X94632Y81266D01*
X94318Y81675D01*
X94565Y82175D01*
X98043D01*
X114982Y65236D01*
Y63926D01*
X114882Y63167D01*
Y53992D01*
X114985Y53209D01*
X115287Y52479D01*
X115768Y51852D01*
X116910Y50711D01*
X117056Y49599D01*
X117635Y48201D01*
X118556Y47001D01*
X119757Y46079D01*
X121156Y45500D01*
X122656Y45302D01*
X124156Y45500D01*
X125555Y46079D01*
X126755Y47001D01*
X127406Y47848D01*
X127906D01*
X128557Y47001D01*
X129404Y46350D01*
Y45850D01*
X128557Y45199D01*
X127635Y43999D01*
X127056Y42601D01*
X126858Y41100D01*
X127056Y39599D01*
X127635Y38201D01*
X128557Y37001D01*
X129757Y36079D01*
X131156Y35500D01*
X132656Y35302D01*
X134157Y35500D01*
X135555Y36079D01*
X136756Y37001D01*
X137579Y38074D01*
X138634D01*
X138825Y37612D01*
X127713Y26500D01*
X25923D01*
X25450Y26863D01*
X24123Y27412D01*
X22700Y27600D01*
X21277Y27412D01*
X20865Y27242D01*
X7700Y40407D01*
Y162392D01*
X25448Y180140D01*
X123873D01*
X141200Y162813D01*
D02*
G37*
G36*
X66030Y131179D02*
Y124388D01*
X66133Y123605D01*
X66347Y123089D01*
X66435Y122875D01*
X66916Y122249D01*
X70156Y119009D01*
Y108493D01*
X67372D01*
Y116463D01*
X60528D01*
Y116625D01*
Y124775D01*
X60331D01*
Y129531D01*
X64004Y133204D01*
X66030Y131179D01*
D02*
G37*
D10*
X313500Y135657D02*
D03*
Y130145D02*
D03*
X205500Y12888D02*
D03*
Y18400D02*
D03*
X198300Y18400D02*
D03*
Y12888D02*
D03*
X69056Y51144D02*
D03*
Y56656D02*
D03*
X63100Y117900D02*
D03*
Y112388D02*
D03*
X91900Y131144D02*
D03*
Y136656D02*
D03*
X106300Y136656D02*
D03*
Y131144D02*
D03*
X75500Y137244D02*
D03*
Y142756D02*
D03*
X64000Y137488D02*
D03*
Y143000D02*
D03*
X85856Y116388D02*
D03*
Y121900D02*
D03*
X45856Y99500D02*
D03*
Y93988D02*
D03*
X29856Y93900D02*
D03*
Y99412D02*
D03*
Y82788D02*
D03*
Y88300D02*
D03*
X56256Y115188D02*
D03*
Y120700D02*
D03*
X52256Y51988D02*
D03*
Y57500D02*
D03*
X58656Y51588D02*
D03*
Y57100D02*
D03*
X52256Y68700D02*
D03*
Y63188D02*
D03*
X58656Y68700D02*
D03*
Y63188D02*
D03*
X81056Y61544D02*
D03*
Y67056D02*
D03*
X229856Y86635D02*
D03*
X224344D02*
D03*
X229856Y90965D02*
D03*
X224344D02*
D03*
X36256Y93812D02*
D03*
Y99324D02*
D03*
X86300Y61900D02*
D03*
Y56388D02*
D03*
X41056Y71100D02*
D03*
Y76612D02*
D03*
D11*
X322300Y129257D02*
D03*
Y136343D02*
D03*
X296409Y311261D02*
D03*
Y304174D02*
D03*
X256109Y282731D02*
D03*
Y289818D02*
D03*
X305000Y107500D02*
D03*
Y100413D02*
D03*
X317200Y81443D02*
D03*
Y74357D02*
D03*
X316800Y53143D02*
D03*
Y46057D02*
D03*
X317500Y25243D02*
D03*
Y18157D02*
D03*
X259900Y99657D02*
D03*
Y106743D02*
D03*
X328500Y174043D02*
D03*
Y166957D02*
D03*
X266950Y254400D02*
D03*
Y247313D02*
D03*
X88757Y262657D02*
D03*
Y269743D02*
D03*
X68757Y266313D02*
D03*
Y273400D02*
D03*
X334000Y136300D02*
D03*
Y129213D02*
D03*
X128309Y258474D02*
D03*
Y265561D02*
D03*
X297184Y291421D02*
D03*
Y284335D02*
D03*
X286084Y284478D02*
D03*
Y291565D02*
D03*
D12*
X268409Y288974D02*
D03*
D13*
X271657Y286415D02*
D03*
Y288974D02*
D03*
Y291533D02*
D03*
X265161D02*
D03*
Y288974D02*
D03*
Y286415D02*
D03*
D14*
X328000Y81391D02*
D03*
Y67809D02*
D03*
X328057Y52791D02*
D03*
Y39209D02*
D03*
X328200Y25391D02*
D03*
Y11809D02*
D03*
D15*
X259900Y91505D02*
D03*
D16*
X265707Y85600D02*
D03*
X254093D02*
D03*
D17*
X253300Y114031D02*
D03*
Y110369D02*
D03*
X240700Y106739D02*
D03*
Y110400D02*
D03*
D18*
X232469Y110400D02*
D03*
X236131D02*
D03*
X245269Y110400D02*
D03*
X248931D02*
D03*
X241731Y118400D02*
D03*
X238069D02*
D03*
D19*
X319399Y178240D02*
D03*
Y174500D02*
D03*
Y170760D02*
D03*
X310100D02*
D03*
Y174500D02*
D03*
Y178240D02*
D03*
D20*
X288690Y234516D02*
D03*
X295777D02*
D03*
X277490Y224116D02*
D03*
X284577D02*
D03*
X174757Y117600D02*
D03*
X181843D02*
D03*
X163557Y106400D02*
D03*
X170643D02*
D03*
X163557Y98400D02*
D03*
X170643D02*
D03*
X174413Y125943D02*
D03*
X181500D02*
D03*
X202643Y143543D02*
D03*
X195557D02*
D03*
X202300Y135543D02*
D03*
X195213D02*
D03*
X203557Y77600D02*
D03*
X210643D02*
D03*
X203557Y69600D02*
D03*
X210643D02*
D03*
X258149Y256113D02*
D03*
X251063D02*
D03*
X251063Y247313D02*
D03*
X258150D02*
D03*
X274309Y301974D02*
D03*
X267223D02*
D03*
X174413Y142400D02*
D03*
X181500D02*
D03*
X174413Y134400D02*
D03*
X181500D02*
D03*
X249387Y132800D02*
D03*
X242300D02*
D03*
X249043Y125600D02*
D03*
X241957D02*
D03*
X153213Y287800D02*
D03*
X160300D02*
D03*
D21*
X250434Y234513D02*
D03*
X266950D02*
D03*
D22*
X250818Y230193D02*
D03*
X253967D02*
D03*
X257117D02*
D03*
X260266D02*
D03*
X263416D02*
D03*
X266566D02*
D03*
Y238834D02*
D03*
X263416D02*
D03*
X260266D02*
D03*
X257117D02*
D03*
X253967D02*
D03*
X250818D02*
D03*
D23*
X56256Y127412D02*
D03*
X50744D02*
D03*
X36344Y88300D02*
D03*
X41856D02*
D03*
X103825Y95500D02*
D03*
X98313D02*
D03*
X109144Y111500D02*
D03*
X114656D02*
D03*
X109056Y117900D02*
D03*
X114568D02*
D03*
X86212Y38700D02*
D03*
X80700D02*
D03*
X124344Y127500D02*
D03*
X129856D02*
D03*
X124344Y133900D02*
D03*
X129856D02*
D03*
X96344Y131500D02*
D03*
X101856D02*
D03*
X45856Y105900D02*
D03*
X40344D02*
D03*
X68344Y61900D02*
D03*
X73856D02*
D03*
X88856Y79400D02*
D03*
X83344D02*
D03*
D24*
X73576Y292629D02*
D03*
Y285542D02*
D03*
D25*
X25856Y51880D02*
D03*
Y63100D02*
D03*
Y74320D02*
D03*
D26*
X66548Y101603D02*
D03*
Y99635D02*
D03*
Y97666D02*
D03*
Y95698D02*
D03*
Y93729D02*
D03*
Y91761D02*
D03*
Y89792D02*
D03*
Y87824D02*
D03*
X85721D02*
D03*
Y89792D02*
D03*
Y91761D02*
D03*
Y93729D02*
D03*
Y95698D02*
D03*
Y97666D02*
D03*
Y99635D02*
D03*
Y101603D02*
D03*
D27*
X83025Y104300D02*
D03*
X81056D02*
D03*
X79088D02*
D03*
X77119D02*
D03*
X75151D02*
D03*
X73182D02*
D03*
X71214D02*
D03*
X69245D02*
D03*
Y85127D02*
D03*
X71214D02*
D03*
X73182D02*
D03*
X75151D02*
D03*
X77119D02*
D03*
X79088D02*
D03*
X81056D02*
D03*
X83025D02*
D03*
D28*
X76135Y94713D02*
D03*
D29*
X31154Y300601D02*
D03*
X28595D02*
D03*
X26036D02*
D03*
X23477D02*
D03*
X20918D02*
D03*
D30*
X38635Y301487D02*
D03*
X13438D02*
D03*
D31*
X39521Y311132D02*
D03*
X12552D02*
D03*
D32*
X30761D02*
D03*
X21312D02*
D03*
D33*
X102508Y295000D02*
D03*
X121405Y295394D02*
D03*
D34*
X110357Y268600D02*
D03*
D35*
X116107Y271553D02*
D03*
Y269584D02*
D03*
Y267616D02*
D03*
Y265647D02*
D03*
X104607D02*
D03*
Y267616D02*
D03*
Y269584D02*
D03*
Y271553D02*
D03*
D36*
X232200Y48300D02*
D03*
Y55700D02*
D03*
X223600Y52000D02*
D03*
D37*
X200273Y100076D02*
D03*
X202242D02*
D03*
X204210D02*
D03*
X206179D02*
D03*
X208147D02*
D03*
X210116D02*
D03*
X212084D02*
D03*
X214053D02*
D03*
X216021D02*
D03*
X217990D02*
D03*
X219958D02*
D03*
X221927D02*
D03*
Y127124D02*
D03*
X219958D02*
D03*
X217990D02*
D03*
X216021D02*
D03*
X214053D02*
D03*
X212084D02*
D03*
X210116D02*
D03*
X208147D02*
D03*
X206179D02*
D03*
X204210D02*
D03*
X202242D02*
D03*
X200273D02*
D03*
D38*
X224624Y102773D02*
D03*
Y104742D02*
D03*
Y106710D02*
D03*
Y108679D02*
D03*
Y110647D02*
D03*
Y112616D02*
D03*
Y114584D02*
D03*
Y116553D02*
D03*
Y118521D02*
D03*
Y120490D02*
D03*
Y122458D02*
D03*
Y124427D02*
D03*
X197576D02*
D03*
Y122458D02*
D03*
Y120490D02*
D03*
Y118521D02*
D03*
Y116553D02*
D03*
Y114584D02*
D03*
Y112616D02*
D03*
Y110647D02*
D03*
Y108679D02*
D03*
Y106710D02*
D03*
Y104742D02*
D03*
Y102773D02*
D03*
D39*
X211100Y113600D02*
D03*
D40*
X216053Y97892D02*
Y100133D01*
X212243Y69600D02*
Y77600D01*
X249043Y132800D02*
X249843Y132000D01*
Y125600D02*
Y132000D01*
X253500Y113831D02*
Y116800D01*
X213500Y113600D02*
X216631Y110469D01*
X220390Y106710D01*
X265707Y78193D02*
Y85600D01*
X254093Y78193D02*
Y85600D01*
X195473Y124427D02*
X200273D01*
X194224Y127124D02*
X200273D01*
X193500Y126400D02*
X195473Y124427D01*
X211100Y119200D02*
X216021Y124121D01*
X202185Y122515D02*
Y127180D01*
X204604Y120096D02*
X211100Y113600D01*
X208059Y100076D02*
Y100848D01*
X66548Y91761D02*
X73182D01*
X88884Y269616D02*
X104607D01*
X306300Y18457D02*
X306600Y18157D01*
X317500D01*
X328052Y25243D02*
X328200Y25391D01*
X317500Y25243D02*
X328052D01*
X220390Y106710D02*
X224624D01*
X240700Y104000D02*
Y106739D01*
X224624Y104742D02*
Y106710D01*
X249043Y125600D02*
X249843D01*
X159200Y106400D02*
X163557D01*
X286052Y291533D02*
X286084Y291565D01*
X277324Y291533D02*
X286052D01*
X276483Y292374D02*
X277324Y291533D01*
X273335Y292374D02*
X276483D01*
X272494Y291533D02*
X273335Y292374D01*
X271657Y291533D02*
X272494D01*
X268409Y288974D02*
Y293974D01*
X286084Y293848D02*
X296409Y304174D01*
X286084Y291565D02*
Y293848D01*
X268409Y288974D02*
X270968Y286415D01*
X271657D01*
X265161Y288974D02*
Y291533D01*
X83025Y79720D02*
Y85127D01*
X88757Y269743D02*
X88884Y269616D01*
X126254Y267616D02*
X128309Y265561D01*
X116107Y267616D02*
X126254D01*
X90689Y86900D02*
X100000D01*
X90489Y87100D02*
X90689Y86900D01*
X91498Y90900D02*
X112856D01*
X85721Y95698D02*
X93302D01*
X122656Y61100D02*
Y64244D01*
X100000Y86900D02*
X122656Y64244D01*
X93500Y95500D02*
X98313D01*
X93302Y95698D02*
X93500Y95500D01*
X193500Y126400D02*
X194224Y127124D01*
X211100Y103277D02*
Y103889D01*
X208204Y102349D02*
X209024Y103169D01*
X210380D01*
X211100Y103889D01*
Y113600D01*
X206179Y100076D02*
X208059D01*
X210059Y100020D02*
X210116Y100076D01*
X211208Y103169D02*
X213176D01*
X211100Y103277D02*
X211208Y103169D01*
X204185Y127149D02*
Y129365D01*
X200273Y124427D02*
X202185Y122515D01*
X110357Y268600D02*
X113309Y271553D01*
X116107D01*
X118709Y274156D01*
Y274474D01*
X104607Y267616D02*
X109372D01*
X71214Y104300D02*
Y109786D01*
X63100Y117900D02*
X71214Y109786D01*
X76135Y92909D02*
X81056Y87988D01*
Y85127D02*
Y87988D01*
X112856Y90900D02*
X122656Y81100D01*
X104856Y88900D02*
X122656Y71100D01*
X91898Y88900D02*
X104856D01*
X69056Y56656D02*
Y61188D01*
X68344Y61900D02*
X69056Y61188D01*
X202300Y135543D02*
X202630Y135213D01*
X185500Y131200D02*
X189054Y127646D01*
X197520Y114528D02*
X197576Y114584D01*
X197520Y118465D02*
X197576Y118521D01*
X189628Y114528D02*
X197520D01*
X189054Y125246D02*
Y127646D01*
X193754Y120546D02*
X197520D01*
X197576Y120490D01*
X191824Y118465D02*
X197520D01*
X186300Y123988D02*
X191824Y118465D01*
X189054Y125246D02*
X193754Y120546D01*
X186300Y111200D02*
X189628Y114528D01*
X213996Y100133D02*
X214053Y100076D01*
X202300Y131250D02*
Y135543D01*
X216021Y127124D02*
X217990D01*
X211100Y113600D02*
X213500D01*
X224624Y106710D02*
Y108679D01*
X211100Y113600D02*
Y119200D01*
X216021Y124121D02*
Y127124D01*
X204185Y127149D02*
X204210Y127124D01*
X202300Y131250D02*
X204185Y129365D01*
X213996Y100133D02*
Y102349D01*
X213176Y103169D02*
X213996Y102349D01*
X217500Y52000D02*
X223600D01*
X232200Y55700D02*
Y59243D01*
X226072Y65372D02*
X232200Y59243D01*
X216472Y65372D02*
X226072D01*
X212243Y69600D02*
X216472Y65372D01*
X180700Y68326D02*
X210059Y97685D01*
Y100020D01*
X208059Y100848D02*
X208204Y100993D01*
Y102349D01*
X197500Y46400D02*
Y79713D01*
X213984Y96197D01*
Y96484D01*
X214483Y96983D01*
X215144D01*
X216053Y97892D01*
X160300Y98400D02*
X163557D01*
X159700Y99000D02*
X160300Y98400D01*
X68344Y61900D02*
Y71057D01*
X75151Y77864D02*
Y78051D01*
X68344Y71057D02*
X75151Y77864D01*
D41*
X305000Y107500D02*
Y124045D01*
X258000Y255346D02*
Y260900D01*
X263416Y224117D02*
Y230193D01*
X20890Y264867D02*
Y300601D01*
X106400Y136844D02*
X106444Y136800D01*
X109144Y109756D02*
X109400Y109500D01*
X181557Y287800D02*
X193557Y299800D01*
X311100Y130145D02*
X313500D01*
X305000Y124045D02*
X311100Y130145D01*
X321412D02*
X322300Y129257D01*
X313500Y130145D02*
X321412D01*
X160300Y287800D02*
X181557D01*
X328500Y160100D02*
Y166957D01*
X170100Y171100D02*
X176800D01*
X156800D02*
X170100D01*
X176900Y177900D02*
Y186400D01*
X170100Y171100D02*
X176900Y177900D01*
X176800Y171100D02*
X178775Y169125D01*
X154300Y168600D02*
X156800Y171100D01*
X174413Y134400D02*
Y142400D01*
X167900D02*
X174413D01*
X169500Y134400D02*
X174413D01*
Y125943D02*
Y134400D01*
X328200Y9100D02*
Y11809D01*
X328000Y64800D02*
Y67809D01*
X195213Y135543D02*
Y143200D01*
X191575Y169125D02*
X202643Y158057D01*
X178775Y169125D02*
X191575D01*
X327209Y288785D02*
X327564Y288431D01*
X327209Y288785D02*
Y301774D01*
X178775Y169125D02*
X181500Y166400D01*
X154300Y116000D02*
Y168600D01*
X169043Y125943D02*
X174413D01*
X263125Y289818D02*
X264841Y291533D01*
X256109Y289818D02*
X263125D01*
X255957Y289970D02*
X256109Y289818D01*
X255957Y289970D02*
Y299800D01*
X265049D02*
X267223Y301974D01*
X255957Y299800D02*
X265049D01*
X90409Y74600D02*
X95700D01*
X328057Y36343D02*
Y39209D01*
X83025Y79720D02*
X83344Y79400D01*
X88856D02*
X91400D01*
X73182Y91761D02*
X76135Y94713D01*
Y92909D02*
Y94713D01*
X72400Y90979D02*
X73182Y91761D01*
X98313Y97113D02*
X100700Y99500D01*
X98313Y95500D02*
Y97113D01*
X170643Y98400D02*
Y106400D01*
X266566Y238834D02*
Y246929D01*
X258150Y247313D02*
X263416Y242047D01*
Y238834D02*
Y242047D01*
X257117Y238834D02*
Y246281D01*
X253967Y238834D02*
X257117D01*
X198300Y18400D02*
X205500D01*
X319399Y170760D02*
Y174500D01*
X299700D02*
X310100D01*
X202185Y122515D02*
X204604Y120096D01*
X38635Y301487D02*
X46522D01*
X296409Y311261D02*
X304296D01*
X85100Y273400D02*
X88757Y269743D01*
X68757Y273400D02*
X85100D01*
X68757Y280723D02*
X73576Y285542D01*
X68757Y273400D02*
Y280723D01*
X60284Y273400D02*
X68757D01*
X52079Y281605D02*
X60284Y273400D01*
X35074Y264600D02*
X52079Y281605D01*
X31157Y264600D02*
X35074D01*
X36344Y88300D02*
Y91000D01*
X36256Y91088D02*
X36344Y91000D01*
X36256Y91088D02*
Y93812D01*
X33044D02*
X36256D01*
X32956Y93900D02*
X33044Y93812D01*
X29856Y93900D02*
X32956D01*
X29856Y88300D02*
Y93900D01*
X193557Y299800D02*
X245957D01*
X153213Y287800D02*
Y288543D01*
X141957Y299800D02*
X153213Y288543D01*
X33685Y289999D02*
X42079Y281605D01*
X33685Y289999D02*
Y298098D01*
X31183Y300601D02*
X33685Y298098D01*
X31154Y300601D02*
X31183D01*
X314809Y304174D02*
X317209Y301774D01*
X296409Y304174D02*
X314809D01*
X128309Y265561D02*
X131957Y269208D01*
X256109Y282731D02*
X260664D01*
X84599Y292629D02*
X89324Y297353D01*
X73576Y292629D02*
X84599D01*
X68757Y266313D02*
X73311D01*
X20890Y264867D02*
X21157Y264600D01*
X20890Y300601D02*
X20918D01*
X38635Y301487D02*
Y310247D01*
X39521Y311132D01*
X30761D02*
X39521D01*
X21312D02*
X30761D01*
X12552D02*
X21312D01*
X12552D02*
X13438Y310247D01*
Y301487D02*
Y310247D01*
X109372Y267616D02*
X110357Y268600D01*
Y261027D02*
Y268600D01*
Y261027D02*
X112909Y258474D01*
X128309D01*
X297184Y291421D02*
X302957D01*
X131957Y269208D02*
Y299800D01*
X62125Y118875D02*
X63100Y117900D01*
X52256Y68700D02*
X58656D01*
X81056Y57544D02*
Y61544D01*
X25856Y63100D02*
X33056D01*
X36656Y66700D01*
X41056Y71100D01*
X24788Y82788D02*
X29856D01*
X24700Y82700D02*
X24788Y82788D01*
X63100Y109100D02*
Y112388D01*
X202643Y135887D02*
Y143543D01*
X81056Y61544D02*
X85944D01*
X86300Y61900D01*
X181500Y134400D02*
Y142400D01*
X174757Y117600D02*
Y125600D01*
X174413Y125943D02*
X174757Y125600D01*
X86212Y38700D02*
X87900D01*
X90300Y36300D01*
X58656Y68700D02*
Y71056D01*
X8700Y116300D02*
Y141900D01*
X62125Y118875D02*
Y130075D01*
X181500Y134400D02*
X184700Y131200D01*
X195100Y144000D02*
X195557Y143543D01*
X195100Y144000D02*
Y149600D01*
X184700Y131200D02*
X185500D01*
X181500Y125943D02*
X186300D01*
X262483Y224117D02*
X263416D01*
X250818Y238834D02*
Y247068D01*
X186300Y123988D02*
Y125943D01*
X86300Y52300D02*
Y56388D01*
X32156Y31700D02*
X102056D01*
X86300Y52300D02*
X92547Y46053D01*
X241731Y118400D02*
Y125374D01*
X242300Y125943D02*
Y132800D01*
X241731Y125374D02*
X241957Y125600D01*
X242300Y125943D01*
X202643Y143543D02*
Y158057D01*
X186300Y125943D02*
X187352D01*
X189054Y127646D01*
X181500Y142400D02*
Y166400D01*
X170643Y106400D02*
Y110857D01*
X167900Y113600D02*
X170643Y110857D01*
X156700Y113600D02*
X167900D01*
X154300Y116000D02*
X156700Y113600D01*
X242300Y132800D02*
Y138400D01*
X246300Y142400D01*
X267100D01*
X168700Y125600D02*
X169043Y125943D01*
X181500Y106400D02*
X186300Y111200D01*
X170643Y106400D02*
X181500D01*
X258150Y247313D02*
Y256113D01*
X266950Y254400D02*
X270900D01*
X258000Y255346D02*
X258059Y255287D01*
X22156Y88300D02*
X29856D01*
X40244Y105800D02*
X40344Y105900D01*
X37200Y105800D02*
X40244D01*
X15100Y48756D02*
X32156Y31700D01*
X15100Y48756D02*
Y81244D01*
X22156Y88300D01*
X89609Y75400D02*
X90409Y74600D01*
X85500Y75400D02*
X89609D01*
X83344Y77556D02*
X85500Y75400D01*
X83344Y77556D02*
Y79400D01*
X25100Y93900D02*
X29856D01*
X20800Y98200D02*
X25100Y93900D01*
X8700Y116300D02*
X21000Y104000D01*
X20800Y103800D02*
X21000Y104000D01*
X20800Y98200D02*
Y103800D01*
X8700Y141900D02*
X16400Y149600D01*
X42600D01*
X62125Y130075D01*
X85856Y121900D02*
Y124800D01*
X106300Y136656D02*
X106444Y136800D01*
X106400Y136844D02*
Y138900D01*
X105300Y117900D02*
X109056D01*
X109144Y109756D02*
Y111500D01*
X107900Y108200D02*
X108100D01*
X109400Y109500D01*
X103825Y95500D02*
X104025Y95700D01*
X106800D01*
X195300Y18400D02*
X198300D01*
X92547Y46053D02*
X103747D01*
X107900Y41900D01*
X111456Y41100D02*
X122656D01*
X107900Y41900D02*
X111600D01*
Y41244D02*
Y41900D01*
X102056Y31700D02*
X111456Y41100D01*
X111600Y41244D01*
X288700Y47200D02*
Y120800D01*
X267100Y142400D02*
X288700Y120800D01*
D42*
X201800Y12888D02*
X211188D01*
X287900Y139200D02*
X309957D01*
X224624Y120647D02*
X227892D01*
X313500Y135657D02*
X314187Y136343D01*
X313500Y135657D02*
X313500D01*
X309957Y139200D02*
X313500Y135657D01*
X300900Y203646D02*
Y232500D01*
X308400Y230100D02*
X327700D01*
X302700Y224400D02*
X308400Y230100D01*
X302700Y202900D02*
Y224400D01*
X308500Y240100D02*
X327700D01*
X241000Y231966D02*
X243547Y234513D01*
X241000Y206500D02*
Y231966D01*
X250818Y206682D02*
Y230193D01*
Y206682D02*
X251000Y206500D01*
X253967Y224533D02*
X261000Y217500D01*
Y206500D02*
Y217500D01*
X241000Y195493D02*
Y206500D01*
X206107Y160600D02*
X241000Y195493D01*
X251000Y202353D02*
Y206500D01*
X208147Y159500D02*
X251000Y202353D01*
X244100Y179600D02*
X271000Y206500D01*
X233407Y179600D02*
X244100D01*
X281000Y206483D02*
Y206500D01*
X252317Y177800D02*
X281000Y206483D01*
X272416Y224116D02*
X272642D01*
X277490D01*
X266566Y230193D02*
X272642Y224116D01*
X271000Y206500D02*
Y222700D01*
X272416Y224116D01*
X86691Y101603D02*
Y102400D01*
X243547Y234513D02*
X250434D01*
X253967Y224533D02*
Y230193D01*
X212084Y158100D02*
X212253Y158269D01*
Y158446D01*
X233407Y179600D01*
X214053Y157700D02*
X214287D01*
X234387Y177800D01*
X252317D01*
X219958Y127124D02*
Y160700D01*
X220127Y160869D01*
Y160994D01*
X235132Y176000D01*
X273254D01*
X300900Y203646D01*
X221927Y127124D02*
Y160249D01*
X235878Y174200D01*
X274000D01*
X302700Y202900D01*
X224624Y124427D02*
Y160400D01*
X236624Y172400D01*
X288200D01*
X228700Y124000D02*
Y157500D01*
X234500Y163300D01*
X231100Y123854D02*
Y152200D01*
X231700Y152800D01*
Y152891D01*
X237809Y159000D01*
X268100D01*
X287900Y139200D01*
X145300Y81100D02*
X145900Y81700D01*
X132656Y81100D02*
X145300D01*
X145900Y81700D02*
X146500Y81100D01*
X170018D01*
X145900Y91700D02*
X148600Y89000D01*
X175372D01*
X145900Y71700D02*
X163163D01*
X145900Y61700D02*
X155709D01*
X145900Y51700D02*
X148254D01*
X145900Y41700D02*
X153900Y49700D01*
Y54800D01*
X60694Y146306D02*
Y155700D01*
X145300Y41100D02*
X145900Y41700D01*
X132656Y41100D02*
X145300D01*
Y51100D02*
X145900Y51700D01*
X132656Y51100D02*
X145300D01*
Y61100D02*
X145900Y61700D01*
X132656Y61100D02*
X145300D01*
Y71100D02*
X145900Y71700D01*
X132656Y71100D02*
X145300D01*
Y91100D02*
X145900Y91700D01*
X132656Y91100D02*
X145300D01*
X155700Y32300D02*
Y54054D01*
X140272Y16872D02*
X155700Y32300D01*
X139300Y16872D02*
X140272D01*
X155700Y54054D02*
X190854Y89209D01*
X157500Y52498D02*
X202085Y97083D01*
X157500Y25072D02*
Y52498D01*
X149300Y16872D02*
X157500Y25072D01*
X306159Y160900D02*
X314900Y169641D01*
X288200Y172400D02*
X299700Y160900D01*
X310270Y100413D02*
X316183Y94500D01*
X305000Y100413D02*
X310270D01*
X322300Y136343D02*
X331900D01*
X328190Y132634D02*
X331900Y136343D01*
X328190Y125800D02*
Y132634D01*
Y125800D02*
X333900Y120090D01*
Y94500D02*
Y120090D01*
X298500Y91457D02*
X305500Y84457D01*
X261900Y157200D02*
X298500Y120600D01*
Y91457D02*
Y120600D01*
X305500Y46057D02*
X305500Y46057D01*
X316800D01*
X327705Y53143D02*
X328057Y52791D01*
X316800Y53143D02*
X327705D01*
X305500Y74457D02*
X317100D01*
X317200Y74357D01*
Y81443D02*
X327948D01*
X328000Y81391D01*
X274309Y296274D02*
Y301974D01*
X64000Y137488D02*
X69056Y132432D01*
Y124388D02*
Y132432D01*
X75151Y124083D02*
X75500Y124432D01*
Y137244D01*
Y142756D02*
Y151294D01*
X79906Y155700D01*
X60694Y146306D02*
X64000Y143000D01*
X287290Y235916D02*
X288690Y234516D01*
X117937Y66276D02*
X118008Y66205D01*
Y63267D02*
Y66205D01*
X117908Y63167D02*
X118008Y63267D01*
X117908Y53992D02*
Y63167D01*
Y53992D02*
X120800Y51100D01*
X122656D01*
X81400Y73200D02*
X81500Y73100D01*
X81367Y73200D02*
X81400D01*
X79200Y75367D02*
X81367Y73200D01*
X79200Y75367D02*
Y75400D01*
X79088Y75512D02*
X79200Y75400D01*
X104200Y103200D02*
X107600Y99800D01*
X111033D01*
X111533Y100300D02*
X114161D01*
X111033Y99800D02*
X111533Y100300D01*
X97800Y116233D02*
X103467Y121900D01*
X97800Y113509D02*
Y116233D01*
X86691Y102400D02*
X97800Y113509D01*
X92034Y97666D02*
X97567Y103200D01*
X104200D01*
X114161Y100300D02*
X122656Y91805D01*
Y91100D02*
Y91805D01*
X114056Y121900D02*
X114568Y122412D01*
X103467Y121900D02*
X114056D01*
X91100Y101900D02*
Y104263D01*
X88835Y99635D02*
X91100Y101900D01*
X85721Y99635D02*
X88835D01*
X83025Y104300D02*
Y105825D01*
X91900Y117100D02*
Y131144D01*
X85322Y110522D02*
X91900Y117100D01*
X84078Y110522D02*
X85322D01*
X79100Y108300D02*
X85856Y115056D01*
X79088Y108300D02*
X79100D01*
X79088Y104300D02*
Y108300D01*
X85856Y115056D02*
Y116388D01*
X81056Y107500D02*
X84078Y110522D01*
X81056Y104300D02*
Y107500D01*
X85721Y97666D02*
X92034D01*
X88656Y73100D02*
X99456Y62300D01*
X81500Y73100D02*
X88656D01*
X316183Y94500D02*
Y120090D01*
X213500Y32916D02*
X239091D01*
X180772Y16872D02*
X197500Y33600D01*
X212817D02*
X213500Y32916D01*
X197500Y33600D02*
X212817D01*
X179300Y16872D02*
X180772D01*
X190854Y89209D02*
Y90658D01*
X200273Y100076D01*
X187254Y96946D02*
X193821Y103513D01*
X187254Y90700D02*
Y96946D01*
X148254Y51700D02*
X187254Y90700D01*
X185454Y97691D02*
X193244Y105481D01*
X185454Y91445D02*
Y97691D01*
X155709Y61700D02*
X185454Y91445D01*
X183654Y98437D02*
X192824Y107606D01*
X183654Y92191D02*
Y98437D01*
X163163Y71700D02*
X183654Y92191D01*
X181854Y99182D02*
X192247Y109575D01*
X181854Y92937D02*
Y99182D01*
X170018Y81100D02*
X181854Y92937D01*
X180054Y99928D02*
X190487Y110360D01*
X180054Y93682D02*
Y99928D01*
X175372Y89000D02*
X180054Y93682D01*
X202085Y97083D02*
Y99920D01*
X202242Y100076D01*
X213500Y15200D02*
X239091D01*
X211188Y12888D02*
X213500Y15200D01*
X189054Y89954D02*
Y95306D01*
X153900Y54800D02*
X189054Y89954D01*
X321960Y190100D02*
X327700D01*
X310100Y178240D02*
X321960Y190100D01*
X314900Y176100D02*
X316500Y177700D01*
X327700Y190100D02*
X329150Y188650D01*
X77119Y73481D02*
X81056Y69544D01*
X198300Y12888D02*
X201800Y12888D01*
X101616Y262657D02*
X104607Y265647D01*
X88757Y262657D02*
X101616D01*
X121405Y295394D02*
X125109Y291690D01*
Y275253D02*
Y291690D01*
X119441Y269584D02*
X125109Y275253D01*
X116107Y269584D02*
X119441D01*
X61653Y101603D02*
X66548D01*
X57356Y105900D02*
X61653Y101603D01*
X45856Y105900D02*
X57356D01*
X61584Y104300D02*
X69245D01*
X56256Y109628D02*
X61584Y104300D01*
X56256Y109628D02*
Y115188D01*
X55656Y51588D02*
X58656D01*
X55256Y51988D02*
X55656Y51588D01*
X52256Y51988D02*
X55256D01*
X52256Y45500D02*
Y51988D01*
X51856Y45100D02*
X52256Y45500D01*
X51856Y38700D02*
Y45100D01*
X61856Y38700D02*
Y48700D01*
X130256Y140700D02*
Y147100D01*
X129856Y140300D02*
X130256Y140700D01*
X129856Y133900D02*
Y140300D01*
Y127500D02*
Y133900D01*
X25856Y51880D02*
X35336D01*
X25856Y74320D02*
X31236Y79700D01*
X314187Y136343D02*
X322300D01*
X69056Y41500D02*
Y51144D01*
Y41500D02*
X71856Y38700D01*
X80700D01*
X58656Y63188D02*
X61952D01*
X58656Y57100D02*
Y63188D01*
X52256Y57500D02*
Y63188D01*
X57422Y97666D02*
X66548D01*
X53744Y93988D02*
X57422Y97666D01*
X45856Y93988D02*
X53744D01*
X62356Y99635D02*
X66548D01*
X62221Y99500D02*
X62356Y99635D01*
X45856Y99500D02*
X62221D01*
X41132D02*
X45856D01*
X40956Y99324D02*
X41132Y99500D01*
X36256Y99324D02*
X40956D01*
X33044D02*
X36256D01*
X32956Y99412D02*
X33044Y99324D01*
X29856Y99412D02*
X32956D01*
X32744Y127412D02*
X50744D01*
X29456Y130700D02*
X32744Y127412D01*
X56256Y120700D02*
Y127412D01*
X122756Y133900D02*
X124344D01*
X119956Y131100D02*
X122756Y133900D01*
X119956Y127800D02*
Y131100D01*
X114568Y122412D02*
X119956Y127800D01*
X114568Y117900D02*
Y122412D01*
X124344Y117300D02*
Y127500D01*
X118544Y111500D02*
X124344Y117300D01*
X114656Y111500D02*
X118544D01*
X102508Y273652D02*
Y295000D01*
Y273652D02*
X104607Y271553D01*
X75151Y104300D02*
Y124083D01*
X77119Y104300D02*
Y111713D01*
X35336Y51880D02*
X45756Y62300D01*
X65527Y85127D02*
X69245D01*
X57999Y95698D02*
X66548D01*
X58576Y93729D02*
X66548D01*
X318357Y18457D02*
X318413Y18400D01*
X317900Y74457D02*
X317957Y74400D01*
X69056Y124388D02*
X73182Y120262D01*
Y104300D02*
Y120262D01*
X91900Y131144D02*
X95989D01*
X96344Y131500D01*
X101856D02*
X105944D01*
X106300Y131144D01*
X77119Y111713D02*
X80700Y115294D01*
X85721Y101603D02*
X86691D01*
X81056Y67056D02*
Y69544D01*
X99456Y51100D02*
Y62300D01*
X73856Y61900D02*
X77000Y58756D01*
Y55567D02*
Y58756D01*
Y55567D02*
X91467Y41100D01*
X99456D01*
X31236Y79700D02*
X44547D01*
X58576Y93729D01*
X41856Y88300D02*
X50602D01*
X57999Y95698D01*
X159300Y16872D02*
Y49613D01*
X296700Y64857D02*
X305500Y56057D01*
X292700Y42057D02*
X306300Y28457D01*
X77119Y73481D02*
Y85127D01*
X79088Y75512D02*
Y85127D01*
X221927Y99719D02*
Y100076D01*
Y99719D02*
X222054Y99592D01*
X219958Y96742D02*
Y100076D01*
Y96742D02*
X222500Y94200D01*
X226621D01*
X229856Y90965D01*
X224624Y118521D02*
X224780Y118678D01*
X224624Y116553D02*
X224780Y116709D01*
X224624Y114584D02*
X224780Y114741D01*
X224624Y122458D02*
X227158D01*
X224624Y120490D02*
Y120647D01*
X224780Y118678D02*
X228469D01*
X224780Y116709D02*
X229046D01*
X224780Y114741D02*
X229623D01*
X314900Y169641D02*
Y176100D01*
X299700Y160900D02*
X306159D01*
X227158Y122458D02*
X228700Y124000D01*
X227892Y120647D02*
X231100Y123854D01*
X228469Y118678D02*
X233500Y123709D01*
X229046Y116709D02*
X235900Y123563D01*
Y152000D01*
X237700Y150600D02*
X240700Y153600D01*
X235900Y152000D02*
X239300Y155400D01*
X233500Y123709D02*
Y152146D01*
X238554Y157200D01*
X224624Y112616D02*
X230116D01*
X237700Y122818D02*
Y150600D01*
X229623Y114741D02*
X237700Y122818D01*
X230116Y112616D02*
X235900Y118400D01*
X238069D01*
X224624Y110647D02*
X232222D01*
X232469Y110400D01*
X240700D02*
X240700Y110400D01*
X245269D02*
X245269Y110400D01*
X259900Y91505D02*
Y99657D01*
X223900Y96000D02*
X231100D01*
X232200Y48300D02*
X234600D01*
X231100Y96000D02*
X238300Y88800D01*
Y52000D02*
Y88800D01*
X234600Y48300D02*
X238300Y52000D01*
X232200Y39807D02*
Y48300D01*
Y39807D02*
X239091Y32916D01*
X238554Y157200D02*
X261900D01*
X239300Y155400D02*
X261154D01*
X296700Y119854D01*
Y64857D02*
Y119854D01*
X240700Y153600D02*
X260409D01*
X292700Y121309D01*
Y42057D02*
Y121309D01*
X222054Y98558D02*
Y99592D01*
Y98558D02*
X222265Y98346D01*
Y97635D02*
Y98346D01*
Y97635D02*
X223900Y96000D01*
X218158Y95996D02*
Y97833D01*
X218146Y97845D02*
X218158Y97833D01*
X218146Y97845D02*
Y99920D01*
X217990Y100076D02*
X218146Y99920D01*
X218158Y95996D02*
X220700Y93454D01*
X223490Y86635D02*
X224344D01*
X220700Y89425D02*
X223490Y86635D01*
X220700Y89425D02*
Y93454D01*
X159300Y49613D02*
X204210Y94524D01*
Y100076D01*
X192700Y60900D02*
Y77600D01*
X212084Y96984D01*
Y100076D01*
X234500Y163300D02*
X252600D01*
X255300Y166000D01*
X57907Y80053D02*
X64781Y86927D01*
X58653Y78253D02*
X65527Y85127D01*
X57854Y80053D02*
X57907D01*
X58600Y78253D02*
X58653D01*
X54556Y76754D02*
X57854Y80053D01*
X56356Y75956D02*
Y76009D01*
X58600Y78253D01*
X61856Y48700D02*
X64200Y51044D01*
X61952Y63188D02*
Y70119D01*
X41056Y76612D02*
X46012D01*
X59192Y89792D01*
X66548D01*
X45756Y69930D02*
X52580Y76754D01*
X54556D01*
X45756Y62300D02*
Y69930D01*
X53325Y74954D02*
X55354D01*
X56356Y75956D01*
X64200Y51044D02*
Y69600D01*
X73182Y78582D01*
Y85127D01*
X61952Y70119D02*
X71214Y79381D01*
Y85127D01*
X47556Y69185D02*
X53325Y74954D01*
X47556Y63188D02*
X52256D01*
X47556D02*
Y69185D01*
X91824Y136656D02*
X91900D01*
X80700Y115294D02*
Y125533D01*
X91824Y136656D01*
X109367Y147100D02*
X110256D01*
X101856Y139589D02*
X109367Y147100D01*
X101856Y131500D02*
Y139589D01*
X120256Y139423D02*
Y147100D01*
X83025Y105825D02*
X85922Y108722D01*
X86068D01*
X102646Y125300D01*
X106133D01*
X120256Y139423D01*
X91100Y104263D02*
X98869Y112033D01*
X103333D01*
X105500Y114200D01*
X111356Y114800D02*
X114656Y111500D01*
X105500Y114200D02*
X106833D01*
X107433Y114800D01*
X111356D01*
X300900Y232500D02*
X308500Y240100D01*
X186500Y54700D02*
X192700Y60900D01*
X186500Y48800D02*
Y54700D01*
X172400Y49000D02*
Y60168D01*
X180516Y68284D01*
D43*
X235800Y181300D02*
X261000Y206500D01*
X232703Y181300D02*
X235800D01*
X210116Y158713D02*
X232703Y181300D01*
X210116Y127124D02*
Y158713D01*
X281034Y230300D02*
Y231766D01*
Y229800D02*
Y230300D01*
Y229800D02*
X282234Y231000D01*
X285174D02*
X288690Y234516D01*
X282234Y231000D02*
X285174D01*
X281000Y206500D02*
X281034Y230300D01*
X253967Y230193D02*
X254451Y229709D01*
X250818Y230193D02*
X251302Y229709D01*
X266950Y234513D02*
X278287D01*
X281034Y231766D01*
X206107Y127195D02*
Y160600D01*
X208147Y127124D02*
Y159500D01*
X212084Y127124D02*
Y158100D01*
X214053Y127124D02*
Y157700D01*
X266354Y284478D02*
X286084D01*
X274509Y288974D02*
X274909Y288574D01*
X271657Y288974D02*
X274509D01*
X265161Y285670D02*
X266354Y284478D01*
X265161Y285670D02*
Y286415D01*
X286084Y284478D02*
X286227Y284335D01*
X297184D01*
X99254Y85100D02*
X118008Y66347D01*
X89944Y85100D02*
X99254D01*
X88689Y86354D02*
X89944Y85100D01*
X88689Y86354D02*
Y86637D01*
X87503Y87824D02*
X88689Y86637D01*
X85721Y87824D02*
X87503D01*
X87797Y89792D02*
X90489Y87100D01*
X88668Y93729D02*
X91498Y90900D01*
X189054Y96341D02*
X195486Y102773D01*
X189054Y95306D02*
Y96341D01*
X75151Y85127D02*
X75151Y85127D01*
X85721Y93729D02*
X88668D01*
X85721Y91761D02*
X88091D01*
X90952Y88900D01*
X91898D01*
X85721Y89792D02*
X87797D01*
X64781Y86927D02*
X65678Y87824D01*
X66548D01*
X181843Y117600D02*
X188098D01*
X189145Y116553D02*
X197576D01*
X188098Y117600D02*
X189145Y116553D01*
X192247Y109575D02*
X193319Y110647D01*
X197576D01*
X192824Y107606D02*
X193896Y108679D01*
X197576D01*
X193244Y105481D02*
X194473Y106710D01*
X197576D01*
X193821Y103513D02*
X195051Y104742D01*
X197576D01*
X195486Y102773D02*
X197576D01*
X190487Y110360D02*
X192742Y112616D01*
X197576D01*
X206107Y127195D02*
X206179Y127124D01*
X75151Y78051D02*
Y85127D01*
D44*
X236131Y110400D02*
X240700D01*
X240700Y110400D02*
X245269D01*
X256243Y110400D02*
X259900Y106743D01*
X248931Y110400D02*
X256243D01*
D45*
X79906Y155700D02*
D03*
X60694D02*
D03*
D46*
X333900Y94500D02*
D03*
Y120090D02*
D03*
X316183Y94500D02*
D03*
Y120090D02*
D03*
X327564Y288431D02*
D03*
X241000Y206500D02*
D03*
X172400Y49000D02*
D03*
X305500Y74457D02*
D03*
Y84457D02*
D03*
X306300Y18457D02*
D03*
Y28457D02*
D03*
X305500Y46057D02*
D03*
Y56057D02*
D03*
X186500Y48800D02*
D03*
X327700Y220100D02*
D03*
Y230100D02*
D03*
Y250100D02*
D03*
Y260100D02*
D03*
Y240100D02*
D03*
Y210100D02*
D03*
Y200100D02*
D03*
Y190100D02*
D03*
X22700Y22100D02*
D03*
X305300Y119500D02*
D03*
X308400Y230100D02*
D03*
X306159Y160900D02*
D03*
X308400Y240100D02*
D03*
X145900Y81700D02*
D03*
Y61700D02*
D03*
Y41700D02*
D03*
Y51700D02*
D03*
Y71700D02*
D03*
Y91700D02*
D03*
X120256Y147100D02*
D03*
X130256D02*
D03*
X110256D02*
D03*
X21157Y264600D02*
D03*
X31157D02*
D03*
X281000Y206500D02*
D03*
X271000D02*
D03*
X89324Y297353D02*
D03*
X206300Y183600D02*
D03*
X261000Y206500D02*
D03*
X251000D02*
D03*
X213500Y15200D02*
D03*
X239091D02*
D03*
X213500Y32916D02*
D03*
X239091D02*
D03*
X42079Y281605D02*
D03*
X52079D02*
D03*
X327209Y301774D02*
D03*
X317209D02*
D03*
X141957Y299800D02*
D03*
X131957D02*
D03*
X255957D02*
D03*
X245957D02*
D03*
X61856Y38700D02*
D03*
X71856D02*
D03*
X51856D02*
D03*
X255300Y166000D02*
D03*
X303500Y139400D02*
D03*
X99456Y41100D02*
D03*
Y51100D02*
D03*
X197500Y33600D02*
D03*
D47*
X122656Y41100D02*
D03*
Y51100D02*
D03*
Y61100D02*
D03*
Y91100D02*
D03*
Y81100D02*
D03*
Y71100D02*
D03*
X149300Y16872D02*
D03*
X139300D02*
D03*
X129300D02*
D03*
X159300D02*
D03*
X169300D02*
D03*
X179300D02*
D03*
X132656Y91100D02*
D03*
Y81100D02*
D03*
Y71100D02*
D03*
Y41100D02*
D03*
Y51100D02*
D03*
Y61100D02*
D03*
D48*
X216417Y293551D02*
D03*
D49*
X186889D02*
D03*
D50*
X29456Y130700D02*
D03*
D51*
X39456Y120700D02*
D03*
X19456D02*
D03*
X39456Y140700D02*
D03*
X19456D02*
D03*
D52*
X268409Y293974D02*
D03*
X274909Y288574D02*
D03*
X274309Y296274D02*
D03*
X328200Y9100D02*
D03*
X328057Y36343D02*
D03*
X328000Y64800D02*
D03*
X91400Y79400D02*
D03*
X72400Y90979D02*
D03*
X100700Y99500D02*
D03*
X328500Y160100D02*
D03*
X299700Y174500D02*
D03*
X46522Y301487D02*
D03*
X302957Y291421D02*
D03*
X304296Y311261D02*
D03*
X260664Y282731D02*
D03*
X118709Y274474D02*
D03*
X73311Y266313D02*
D03*
X24700Y82700D02*
D03*
X63100Y109100D02*
D03*
X90300Y36300D02*
D03*
X262483Y224117D02*
D03*
X217500Y52000D02*
D03*
X195100Y149600D02*
D03*
X167900Y142400D02*
D03*
X168700Y125600D02*
D03*
X159700Y99000D02*
D03*
X159200Y106400D02*
D03*
X270900Y254400D02*
D03*
X258000Y260900D02*
D03*
X37200Y105800D02*
D03*
X36656Y66700D02*
D03*
X58700Y72100D02*
D03*
X81056Y57544D02*
D03*
X85856Y124800D02*
D03*
X106400Y138900D02*
D03*
X105300Y117900D02*
D03*
X111100Y105100D02*
D03*
X107900Y108200D02*
D03*
X106800Y95700D02*
D03*
X195300Y18400D02*
D03*
X204604Y107104D02*
D03*
Y111435D02*
D03*
Y115765D02*
D03*
Y120096D02*
D03*
X208935Y107104D02*
D03*
Y111435D02*
D03*
Y115765D02*
D03*
Y120096D02*
D03*
X213265Y107104D02*
D03*
Y111435D02*
D03*
Y115765D02*
D03*
Y120096D02*
D03*
X217596Y107104D02*
D03*
Y111435D02*
D03*
Y115765D02*
D03*
Y120096D02*
D03*
X151900Y108000D02*
D03*
X149500Y112800D02*
D03*
Y122400D02*
D03*
Y132000D02*
D03*
X156700Y98400D02*
D03*
X154300Y103200D02*
D03*
X156700Y108000D02*
D03*
X159100Y103200D02*
D03*
Y122400D02*
D03*
X161500Y127200D02*
D03*
X159100Y132000D02*
D03*
X161500Y136800D02*
D03*
X159100Y141600D02*
D03*
X161500Y146400D02*
D03*
X163900Y93600D02*
D03*
Y122400D02*
D03*
Y132000D02*
D03*
X166300Y136800D02*
D03*
X163900Y141600D02*
D03*
X166300Y146400D02*
D03*
X168700Y122400D02*
D03*
Y132000D02*
D03*
Y151200D02*
D03*
X173500D02*
D03*
X190300Y136800D02*
D03*
X187900Y141600D02*
D03*
X190300Y146400D02*
D03*
X187900Y151200D02*
D03*
X195100Y127200D02*
D03*
X202300Y64800D02*
D03*
X214300Y88800D02*
D03*
X216700Y74400D02*
D03*
X219100Y79200D02*
D03*
X216700Y84000D02*
D03*
X221500Y74400D02*
D03*
X223900Y79200D02*
D03*
X228700Y69600D02*
D03*
X226300Y74400D02*
D03*
X228700Y79200D02*
D03*
X233500Y69600D02*
D03*
X231100Y74400D02*
D03*
X233500Y79200D02*
D03*
X231100Y103200D02*
D03*
X238300Y98400D02*
D03*
X235900Y103200D02*
D03*
X243100Y69600D02*
D03*
Y79200D02*
D03*
Y88800D02*
D03*
X240700Y93600D02*
D03*
X243100Y98400D02*
D03*
X240700Y103200D02*
D03*
X245500Y64800D02*
D03*
X247900Y69600D02*
D03*
X245500Y74400D02*
D03*
X247900Y79200D02*
D03*
X245500Y84000D02*
D03*
X247900Y88800D02*
D03*
X245500Y93600D02*
D03*
X247900Y98400D02*
D03*
X245500Y103200D02*
D03*
X247900Y117600D02*
D03*
X250300Y64800D02*
D03*
X252700Y69600D02*
D03*
X250300Y74400D02*
D03*
X252700Y79200D02*
D03*
X250300Y84000D02*
D03*
Y93600D02*
D03*
X252700Y98400D02*
D03*
X250300Y103200D02*
D03*
X252700Y117600D02*
D03*
X255100Y64800D02*
D03*
X257500Y69600D02*
D03*
X255100Y74400D02*
D03*
X257500Y79200D02*
D03*
Y117600D02*
D03*
X255100Y122400D02*
D03*
X257500Y127200D02*
D03*
X255100Y132000D02*
D03*
X257500Y136800D02*
D03*
X259900Y64800D02*
D03*
X262300Y69600D02*
D03*
X259900Y74400D02*
D03*
X262300Y79200D02*
D03*
X259900Y84000D02*
D03*
X262300Y117600D02*
D03*
X259900Y122400D02*
D03*
X262300Y127200D02*
D03*
X259900Y132000D02*
D03*
X262300Y136800D02*
D03*
X264700Y64800D02*
D03*
X267100Y69600D02*
D03*
X264700Y74400D02*
D03*
X267100Y79200D02*
D03*
Y98400D02*
D03*
Y108000D02*
D03*
X264700Y112800D02*
D03*
X267100Y117600D02*
D03*
X264700Y122400D02*
D03*
X267100Y127200D02*
D03*
X264700Y132000D02*
D03*
X269500Y64800D02*
D03*
X271900Y69600D02*
D03*
X269500Y74400D02*
D03*
X271900Y79200D02*
D03*
X269500Y84000D02*
D03*
X271900Y88800D02*
D03*
X269500Y93600D02*
D03*
X271900Y98400D02*
D03*
X269500Y103200D02*
D03*
X271900Y108000D02*
D03*
X269500Y112800D02*
D03*
X271900Y117600D02*
D03*
X269500Y122400D02*
D03*
X271900Y127200D02*
D03*
X269500Y132000D02*
D03*
X274300Y64800D02*
D03*
X276700Y69600D02*
D03*
X274300Y74400D02*
D03*
X276700Y79200D02*
D03*
X274300Y84000D02*
D03*
X276700Y88800D02*
D03*
X274300Y93600D02*
D03*
X276700Y98400D02*
D03*
X274300Y103200D02*
D03*
X276700Y108000D02*
D03*
X274300Y112800D02*
D03*
X276700Y117600D02*
D03*
X274300Y122400D02*
D03*
X279100Y74400D02*
D03*
X281500Y79200D02*
D03*
X279100Y84000D02*
D03*
X281500Y88800D02*
D03*
X279100Y93600D02*
D03*
X281500Y98400D02*
D03*
X279100Y103200D02*
D03*
X281500Y108000D02*
D03*
X279100Y112800D02*
D03*
X281500Y117600D02*
D03*
X279100Y122400D02*
D03*
X283900Y74400D02*
D03*
Y84000D02*
D03*
Y93600D02*
D03*
Y103200D02*
D03*
Y112800D02*
D03*
M02*
